<svg width="35" height="23" viewBox="0 0 35 23" fill="none" xmlns="http://www.w3.org/2000/svg">
<g id="Ahmedabad">
<path id="Vector" d="M16.9445 2.22314C16.9445 3.04346 16.5616 3.64502 15.8507 3.80908C15.2491 3.97314 14.3195 4.84814 13.8273 5.77783C13.1163 7.03564 12.4601 7.47314 11.3663 7.47314C10.4913 7.47314 9.83508 7.69189 9.83508 8.02002C9.83508 8.29346 10.2179 8.56689 10.6554 8.56689C11.1476 8.56689 11.4757 9.05908 11.4757 9.93408C11.4757 11.7388 10.9288 11.6841 9.23352 9.71533L7.81164 8.07471L6.49914 9.66064C5.7882 10.5356 4.85852 11.2466 4.4757 11.3013C4.09289 11.3013 3.92883 11.52 4.09289 11.8481C4.53039 12.6138 31.1632 12.6138 31.1632 11.8481C31.1632 11.52 30.8351 11.3013 30.507 11.3013C30.1241 11.3013 29.3038 10.5356 28.7023 9.66064C28.1007 8.78564 27.4991 8.02002 27.3351 8.02002C27.171 8.02002 26.5695 8.78564 25.9679 9.66064C24.6554 11.6841 24.0538 11.7388 24.0538 9.93408C24.0538 9.16846 24.3273 8.56689 24.6007 8.56689C24.9288 8.56689 25.1476 8.29346 25.1476 8.02002C25.1476 7.69189 24.4366 7.47314 23.5616 7.47314C22.3585 7.47314 21.921 7.14502 21.6476 6.10596C21.4835 5.39502 20.5538 4.35596 19.6788 3.91846C18.6945 3.42627 18.0382 2.66064 18.0382 2.00439C18.0382 1.40283 17.8195 0.910645 17.4913 0.910645C17.2179 0.910645 16.9445 1.51221 16.9445 2.22314ZM19.5695 5.06689C21.8116 6.65283 21.1007 7.47314 17.4913 7.47314C15.6866 7.47314 14.2101 7.30908 14.2101 7.09033C14.2101 6.32471 16.6163 4.19189 17.4913 4.19189C17.9288 4.19189 18.9132 4.57471 19.5695 5.06689ZM15.3038 9.93408C15.3038 11.0278 15.0304 11.3013 13.9366 11.3013C12.8429 11.3013 12.5695 11.0278 12.5695 9.93408C12.5695 8.84033 12.8429 8.56689 13.9366 8.56689C15.0304 8.56689 15.3038 8.84033 15.3038 9.93408ZM19.132 9.93408C19.132 11.0278 18.8585 11.3013 17.7648 11.3013C16.671 11.3013 16.3976 11.0278 16.3976 9.93408C16.3976 8.84033 16.671 8.56689 17.7648 8.56689C18.8585 8.56689 19.132 8.84033 19.132 9.93408ZM22.9601 9.93408C22.9601 11.0278 22.6866 11.3013 21.5929 11.3013C20.4991 11.3013 20.2257 11.0278 20.2257 9.93408C20.2257 8.84033 20.4991 8.56689 21.5929 8.56689C22.6866 8.56689 22.9601 8.84033 22.9601 9.93408ZM9.01477 10.7544C9.23352 11.0825 8.74133 11.3013 7.92102 11.3013C7.1007 11.3013 6.60852 11.0825 6.82727 10.7544C6.99133 10.4263 7.48352 10.2075 7.92102 10.2075C8.35852 10.2075 8.8507 10.4263 9.01477 10.7544ZM28.4288 10.7544C28.4288 11.0278 27.7726 11.3013 27.007 11.3013C26.2413 11.3013 25.7491 11.0825 25.9679 10.7544C26.132 10.4263 26.7882 10.2075 27.3898 10.2075C27.9366 10.2075 28.4288 10.4263 28.4288 10.7544Z" fill="#0B9DBC"/>
<path id="Vector_2" d="M2.39746 13.7622C1.3584 14.5278 1.41309 14.5278 2.61621 14.5825C3.70996 14.5825 3.81934 14.856 3.81934 17.2622C3.81934 20.9263 3.43652 21.6919 1.57715 21.6919C0.702148 21.6919 -0.00878906 21.9106 -0.00878906 22.2388C-0.00878906 22.5669 6.1709 22.7856 17.4912 22.7856C28.8115 22.7856 34.9912 22.5669 34.9912 22.2388C34.9912 21.9106 34.4443 21.6919 33.7334 21.6919C31.8193 21.6919 31.1631 20.6528 31.1631 17.481C31.1631 14.9653 31.3271 14.5825 32.2568 14.5825C33.7334 14.5825 33.624 13.7075 32.1475 13.27C31.4365 13.106 24.71 12.9419 17.1631 12.9419C5.95215 12.9419 3.27246 13.106 2.39746 13.7622ZM10.9287 16.2231C10.9287 17.8638 10.874 17.8638 7.9209 17.8638C4.96777 17.8638 4.91309 17.8638 4.91309 16.2231C4.91309 14.5825 4.96777 14.5825 7.9209 14.5825C10.874 14.5825 10.9287 14.5825 10.9287 16.2231ZM23.5068 17.5903C23.5068 20.5435 23.5068 20.5981 21.8662 20.5981C20.335 20.5981 20.2256 20.4341 20.2256 18.52C20.2256 16.3325 19.2412 14.3638 18.749 15.5122C18.4209 16.3872 16.3975 16.4419 16.3975 15.6763C16.3975 15.2935 16.124 15.3481 15.6865 15.731C15.3037 16.1138 15.085 17.2622 15.1943 18.4653C15.4131 20.5435 15.3584 20.5981 13.7178 20.5981C12.0225 20.5981 12.0225 20.5981 12.0225 17.5903V14.5825H17.7646H23.5068V17.5903ZM30.0693 16.2231C30.0693 17.8091 30.0146 17.8638 27.335 17.8638C24.6553 17.8638 24.6006 17.8091 24.6006 16.2231C24.6006 14.6372 24.6553 14.5825 27.335 14.5825C30.0146 14.5825 30.0693 14.6372 30.0693 16.2231ZM19.1318 18.6841C19.1318 20.4341 19.0225 20.5981 17.4912 20.5981C15.96 20.5981 15.8506 20.4341 15.8506 18.6841C15.8506 16.9341 15.96 16.77 17.4912 16.77C19.0225 16.77 19.1318 16.9341 19.1318 18.6841ZM10.9287 19.7778C10.9287 20.4341 10.2178 20.5981 7.9209 20.5981C5.62402 20.5981 4.91309 20.4341 4.91309 19.7778C4.91309 19.1216 5.62402 18.9575 7.9209 18.9575C10.2178 18.9575 10.9287 19.1216 10.9287 19.7778ZM30.0693 19.7778C30.0693 20.3794 29.4131 20.5981 27.335 20.5981C25.2568 20.5981 24.6006 20.3794 24.6006 19.7778C24.6006 19.1763 25.2568 18.9575 27.335 18.9575C29.4131 18.9575 30.0693 19.1763 30.0693 19.7778Z" fill="#0B9DBC"/>
</g>
</svg>
