<svg width="31" height="31" viewBox="0 0 31 31" fill="none" xmlns="http://www.w3.org/2000/svg">
<path id="Vector" d="M18.7832 21.7965C18.9573 21.7737 19.1345 21.7874 19.3024 21.8367C19.4704 21.886 19.625 21.9698 19.7556 22.0821C19.8861 22.1945 19.9894 22.3327 20.0583 22.4872C20.1271 22.6416 20.1598 22.8086 20.1541 22.9764L20.2637 25.354C20.2605 25.4889 20.2867 25.6229 20.3404 25.7476C20.3941 25.8723 20.4743 25.9851 20.5759 26.0788C20.6775 26.1724 20.7983 26.245 20.9306 26.2919C21.063 26.3388 21.2041 26.359 21.345 26.3512C21.6131 26.3363 21.8655 26.2254 22.0517 26.0405C22.2379 25.8557 22.3444 25.6105 22.3497 25.354C22.3441 23.8322 22.3497 21.1393 22.3497 19.2916L19.9943 16.8853M22.3497 19.5382C22.3491 19.7179 22.2889 19.8928 22.1777 20.0378C22.0665 20.1827 21.91 20.2902 21.7308 20.3448C21.5516 20.3994 21.3589 20.3982 21.1804 20.3415C21.0019 20.2848 20.8468 20.1754 20.7375 20.0292C20.6282 19.8829 20.5703 19.7073 20.5721 19.5276C20.5739 19.3479 20.6353 19.1734 20.7475 19.0291C20.8597 18.8849 21.0169 18.7784 21.1965 18.7249C21.3761 18.6715 21.5688 18.6738 21.7469 18.7317M1.48575 10.6869C11.182 14.8509 20.6209 14.8829 29.7974 10.6869M15.6416 13.8217L12.6974 5.76959M15.6416 3.35928V5.15102M24.5648 6.89076L23.2393 8.15724M6.71834 6.89076L8.04392 8.15724M18.7832 26.8438V17.6872C18.783 17.2815 18.6142 16.8925 18.314 16.6056C18.0138 16.3188 17.6066 16.1576 17.182 16.1574H13.9797C13.5553 16.1579 13.1484 16.3193 12.8484 16.6061C12.5483 16.8929 12.3796 17.2817 12.3792 17.6872V26.8445L18.7832 26.8438ZM17.2483 17.7818H13.9141V20.5854H17.2483V17.7818ZM30.6416 15.4342C30.6416 23.3491 23.9258 29.7654 15.6416 29.7654C7.3573 29.7654 0.641571 23.3491 0.641571 15.4342C0.641571 7.51925 7.3573 1.10295 15.6416 1.10295C23.9258 1.10295 30.6416 7.51925 30.6416 15.4342Z" stroke="#0B9DBC" strokeWidth="0.5" strokeLinecap="round" strokeLinejoin="round"/>
</svg>
