<svg width="35" height="29" viewBox="0 0 35 29" fill="none" xmlns="http://www.w3.org/2000/svg">
<g id="Bangalore">
<path id="Vector" d="M16.8878 1.90396C16.8878 3.1712 16.3447 3.95568 14.7757 4.98154C13.3878 5.88672 12.4826 6.97293 12.2412 8.11948C12.0602 9.14534 11.6378 9.92982 11.336 9.92982C11.0343 9.92982 10.9136 10.4729 11.155 11.0764C11.5774 12.4643 10.974 15.3609 10.2498 15.3609C9.94811 15.3609 9.52569 14.154 9.34466 12.6453C9.10328 11.1971 8.56018 9.6281 8.07742 9.26603C7.59466 8.90396 7.23259 8.05913 7.23259 7.45568C7.23259 6.79189 6.93087 6.30913 6.5688 6.30913C6.20673 6.30913 6.02569 6.85224 6.20673 7.45568C6.38776 8.17982 6.02569 9.08499 5.3619 9.68844C4.69811 10.2919 4.33604 11.1367 4.45673 11.5591C4.63776 11.9815 4.39638 13.0678 3.91362 13.9729C3.31018 15.1195 3.00845 17.5936 3.00845 21.516C3.00845 27.4298 3.00845 27.4298 1.49983 27.4298C0.655004 27.4298 -0.00878906 27.6712 -0.00878906 28.0333C-0.00878906 28.3953 6.20673 28.6367 17.4912 28.6367C28.7757 28.6367 34.9912 28.3953 34.9912 28.0333C34.9912 27.6712 34.3274 27.4298 33.4826 27.4298C31.974 27.4298 31.974 27.3695 31.974 21.9988C31.974 16.7488 30.7671 10.2919 29.5602 9.08499C29.2585 8.78327 28.9567 7.99879 28.9567 7.39534C28.9567 6.79189 28.7153 6.30913 28.3533 6.30913C28.0516 6.30913 27.7498 6.97293 27.7498 7.75741C27.7498 8.54189 27.3274 9.50741 26.8447 9.92982C26.3619 10.3522 25.9998 11.016 25.9998 11.3781C26.1809 12.5246 25.2153 15.3609 24.6722 15.3609C24.1291 15.3609 23.8274 13.2488 24.0085 10.9557C24.0688 10.4126 23.8878 9.92982 23.586 9.92982C23.2843 9.92982 22.9222 9.14534 22.7412 8.11948C22.4998 6.97293 21.5947 5.88672 20.2067 4.98154C18.6378 3.95568 18.0947 3.1712 18.0947 1.90396C18.0947 0.998787 17.8533 0.274649 17.4912 0.274649C17.1895 0.274649 16.8878 0.998787 16.8878 1.90396ZM20.3274 6.06775C21.7757 7.15396 22.3188 8.05913 22.1981 8.90396C21.9567 10.7746 19.7843 10.9557 18.9998 9.20568C18.2153 7.45568 16.7671 7.45568 15.9826 9.20568C15.2585 10.8953 13.086 10.7746 12.724 9.02465C12.4826 7.75741 15.8619 4.49879 17.4309 4.49879C17.9136 4.49879 19.1809 5.22293 20.3274 6.06775ZM18.336 9.08499C18.8791 10.4729 18.8188 10.5333 17.4912 10.5333C16.3447 10.5333 15.8619 9.32637 16.7067 8.54189C17.3705 7.8781 17.9136 8.05913 18.336 9.08499ZM7.83604 10.835C8.49983 11.6195 8.3188 11.7402 6.99121 11.7402C5.48259 11.7402 4.99983 11.1367 5.84466 10.3522C6.44811 9.68844 6.99121 9.86948 7.83604 10.835ZM29.4395 11.016C29.5602 11.4384 29.0774 11.7402 28.4136 11.7402C27.1464 11.7402 26.7843 11.0764 27.5688 10.2919C28.1119 9.74879 29.1378 10.1712 29.4395 11.016ZM22.7412 12.0419C22.7412 13.1884 19.3016 13.3091 18.155 12.1626C17.4912 11.5591 17.3102 11.5591 17.0688 12.1626C16.6464 13.3091 12.6636 13.1884 12.6636 12.0419C12.6636 11.3178 13.6291 11.1367 17.6722 11.1367C21.7757 11.1367 22.7412 11.3178 22.7412 12.0419ZM8.43949 13.1884C8.43949 13.3091 8.62052 13.8522 8.80156 14.3953C9.10328 15.1798 8.74121 15.3609 6.99121 15.3609C4.93949 15.3609 4.155 14.4557 5.24121 13.3695C5.66362 12.8867 8.43949 12.766 8.43949 13.1884ZM30.1636 14.154C30.1636 15.1195 29.7412 15.3609 28.3533 15.3609C27.2671 15.3609 26.5429 15.0591 26.5429 14.5764C26.5429 13.3695 27.1464 12.9471 28.7757 12.9471C29.7412 12.9471 30.1636 13.3091 30.1636 14.154ZM18.6981 14.8178C18.6981 15.1195 18.155 15.3609 17.4912 15.3609C16.1636 15.3609 15.8619 14.3953 17.0688 13.9729C17.974 13.6712 18.6981 14.0333 18.6981 14.8178ZM15.6809 14.7574C15.6809 15.0591 14.8964 15.3609 13.8705 15.3609C12.905 15.3609 12.0602 15.0591 12.0602 14.7574C12.0602 14.3953 12.905 14.154 13.8705 14.154C14.8964 14.154 15.6809 14.3953 15.6809 14.7574ZM22.9222 14.7574C22.9222 15.0591 22.2585 15.3609 21.4136 15.3609C20.5688 15.3609 19.905 15.0591 19.905 14.7574C19.905 14.3953 20.5688 14.154 21.4136 14.154C22.2585 14.154 22.9222 14.3953 22.9222 14.7574ZM6.62914 17.1712C6.62914 17.5333 10.7326 17.7746 17.7929 17.7746C24.8533 17.7746 28.9567 17.5333 28.9567 17.1712C28.9567 16.8091 29.3791 16.5678 29.8619 16.5678C30.5257 16.5678 30.7671 17.2315 30.7067 19.1022C30.7067 20.5505 30.5257 21.335 30.3447 20.9126C29.9222 19.8867 27.4481 20.0074 26.5429 21.0936C25.9998 21.6971 25.9998 21.9988 26.4826 21.9988C26.8447 21.9988 27.1464 22.5419 27.1464 23.2057C27.1464 23.9902 27.5688 24.4126 28.3533 24.4126C29.1378 24.4126 29.5602 23.9902 29.5602 23.2057C29.5602 22.5419 29.8619 21.9988 30.1636 21.9988C30.5257 21.9988 30.7671 23.2057 30.7671 24.7143C30.7671 27.2488 30.6464 27.4298 29.1981 27.4298C28.3533 27.4298 27.8102 27.1884 28.0516 26.8264C28.2929 26.404 24.6119 26.2229 17.4912 26.2229C10.3705 26.2229 6.68949 26.404 6.93087 26.8264C7.17225 27.1884 6.62914 27.4298 5.78431 27.4298C4.21535 27.4298 4.21535 27.4298 4.21535 21.9988C4.21535 16.9902 4.27569 16.5678 5.42225 16.5678C6.08604 16.5678 6.62914 16.8091 6.62914 17.1712Z" fill="#0B9DBC"/>
<path id="Vector_2" d="M9.64648 22.3006C9.64648 23.8092 9.94821 25.0161 10.2499 25.0161C10.612 25.0161 10.8534 23.8092 10.8534 22.3006C10.8534 20.792 10.612 19.5851 10.2499 19.5851C9.94821 19.5851 9.64648 20.792 9.64648 22.3006Z" fill="#0B9DBC"/>
<path id="Vector_3" d="M12.6636 22.3006C12.6636 23.8092 12.9653 25.0161 13.267 25.0161C13.6291 25.0161 13.8705 23.8092 13.8705 22.3006C13.8705 20.792 13.6291 19.5851 13.267 19.5851C12.9653 19.5851 12.6636 20.792 12.6636 22.3006Z" fill="#0B9DBC"/>
<path id="Vector_4" d="M15.6809 22.2403C15.6809 23.7489 15.9826 25.0161 16.2844 25.0161C16.6464 25.0161 16.8878 23.9299 16.8878 22.6627C16.8878 21.3351 16.6464 20.0678 16.2844 19.8868C15.9223 19.6454 15.6809 20.6109 15.6809 22.2403Z" fill="#0B9DBC"/>
<path id="Vector_5" d="M18.698 22.2403C18.698 23.7489 18.9997 25.0161 19.3014 25.0161C19.6635 25.0161 19.9049 23.9299 19.9049 22.6627C19.9049 21.3351 19.6635 20.0678 19.3014 19.8868C18.9394 19.6454 18.698 20.6109 18.698 22.2403Z" fill="#0B9DBC"/>
<path id="Vector_6" d="M21.8965 22.3004C21.8965 23.9297 22.0172 24.5935 22.1379 23.628C22.2586 22.7228 22.2586 21.3952 22.1379 20.6108C22.0172 19.8866 21.8965 20.6108 21.8965 22.3004Z" fill="#0B9DBC"/>
<path id="Vector_7" d="M24.5515 20.0075C23.8877 20.6109 24.0687 25.0161 24.7325 25.0161C25.0946 25.0161 25.336 23.8092 25.336 22.3006C25.336 19.5247 25.2153 19.2834 24.5515 20.0075Z" fill="#0B9DBC"/>
<path id="Vector_8" d="M5.24124 20.671C5.06021 20.9124 5.06021 21.8176 5.24124 22.7831C5.724 25.0762 8.1378 25.0762 8.62056 22.7831C8.80159 21.8176 8.80159 20.9124 8.62056 20.671C8.25849 20.0676 5.60331 20.0676 5.24124 20.671Z" fill="#0B9DBC"/>
</g>
</svg>
