<svg width="31" height="26" viewBox="0 0 31 26" fill="none" xmlns="http://www.w3.org/2000/svg">
<path id="Vector" d="M21.6438 0.236099C22.1308 0.236053 22.6105 0.354571 23.0415 0.581415C23.4724 0.808259 23.8416 1.13661 24.1173 1.5381L24.2478 1.7481L29.6178 11.1456C29.8334 11.5229 29.9644 11.9426 30.0018 12.3756L30.0138 12.6351V19.3821C30.0138 19.7541 29.9446 20.1229 29.8098 20.4696L29.6973 20.7246L28.0203 24.0771C27.7896 24.539 27.4437 24.9336 27.0159 25.2226C26.5881 25.5117 26.0929 25.6855 25.5783 25.7271L25.3368 25.7361H22.5138C21.7569 25.7363 21.0279 25.4505 20.473 24.9359C19.918 24.4212 19.5781 23.7158 19.5213 22.9611L19.5138 22.7361H10.5138C10.514 23.493 10.2282 24.222 9.71355 24.7769C9.19891 25.3319 8.49353 25.6718 7.73879 25.7286L7.51379 25.7361H4.69079C4.17501 25.7359 3.66799 25.6027 3.21869 25.3494C2.76938 25.0961 2.39297 24.7313 2.12579 24.2901L2.00729 24.0771L0.330294 20.7231C0.164266 20.3904 0.0615214 20.0298 0.027294 19.6596L0.0137939 19.3821V12.6351C0.013781 12.2011 0.107947 11.7722 0.289794 11.3781L0.409794 11.1456L5.77979 1.7481C6.02143 1.32521 6.36239 0.967516 6.77322 0.705912C7.18405 0.444308 7.65239 0.286664 8.13779 0.246599L8.38379 0.236099H21.6438ZM21.6438 3.2361H8.38379L3.01379 12.6351V19.3821L4.69079 22.7361H7.51379V21.3861C7.51359 20.9795 7.6635 20.5872 7.93479 20.2843C8.20608 19.9815 8.57963 19.7895 8.98379 19.7451L9.16379 19.7361H20.8638C21.2704 19.7359 21.6627 19.8858 21.9656 20.1571C22.2684 20.4284 22.4604 20.8019 22.5048 21.2061L22.5138 21.3861V22.7361H25.3368L27.0138 19.3821V12.6351L21.6438 3.2361ZM21.8448 10.8936C22.2005 10.7165 22.6119 10.6879 22.9888 10.8139C23.3656 10.9398 23.6771 11.2102 23.8548 11.5656C24.0287 11.9223 24.0558 12.333 23.9301 12.7094C23.8045 13.0858 23.5361 13.3979 23.1828 13.5786C20.7168 14.8086 17.7288 15.2361 15.0138 15.2361C12.2448 15.2361 9.35879 14.8131 6.85079 13.5816C6.49757 13.4 6.22912 13.0877 6.10251 12.7112C5.9759 12.3348 6.00112 11.9238 6.17279 11.5656C6.34041 11.2379 6.62182 10.9826 6.96425 10.8475C7.30668 10.7125 7.68661 10.707 8.03279 10.8321L8.43329 11.0046L8.79929 11.1501L9.12779 11.2701L9.51779 11.3991L9.97079 11.5371L10.4808 11.6736L11.0463 11.8086L11.6628 11.9316C12.7683 12.1341 13.8899 12.236 15.0138 12.2361C17.2878 12.2361 19.7658 11.8881 21.8448 10.8936Z" fill="#0B9DBC"/>
</svg>
