<svg width="15" height="15" viewBox="0 0 15 15" fill="none" xmlns="http://www.w3.org/2000/svg">
<path id="Vector" d="M13.7402 0H11.8652V0.117188C11.6309 0.0390625 11.4258 0 11.25 0H2.49023C2.1582 0 1.87012 0.12207 1.62598 0.366211C1.38184 0.610352 1.25977 0.908203 1.25977 1.25977V3.13477H0.615234C0.205078 3.13477 0 3.33984 0 3.75C0 4.16016 0.205078 4.36523 0.615234 4.36523H1.25977V6.88477H0.615234C0.205078 6.88477 0 7.08984 0 7.5C0 7.91016 0.205078 8.11523 0.615234 8.11523H1.25977V10.6348H0.615234C0.205078 10.6348 0 10.8398 0 11.25C0 11.6602 0.205078 11.8652 0.615234 11.8652H1.25977V13.7402C1.25977 14.0918 1.38184 14.3896 1.62598 14.6338C1.87012 14.8779 2.1582 15 2.49023 15H11.25C11.7773 15 12.2217 14.8193 12.583 14.458C12.9443 14.0967 13.125 13.6523 13.125 13.125V10.6348C13.6523 10.6348 14.0967 10.4541 14.458 10.0928C14.8193 9.73145 15 9.28711 15 8.75977V6.24023H14.8828C14.9609 6.00586 15 5.80078 15 5.625V3.13477H14.8828C14.9609 2.86133 15 2.64648 15 2.49023V1.25977C15 0.908203 14.8779 0.610352 14.6338 0.366211C14.3896 0.12207 14.0918 0 13.7402 0ZM13.125 1.25977H13.7402V2.49023C13.7402 2.91992 13.5352 3.13477 13.125 3.13477V1.25977ZM13.125 4.36523C13.3008 4.36523 13.5059 4.32617 13.7402 4.24805V5.625C13.7402 6.03516 13.5352 6.24023 13.125 6.24023V4.36523ZM11.8652 13.125C11.8652 13.5352 11.6602 13.7402 11.25 13.7402H2.49023V11.8652H3.13477C3.54492 11.8652 3.75 11.6602 3.75 11.25C3.75 10.8398 3.54492 10.6348 3.13477 10.6348H2.49023V8.11523H3.13477C3.54492 8.11523 3.75 7.91016 3.75 7.5C3.75 7.08984 3.54492 6.88477 3.13477 6.88477H2.49023V4.36523H3.13477C3.54492 4.36523 3.75 4.16016 3.75 3.75C3.75 3.33984 3.54492 3.13477 3.13477 3.13477H2.49023V1.25977H11.25C11.6602 1.25977 11.8652 1.46484 11.8652 1.875V13.125ZM13.125 9.375V7.5C13.3008 7.5 13.5059 7.46094 13.7402 7.38281V8.75977C13.7402 9.16992 13.5352 9.375 13.125 9.375Z" fill="white"/>
</svg>
