<svg width="51" height="50" viewBox="0 0 51 50" fill="none" xmlns="http://www.w3.org/2000/svg">
<g id="twemoji:man-bowing" clip-path="url(#clip0_469_1352)">
<path id="Vector" d="M37.7006 30.5555H12.7006C12.7006 30.5555 0.200623 30.5555 0.200623 40.2778C0.200623 44.6611 5.75618 50 5.75618 50H44.6451C44.6451 50 50.2006 44.6611 50.2006 40.2778C50.2006 30.5555 37.7006 30.5555 37.7006 30.5555Z" fill="#4289C1"/>
<path id="Vector_2" d="M25.2006 43.0555C27.5018 43.0555 29.3673 41.19 29.3673 38.8888C29.3673 36.5876 27.5018 34.7222 25.2006 34.7222C22.8994 34.7222 21.0339 36.5876 21.0339 38.8888C21.0339 41.19 22.8994 43.0555 25.2006 43.0555Z" fill="#F9CA55"/>
<path id="Vector_3" d="M12.7006 13.8027V29.1666C12.7006 36.0708 18.2965 41.6666 25.2006 41.6666C32.1048 41.6666 37.7006 36.0708 37.7006 29.1666V14.2361L12.7006 13.8027Z" fill="#FFDC5D"/>
<path id="Vector_4" d="M15.2659 24.6042C15.2659 26.7987 14.1548 28.5778 12.7826 28.5778C11.4104 28.5778 10.2993 26.7987 10.2993 24.6042C10.2993 22.4098 11.4118 20.6306 12.7826 20.6306C14.1534 20.6306 15.2659 22.4098 15.2659 24.6042ZM40.102 24.6042C40.102 26.7987 38.9909 28.5778 37.6187 28.5778C36.2465 28.5778 35.1354 26.7987 35.1354 24.6042C35.1354 22.4098 36.2465 20.6306 37.6187 20.6306C38.9909 20.6306 40.102 22.4098 40.102 24.6042Z" fill="#FFDC5D"/>
<path id="Vector_5" d="M25.2006 6.69861C15.452 6.69861 11.1187 13.2042 11.1187 18.6264C11.1187 24.0472 12.9839 25.5514 13.2853 24.0472C14.3687 18.6264 17.6187 16.9625 17.6187 16.9625C24.1187 22.3847 23.0353 18.0472 23.0353 18.0472C29.5339 24.5528 26.2853 18.0472 26.2853 18.0472C28.452 20.2167 34.9506 20.2167 34.9506 20.2167C34.9506 20.2167 36.0339 21.8806 37.1159 24.0486C38.1992 26.2181 39.2825 24.0486 39.2825 18.6278C39.2825 13.2042 33.8659 6.69861 25.2006 6.69861Z" fill="#FFAC33"/>
<path id="Vector_6" d="M23.8117 47.2222L16.8673 45.8333L14.0895 44.4445H9.92282L8.53394 50H23.8117C25.2006 50 25.2006 48.6111 25.2006 48.6111C25.2006 47.8431 23.8117 47.2222 23.8117 47.2222ZM36.3117 44.4445L33.5339 45.8333L26.5895 47.2222C26.5895 47.2222 25.2006 47.8431 25.2006 48.6111C25.2006 48.6111 25.2006 50 26.5895 50H41.8673L40.4784 44.4445H36.3117Z" fill="white"/>
<path id="Vector_7" d="M30.7562 30.5556C30.3878 30.5556 30.0345 30.4093 29.7741 30.1488C29.5136 29.8883 29.3673 29.535 29.3673 29.1667V27.7778C29.3673 27.4094 29.5136 27.0562 29.7741 26.7957C30.0345 26.5352 30.3878 26.3889 30.7562 26.3889C31.1245 26.3889 31.4778 26.5352 31.7383 26.7957C31.9987 27.0562 32.1451 27.4094 32.1451 27.7778V29.1667C32.1451 29.535 31.9987 29.8883 31.7383 30.1488C31.4778 30.4093 31.1245 30.5556 30.7562 30.5556ZM19.6451 30.5556C19.2767 30.5556 18.9234 30.4093 18.663 30.1488C18.4025 29.8883 18.2562 29.535 18.2562 29.1667V27.7778C18.2562 27.4094 18.4025 27.0562 18.663 26.7957C18.9234 26.5352 19.2767 26.3889 19.6451 26.3889C20.0134 26.3889 20.3667 26.5352 20.6271 26.7957C20.8876 27.0562 21.0339 27.4094 21.0339 27.7778V29.1667C21.0339 29.535 20.8876 29.8883 20.6271 30.1488C20.3667 30.4093 20.0134 30.5556 19.6451 30.5556Z" fill="white"/>
<path id="Vector_8" d="M26.5895 36.8055H23.8118C23.6276 36.8055 23.4509 36.7324 23.3207 36.6021C23.1905 36.4719 23.1173 36.2952 23.1173 36.1111C23.1173 35.9269 23.1905 35.7503 23.3207 35.62C23.4509 35.4898 23.6276 35.4166 23.8118 35.4166H26.5895C26.7737 35.4166 26.9503 35.4898 27.0806 35.62C27.2108 35.7503 27.284 35.9269 27.284 36.1111C27.284 36.2952 27.2108 36.4719 27.0806 36.6021C26.9503 36.7324 26.7737 36.8055 26.5895 36.8055Z" fill="white"/>
<path id="Vector_9" d="M7.83814 11.1112C7.538 11.1115 7.24594 11.014 7.0062 10.8334L1.45064 6.66672C1.15596 6.44571 0.961139 6.11668 0.909045 5.75203C0.856952 5.38738 0.95185 5.01696 1.17286 4.72228C1.39388 4.42759 1.7229 4.23278 2.08756 4.18068C2.45221 4.12859 2.82262 4.22349 3.11731 4.4445L8.67286 8.61117C8.90616 8.78614 9.07847 9.03011 9.16535 9.30849C9.25223 9.58687 9.24928 9.88553 9.15693 10.1621C9.06457 10.4388 8.88749 10.6793 8.65078 10.8496C8.41408 11.02 8.12976 11.1115 7.83814 11.1112ZM12.0076 6.9445C11.7788 6.94476 11.5534 6.88848 11.3516 6.78065C11.1497 6.67283 10.9776 6.5168 10.8506 6.32645L8.07286 2.15978C7.86843 1.85331 7.79411 1.47817 7.86626 1.11691C7.93841 0.755638 8.15111 0.437827 8.45759 0.23339C8.76406 0.0289521 9.13919 -0.0453667 9.50046 0.0267827C9.86173 0.0989321 10.1795 0.31164 10.384 0.618112L13.1618 4.78478C13.3007 4.99395 13.3805 5.23687 13.3925 5.48772C13.4045 5.73858 13.3484 5.988 13.23 6.2095C13.1116 6.431 12.9355 6.6163 12.7202 6.74571C12.505 6.87512 12.2587 6.94382 12.0076 6.9445ZM42.5631 11.1112C42.2715 11.1115 41.9872 11.02 41.7505 10.8496C41.5138 10.6793 41.3367 10.4388 41.2444 10.1621C41.152 9.88553 41.1491 9.58687 41.2359 9.30849C41.3228 9.03011 41.4951 8.78614 41.7284 8.61117L47.284 4.4445C47.4295 4.32981 47.5964 4.24538 47.775 4.19619C47.9536 4.147 48.1403 4.13403 48.3239 4.15805C48.5076 4.18208 48.6847 4.24261 48.8446 4.33608C49.0046 4.42955 49.1442 4.55408 49.2553 4.70233C49.3664 4.85057 49.4467 5.01955 49.4915 5.1993C49.5363 5.37906 49.5447 5.56596 49.5162 5.749C49.4877 5.93205 49.4228 6.10754 49.3254 6.26515C49.2281 6.42276 49.1002 6.55929 48.9492 6.66672L43.3937 10.8334C43.1545 11.014 42.8629 11.1116 42.5631 11.1112ZM38.3937 6.9445C38.1424 6.94429 37.8958 6.87588 37.6803 6.74657C37.4648 6.61726 37.2884 6.43189 37.1699 6.21023C37.0515 5.98857 36.9954 5.73891 37.0076 5.48788C37.0199 5.23685 37.1 4.99385 37.2395 4.78478L40.0173 0.618112C40.1185 0.466362 40.2487 0.336037 40.4003 0.234576C40.5518 0.133116 40.7219 0.0625074 40.9008 0.0267827C41.0797 -0.00894208 41.2639 -0.00908365 41.4428 0.0263661C41.6217 0.0618158 41.7919 0.132162 41.9437 0.23339C42.0954 0.334617 42.2258 0.464742 42.3272 0.616336C42.4287 0.76793 42.4993 0.938024 42.535 1.11691C42.5707 1.29579 42.5709 1.47995 42.5354 1.65889C42.5 1.83783 42.4296 2.00803 42.3284 2.15978L39.5506 6.32645C39.4238 6.51698 39.2518 6.67314 39.0499 6.78099C38.848 6.88883 38.6226 6.94501 38.3937 6.9445Z" fill="white"/>
</g>
<defs>
<clipPath id="clip0_469_1352">
<rect width="50" height="50" fill="white" transform="translate(0.200623)"/>
</clipPath>
</defs>
</svg>
