<svg width="31" height="34" viewBox="0 0 31 34" fill="none" xmlns="http://www.w3.org/2000/svg">
<path id="Vector" d="M11.854 15.6046H13.354C13.804 15.6046 14.104 15.3046 14.104 14.8546V12.6046H26.104V14.8546C26.104 15.3046 26.404 15.6046 26.854 15.6046H28.354C28.804 15.6046 29.104 15.3046 29.104 14.8546V8.10455L27.004 1.65455C26.854 1.05455 26.254 0.604553 25.654 0.604553H14.704C14.104 0.604553 13.504 1.05455 13.354 1.65455L11.104 8.10455V14.8546C11.104 15.3046 11.404 15.6046 11.854 15.6046ZM14.554 2.10455H25.504L26.854 6.60455H13.204L14.554 2.10455ZM15.604 33.6046H12.604C12.604 32.4046 9.754 31.3546 7.504 30.4546C4.354 29.2546 0.604004 27.9046 0.604004 24.6046C0.604004 21.1546 4.054 20.2546 6.904 19.3546C9.454 18.7546 11.104 18.1546 11.104 17.1046H14.104C14.104 20.5546 10.654 21.4546 7.804 22.3546C5.254 22.9546 3.604 23.5546 3.604 24.6046C3.604 25.8046 6.454 26.8546 8.704 27.7546C11.854 28.9546 15.604 30.3046 15.604 33.6046ZM30.604 33.6046H27.604C27.604 32.4046 24.754 31.3546 22.504 30.4546C19.354 29.2546 15.604 27.9046 15.604 24.6046C15.604 21.1546 19.054 20.2546 21.904 19.3546C24.304 18.6046 26.104 18.1546 26.104 17.1046H29.104C29.104 20.5546 25.654 21.4546 22.804 22.3546C20.404 22.9546 18.604 23.5546 18.604 24.6046C18.604 25.8046 21.454 26.8546 23.704 27.7546C26.854 28.9546 30.604 30.3046 30.604 33.6046Z" fill="#333333"/>
</svg>
