<svg width="26" height="26" viewBox="0 0 26 26" fill="none" xmlns="http://www.w3.org/2000/svg">
<path id="Vector" d="M17.7795 3.07098C17.7795 1.69598 18.9045 0.570984 20.2795 0.570984C21.6545 0.570984 22.7795 1.69598 22.7795 3.07098C22.7795 4.44598 21.6545 5.57098 20.2795 5.57098C18.9045 5.57098 17.7795 4.44598 17.7795 3.07098ZM23.7545 7.54598C22.692 7.08348 21.517 6.82098 20.2795 6.82098C19.442 6.82098 18.642 6.94598 17.8795 7.17098C18.6045 7.85848 19.0295 8.82098 19.0295 9.85848V10.571H25.2795V9.85848C25.2795 8.84598 24.6795 7.94598 23.7545 7.54598ZM5.27954 5.57098C6.65454 5.57098 7.77954 4.44598 7.77954 3.07098C7.77954 1.69598 6.65454 0.570984 5.27954 0.570984C3.90454 0.570984 2.77954 1.69598 2.77954 3.07098C2.77954 4.44598 3.90454 5.57098 5.27954 5.57098ZM7.67954 7.17098C6.91704 6.94598 6.11704 6.82098 5.27954 6.82098C4.04204 6.82098 2.86704 7.08348 1.80454 7.54598C0.879541 7.94598 0.279541 8.84598 0.279541 9.85848V10.571H6.52954V9.85848C6.52954 8.82098 6.95454 7.85848 7.67954 7.17098ZM10.2795 3.07098C10.2795 1.69598 11.4045 0.570984 12.7795 0.570984C14.1545 0.570984 15.2795 1.69598 15.2795 3.07098C15.2795 4.44598 14.1545 5.57098 12.7795 5.57098C11.4045 5.57098 10.2795 4.44598 10.2795 3.07098ZM17.7795 10.571H7.77954V9.85848C7.77954 8.84598 8.37954 7.94598 9.30454 7.54598C10.367 7.08348 11.542 6.82098 12.7795 6.82098C14.017 6.82098 15.192 7.08348 16.2545 7.54598C17.1795 7.94598 17.7795 8.84598 17.7795 9.85848V10.571ZM16.5295 18.071C16.5295 16.696 17.6545 15.571 19.0295 15.571C20.4045 15.571 21.5295 16.696 21.5295 18.071C21.5295 19.446 20.4045 20.571 19.0295 20.571C17.6545 20.571 16.5295 19.446 16.5295 18.071ZM24.0295 25.571H14.0295V24.8585C14.0295 23.846 14.6295 22.946 15.5545 22.546C16.617 22.0835 17.792 21.821 19.0295 21.821C20.267 21.821 21.442 22.0835 22.5045 22.546C23.4295 22.946 24.0295 23.846 24.0295 24.8585V25.571ZM4.02954 18.071C4.02954 16.696 5.15454 15.571 6.52954 15.571C7.90454 15.571 9.02954 16.696 9.02954 18.071C9.02954 19.446 7.90454 20.571 6.52954 20.571C5.15454 20.571 4.02954 19.446 4.02954 18.071ZM11.5295 25.571H1.52954V24.8585C1.52954 23.846 2.12954 22.946 3.05454 22.546C4.11704 22.0835 5.29204 21.821 6.52954 21.821C7.76704 21.821 8.94204 22.0835 10.0045 22.546C10.9295 22.946 11.5295 23.846 11.5295 24.8585V25.571ZM13.717 14.321V11.821H11.842V14.321H9.02954L12.7795 18.071L16.5295 14.321H13.717Z" fill="#333333"/>
</svg>
