<svg width="17" height="17" viewBox="0 0 17 17" fill="none" xmlns="http://www.w3.org/2000/svg">
<path id="Vector" d="M8.89827 16.3301C10.5624 16.3298 12.1791 15.7762 13.494 14.7562C14.8089 13.7363 15.7472 12.308 16.1613 10.6962C16.5753 9.08448 16.4416 7.38078 15.7811 5.85337C15.1207 4.32596 13.971 3.06158 12.513 2.25929C11.0551 1.457 9.37178 1.16237 7.72803 1.42177C6.08428 1.68118 4.57348 2.4799 3.43348 3.69217C2.29348 4.90445 1.58904 6.46144 1.43104 8.11802C1.27305 9.7746 1.67048 11.4367 2.56077 12.8426L1.39827 16.3301L4.88577 15.1676C6.08538 15.9291 7.4774 16.3324 8.89827 16.3301Z" stroke="#545454" strokeLinecap="round" strokeLinejoin="round"/>
</svg>
