<svg width="23" height="30" viewBox="0 0 23 30" fill="none" xmlns="http://www.w3.org/2000/svg">
<g id="Chennai">
<path id="Vector" d="M8.71262 2.23457C7.23465 3.5943 5.69755 5.30875 5.34284 6.01818C4.57429 7.49616 4.45605 10.3339 5.16548 10.3339C5.40196 10.3339 5.57931 11.6345 5.57931 13.2898C5.57931 14.886 5.40196 16.2458 5.16548 16.2458C4.86989 16.2458 4.69253 16.6596 4.69253 17.1326C4.69253 17.6055 4.92901 18.0193 5.2246 18.0193C5.5202 18.0193 5.93403 18.9652 6.11139 20.0885C6.40698 21.6847 6.22962 22.4533 5.28372 23.4583C4.63341 24.1677 4.10134 25.4683 4.10134 26.4142C4.10134 27.8331 3.86486 28.0696 2.32777 28.0696C1.38187 28.0696 0.554199 28.306 0.554199 28.6608C0.554199 29.0155 4.57429 29.252 11.4912 29.252C18.4081 29.252 22.4282 29.0155 22.4282 28.6608C22.4282 28.306 21.6006 28.0696 20.5955 28.0696C19.1767 28.0696 18.822 27.8331 19.1176 27.1237C19.5314 26.1186 18.822 24.5224 17.344 23.0445C16.339 22.0394 16.3981 21.6256 18.4673 17.7237C18.8811 16.9552 18.822 16.5414 18.349 16.364C17.5214 16.0684 17.4622 10.5112 18.349 10.2156C19.5314 9.8018 17.8169 5.36787 15.8069 3.47606C11.3139 -0.603146 11.7868 -0.544027 8.71262 2.23457ZM13.7969 4.42197C14.3289 5.72259 14.7428 7.49616 14.7428 8.26471C14.7428 9.68356 14.5654 9.74268 11.4912 9.74268H8.18055L8.59438 7.49616C9.59941 1.87985 12.1415 0.342758 13.7969 4.42197ZM16.9302 6.60937C17.9352 9.09237 17.9352 9.15149 16.5163 9.15149C15.6295 9.15149 15.334 8.73766 15.334 7.73263C15.334 6.90497 15.0384 5.54523 14.7428 4.65845C14.1516 3.18047 14.2107 3.12135 15.0975 3.8899C15.6887 4.36285 16.4572 5.54523 16.9302 6.60937ZM8.06231 6.49113C7.47112 9.09237 5.87491 10.2156 5.87491 8.02823C5.87491 7.14144 7.94408 3.83078 8.47615 3.83078C8.59438 3.83078 8.41703 5.01316 8.06231 6.49113ZM8.47615 11.2798C9.12646 12.9351 8.88998 16.2458 8.12143 16.2458C7.58936 16.2458 7.35289 15.2407 7.35289 13.2898C7.35289 10.3339 7.82584 9.5062 8.47615 11.2798ZM13.6786 13.2898C13.4421 16.2458 12.378 17.4873 12.378 14.7678C12.378 13.8219 12.0233 13.2898 11.4912 13.2898C10.9591 13.2898 10.6044 13.8219 10.6044 14.7678C10.6044 17.4873 9.54029 16.2458 9.30381 13.2898L9.12646 10.3339H11.4912H13.856L13.6786 13.2898ZM15.9251 13.2898C15.9251 14.886 15.6887 16.2458 15.334 16.2458C14.6836 16.2458 14.5063 11.3389 15.1566 10.7477C15.866 10.0383 15.9251 10.2748 15.9251 13.2898ZM16.5163 18.6105C16.5163 18.9652 14.5654 19.2017 11.7868 19.2017C9.00822 19.2017 7.05729 18.9652 7.05729 18.6105C7.05729 18.2558 9.00822 18.0193 11.7868 18.0193C14.5654 18.0193 16.5163 18.2558 16.5163 18.6105ZM9.30381 21.7438C9.42205 22.335 9.12646 22.7489 8.59438 22.7489C8.00319 22.7489 7.64848 22.2168 7.64848 21.5074C7.64848 20.0885 9.00822 20.2659 9.30381 21.7438ZM12.9692 21.5665C12.9692 22.4533 12.5554 22.7489 11.4912 22.7489C10.4271 22.7489 10.0132 22.4533 10.0132 21.5665C10.0132 20.6797 10.4271 20.3841 11.4912 20.3841C12.5554 20.3841 12.9692 20.6797 12.9692 21.5665ZM15.9251 21.5665C15.9251 22.2168 15.5113 22.7489 15.0384 22.7489C14.5654 22.7489 14.1516 22.2168 14.1516 21.5665C14.1516 20.9162 14.5654 20.3841 15.0384 20.3841C15.5113 20.3841 15.9251 20.9162 15.9251 21.5665ZM13.4421 24.3451C12.5554 24.4633 10.9591 24.4633 9.895 24.3451C8.83086 24.2268 9.54029 24.1086 11.4912 24.1086C13.4421 24.1086 14.3289 24.2268 13.4421 24.3451ZM7.64848 25.4092C8.53527 26.4734 8.00319 28.0696 6.87993 28.0696C6.40698 28.0696 5.69755 27.6557 5.28372 27.1828C4.69253 26.4734 4.69253 26.1186 5.28372 25.4092C6.22962 24.286 6.70258 24.286 7.64848 25.4092ZM17.6987 25.4092C18.5855 26.4734 18.0534 28.0696 16.9302 28.0696C16.4572 28.0696 15.7478 27.6557 15.334 27.1828C14.7428 26.4734 14.7428 26.1186 15.334 25.4092C16.2799 24.286 16.7528 24.286 17.6987 25.4092ZM14.1516 26.8872C14.1516 27.8922 13.7377 28.0696 11.5503 28.0696C9.24469 28.0696 8.9491 27.9513 9.24469 26.8872C9.48117 25.9413 10.0724 25.7048 11.8459 25.7048C13.7377 25.7048 14.1516 25.8822 14.1516 26.8872Z" fill="#0B9DBC"/>
<path id="Vector_2" d="M10.9 6.78682C10.3089 7.79184 11.6095 8.97422 12.378 8.20568C12.851 7.73272 12.7327 7.31889 12.1415 6.84594C11.5504 6.31387 11.1956 6.31387 10.9 6.78682Z" fill="#0B9DBC"/>
<path id="Vector_3" d="M5.52029 25.764C4.9291 26.769 6.28884 27.8923 7.11651 27.0646C7.82593 26.3552 7.35298 25.1137 6.4662 25.1137C6.1706 25.1137 5.75677 25.4093 5.52029 25.764Z" fill="#0B9DBC"/>
<path id="Vector_4" d="M15.5703 25.764C14.9792 26.769 16.3389 27.8923 17.1666 27.0646C17.876 26.3552 17.403 25.1137 16.5162 25.1137C16.2207 25.1137 15.8068 25.4093 15.5703 25.764Z" fill="#0B9DBC"/>
</g>
</svg>
