<svg width="17" height="16" viewBox="0 0 17 16" fill="none" xmlns="http://www.w3.org/2000/svg">
<path id="Vector" d="M6.14932 1.84698L1.35903 6.67276C1.10502 6.92873 0.962326 7.27584 0.962326 7.63778C0.962326 7.99972 1.10502 8.34683 1.35903 8.6028L5.19072 12.4636C5.31656 12.5905 5.46599 12.6911 5.63047 12.7598C5.79496 12.8285 5.97127 12.8639 6.14932 12.8639C6.32738 12.8639 6.50369 12.8285 6.66818 12.7598C6.83266 12.6911 6.98209 12.5905 7.10793 12.4636L11.8975 7.63778L6.14932 1.84698ZM6.14932 1.84698L5.1914 0.881958M13.93 9.24274C13.93 9.24274 15.9623 11.2854 15.9623 12.578C15.9623 13.7075 15.0511 14.6254 13.93 14.6254C12.8081 14.6254 11.9057 13.7075 11.8976 12.578C11.9044 11.2847 13.93 9.24274 13.93 9.24274Z" stroke="#0B9DBC" stroke-miterlimit="1.5" stroke-linecap="round" stroke-linejoin="round"/>
</svg>
