<svg width="21" height="15" viewBox="0 0 21 15" fill="none" xmlns="http://www.w3.org/2000/svg">
<path id="Vector" fillRule="evenodd" clip-rule="evenodd" d="M0.604004 3.31891C0.604004 2.52326 0.920075 1.7602 1.48268 1.19759C2.04529 0.634979 2.80835 0.318909 3.604 0.318909H17.604C18.3997 0.318909 19.1627 0.634979 19.7253 1.19759C20.2879 1.7602 20.604 2.52326 20.604 3.31891V11.3189C20.604 12.1146 20.2879 12.8776 19.7253 13.4402C19.1627 14.0028 18.3997 14.3189 17.604 14.3189H3.604C2.80835 14.3189 2.04529 14.0028 1.48268 13.4402C0.920075 12.8776 0.604004 12.1146 0.604004 11.3189V3.31891ZM3.604 2.31891H17.604C17.8692 2.31891 18.1236 2.42427 18.3111 2.6118C18.4986 2.79934 18.604 3.05369 18.604 3.31891V6.31891H2.604V3.31891C2.604 3.05369 2.70936 2.79934 2.8969 2.6118C3.08443 2.42427 3.33879 2.31891 3.604 2.31891ZM2.604 8.31891V11.3189C2.604 11.5841 2.70936 11.8385 2.8969 12.026C3.08443 12.2136 3.33879 12.3189 3.604 12.3189H6.604V8.31891H2.604ZM8.604 12.3189H17.604C17.8692 12.3189 18.1236 12.2136 18.3111 12.026C18.4986 11.8385 18.604 11.5841 18.604 11.3189V8.31891H8.604V12.3189Z" fill="#333333"/>
</svg>
