<svg width="66" height="66" viewBox="0 0 66 66" fill="none" xmlns="http://www.w3.org/2000/svg">
<path id="Vector" d="M64.4217 1.34097C64.2061 1.12514 63.9501 0.953922 63.6683 0.837103C63.3865 0.720284 63.0844 0.660156 62.7794 0.660156C62.4743 0.660156 62.1723 0.720284 61.8905 0.837103C61.6087 0.953922 61.3526 1.12514 61.1371 1.34097L45.9324 16.5485L44.3743 14.9874C42.631 13.2492 40.2696 12.2731 37.8078 12.2731C35.346 12.2731 32.9847 13.2492 31.2414 14.9874L24.4777 21.7541L22.638 19.9115C22.2024 19.4759 21.6117 19.2312 20.9957 19.2312C20.3797 19.2312 19.7889 19.4759 19.3534 19.9115C18.9178 20.3471 18.6731 20.9378 18.6731 21.5538C18.6731 22.1698 18.9178 22.7606 19.3534 23.1962L21.1959 25.0358L14.4293 31.7996C13.5668 32.6618 12.8827 33.6855 12.4159 34.8122C11.9492 35.9388 11.7089 37.1464 11.7089 38.366C11.7089 39.5855 11.9492 40.7931 12.4159 41.9198C12.8827 43.0465 13.5668 44.0702 14.4293 44.9324L15.9903 46.4906L0.782815 61.6952C0.567141 61.9109 0.396059 62.1669 0.279337 62.4487C0.162615 62.7305 0.102539 63.0325 0.102539 63.3375C0.102539 63.6426 0.162615 63.9446 0.279337 64.2264C0.396059 64.5082 0.567141 64.7642 0.782815 64.9799C1.21839 65.4155 1.80915 65.6602 2.42515 65.6602C2.73016 65.6602 3.03218 65.6001 3.31397 65.4834C3.59576 65.3666 3.8518 65.1955 4.06748 64.9799L19.2721 49.7723L20.8303 51.3334C21.6925 52.1959 22.7162 52.88 23.8429 53.3468C24.9696 53.8135 26.1772 54.0538 27.3967 54.0538C28.6163 54.0538 29.8238 53.8135 30.9505 53.3468C32.0772 52.88 33.1009 52.1959 33.9631 51.3334L40.7269 44.5668L42.5665 46.4093C42.7822 46.625 43.0382 46.7961 43.32 46.9128C43.6018 47.0295 43.9038 47.0896 44.2089 47.0896C44.5139 47.0896 44.8159 47.0295 45.0977 46.9128C45.3795 46.7961 45.6355 46.625 45.8512 46.4093C46.0669 46.1937 46.2379 45.9376 46.3547 45.6558C46.4714 45.374 46.5315 45.072 46.5315 44.767C46.5315 44.462 46.4714 44.16 46.3547 43.8782C46.2379 43.5964 46.0669 43.3403 45.8512 43.1247L44.0086 41.285L50.7753 34.5213C51.6377 33.6591 52.3219 32.6354 52.7886 31.5087C53.2554 30.382 53.4956 29.1744 53.4956 27.9549C53.4956 26.7353 53.2554 25.5277 52.7886 24.4011C52.3219 23.2744 51.6377 22.2507 50.7753 21.3884L49.2142 19.8303L64.4217 4.62563C64.6376 4.41004 64.8088 4.15403 64.9256 3.87223C65.0424 3.59042 65.1025 3.28836 65.1025 2.9833C65.1025 2.67824 65.0424 2.37618 64.9256 2.09437C64.8088 1.81257 64.6376 1.55656 64.4217 1.34097ZM30.6785 48.0575C29.8079 48.9275 28.6275 49.4162 27.3967 49.4162C26.1659 49.4162 24.9855 48.9275 24.115 48.0575L17.7139 41.6477C16.8439 40.7772 16.3552 39.5968 16.3552 38.366C16.3552 37.1352 16.8439 35.9548 17.7139 35.0842L24.4777 28.3176L37.4451 41.285L30.6785 48.0575ZM47.4906 31.2453L40.7269 38.0033L27.7594 25.0358L34.5261 18.2721C35.3966 17.4021 36.577 16.9134 37.8078 16.9134C39.0386 16.9134 40.219 17.4021 41.0896 18.2721L47.4906 24.6557C47.924 25.0871 48.2679 25.5998 48.5026 26.1645C48.7373 26.7292 48.8581 27.3347 48.8581 27.9462C48.8581 28.5577 48.7373 29.1631 48.5026 29.7278C48.2679 30.2925 47.924 30.8052 47.4906 31.2366V31.2453ZM21.1147 6.03873C20.92 5.45463 20.9653 4.81711 21.2406 4.26642C21.516 3.71572 21.9988 3.29697 22.5829 3.10227C23.167 2.90757 23.8045 2.95287 24.3552 3.22822C24.9059 3.50357 25.3246 3.9864 25.5194 4.5705L27.8407 11.5345C27.9371 11.8237 27.9756 12.129 27.954 12.4331C27.9323 12.7372 27.8511 13.0341 27.7147 13.3068C27.5784 13.5794 27.3897 13.8226 27.1594 14.0223C26.929 14.2221 26.6617 14.3745 26.3724 14.4709C25.7883 14.6656 25.1508 14.6203 24.6001 14.345C24.3274 14.2086 24.0843 14.0199 23.8845 13.7896C23.6848 13.5593 23.5324 13.2919 23.436 13.0027L21.1147 6.03873ZM2.54411 23.141C2.6405 22.8518 2.79292 22.5844 2.99266 22.3541C3.1924 22.1238 3.43555 21.935 3.70824 21.7987C3.98092 21.6624 4.27779 21.5811 4.58189 21.5595C4.88599 21.5379 5.19136 21.5764 5.48058 21.6728L12.4445 23.9941C12.7337 24.0905 13.0011 24.243 13.2315 24.4427C13.4618 24.6424 13.6505 24.8856 13.7868 25.1583C13.9231 25.431 14.0044 25.7278 14.0261 26.0319C14.0477 26.336 14.0092 26.6414 13.9128 26.9306C13.8164 27.2198 13.6639 27.4872 13.4642 27.7175C13.2644 27.9478 13.0213 28.1365 12.7486 28.2729C12.4759 28.4092 12.1791 28.4905 11.875 28.5121C11.5709 28.5337 11.2655 28.4952 10.9763 28.3988L4.01235 26.0775C3.72312 25.9811 3.45571 25.8287 3.22539 25.629C2.99507 25.4292 2.80635 25.1861 2.67001 24.9134C2.53367 24.6407 2.45238 24.3438 2.43077 24.0397C2.40917 23.7356 2.44769 23.4303 2.54411 23.141ZM62.6604 43.1798C62.564 43.469 62.4116 43.7364 62.2119 43.9668C62.0121 44.1971 61.769 44.3858 61.4963 44.5221C61.2236 44.6585 60.9268 44.7398 60.6227 44.7614C60.3186 44.783 60.0132 44.7445 59.724 44.648L52.76 42.3267C52.1759 42.132 51.6931 41.7133 51.4177 41.1626C51.1424 40.6119 51.0971 39.9744 51.2918 39.3903C51.4865 38.8062 51.9052 38.3233 52.4559 38.048C53.0066 37.7726 53.6441 37.7273 54.2282 37.922L61.1922 40.2433C61.4814 40.3397 61.7488 40.4921 61.9792 40.6919C62.2095 40.8916 62.3982 41.1348 62.5345 41.4075C62.6709 41.6801 62.7522 41.977 62.7738 42.2811C62.7954 42.5852 62.7569 42.8906 62.6604 43.1798ZM44.0899 60.2821C44.2846 60.8662 44.2393 61.5037 43.9639 62.0544C43.6886 62.6051 43.2058 63.0239 42.6217 63.2186C42.0376 63.4133 41.4 63.368 40.8493 63.0926C40.2986 62.8173 39.8799 62.3344 39.6852 61.7503L37.3639 54.7864C37.1692 54.2023 37.2145 53.5648 37.4898 53.0141C37.7652 52.4634 38.248 52.0446 38.8321 51.8499C39.4162 51.6552 40.0537 51.7005 40.6044 51.9759C41.1551 52.2512 41.5739 52.7341 41.7686 53.3182L44.0899 60.2821Z" fill="#333333"/>
</svg>
