                        <svg xmlns="http://www.w3.org/2000/svg" width="14" height="15" viewBox="0 0 12 13" fill="none">
                            <path d="M2.91198 2.06073L5.99998 5.14873L9.07198 2.07673C9.13984 2.0045 9.22158 1.94672 9.31231 1.90686C9.40304 1.86699 9.50089 1.84586 9.59998 1.84473C9.81216 1.84473 10.0156 1.92901 10.1657 2.07904C10.3157 2.22907 10.4 2.43255 10.4 2.64473C10.4018 2.74281 10.3837 2.84024 10.3465 2.93103C10.3094 3.02183 10.2541 3.10407 10.184 3.17273L7.07198 6.24473L10.184 9.35673C10.3158 9.48572 10.3932 9.6604 10.4 9.84473C10.4 10.0569 10.3157 10.2604 10.1657 10.4104C10.0156 10.5604 9.81216 10.6447 9.59998 10.6447C9.49803 10.649 9.39631 10.6319 9.30128 10.5948C9.20625 10.5576 9.11999 10.501 9.04798 10.4287L5.99998 7.34073L2.91998 10.4207C2.85239 10.4905 2.77164 10.5463 2.68239 10.5847C2.59314 10.6232 2.49716 10.6436 2.39998 10.6447C2.18781 10.6447 1.98433 10.5604 1.8343 10.4104C1.68427 10.2604 1.59998 10.0569 1.59998 9.84473C1.59812 9.74664 1.61632 9.64922 1.65346 9.55842C1.6906 9.46763 1.74591 9.38538 1.81598 9.31673L4.92798 6.24473L1.81598 3.13273C1.68413 3.00373 1.60682 2.82906 1.59998 2.64473C1.59998 2.43255 1.68427 2.22907 1.8343 2.07904C1.98433 1.92901 2.18781 1.84473 2.39998 1.84473C2.59198 1.84713 2.77598 1.92473 2.91198 2.06073Z" fill="black" />
                        </svg>