<svg width="27" height="27" viewBox="0 0 27 27" fill="none" xmlns="http://www.w3.org/2000/svg">
<path id="Delhi" d="M11.5492 0.609737C10.3811 0.943466 9.43557 1.38844 9.43557 1.66655C9.43557 1.88903 8.54563 2.11152 7.48882 2.11152C5.70893 2.11152 5.54207 2.22276 5.54207 3.78016C5.54207 4.67011 5.31958 5.44881 5.04147 5.44881C4.76337 5.44881 4.37402 6.17189 4.15153 7.11745C3.92904 8.06302 3.42845 8.7861 2.92786 8.7861C2.14916 8.7861 2.20478 8.95296 2.98348 10.1766C3.70656 11.2334 3.87342 13.0133 3.87342 18.5199V25.4726H2.20478C1.31483 25.4726 0.536133 25.695 0.536133 26.0288C0.536133 26.8075 25.9552 26.8075 26.4001 26.0288C26.6226 25.695 26.0108 25.4726 25.0652 25.4726H23.341V18.5199C23.341 13.0133 23.5078 11.2334 24.2309 10.1766C25.0096 8.95296 25.0652 8.7861 24.2865 8.7861C23.7859 8.7861 23.2853 8.06302 23.0628 7.11745C22.8404 6.17189 22.451 5.44881 22.1729 5.44881C21.8948 5.44881 21.6723 4.67011 21.6723 3.78016C21.6723 2.27838 21.5054 2.11152 20.0593 2.11152C19.1137 2.11152 18.2794 1.88903 18.1125 1.61093C17.9457 1.33282 17.2226 0.999088 16.5551 0.832224C15.832 0.720982 14.8865 0.442873 14.4415 0.331631C13.9965 0.164766 12.6616 0.276009 11.5492 0.609737ZM14.9977 1.5553C15.6096 1.94465 15.3315 2.11152 13.8853 2.11152C12.4391 2.11152 12.161 1.94465 12.7729 1.5553C13.2178 1.27719 13.7184 0.999088 13.8853 0.999088C14.0522 0.999088 14.5528 1.27719 14.9977 1.5553ZM10.548 4.00265C10.548 4.44762 10.8817 4.94822 11.2711 5.05946C11.6048 5.22632 10.7705 5.39319 9.32433 5.39319C6.98823 5.44881 6.6545 5.28194 6.6545 4.33638C6.6545 3.44643 7.04385 3.22395 8.60125 3.22395C9.93617 3.22395 10.548 3.50206 10.548 4.00265ZM20.5599 4.33638C20.5599 5.33757 20.2261 5.44881 17.6676 5.39319C16.0545 5.33757 15.1646 5.22632 15.7208 5.05946C16.3326 4.89259 16.6107 4.44762 16.4439 4.00265C16.2214 3.39081 16.6664 3.22395 18.335 3.22395C20.1705 3.22395 20.5599 3.39081 20.5599 4.33638ZM17.9457 6.95059C15.7208 7.06183 11.9942 7.06183 9.60244 6.95059C7.21071 6.89497 9.04622 6.78373 13.6072 6.78373C18.2238 6.78373 20.1705 6.89497 17.9457 6.95059ZM18.2238 8.61923C15.8877 8.73048 11.8829 8.73048 9.32433 8.61923C6.76574 8.56361 8.71249 8.45237 13.6072 8.45237C18.5019 8.45237 20.5599 8.56361 18.2238 8.61923ZM22.2285 12.1234C22.2285 13.3471 22.006 14.3483 21.7279 14.3483C21.5054 14.3483 21.3942 13.7364 21.5611 12.9577C21.7279 11.7897 21.5611 11.5672 20.5599 11.5672C19.5587 11.5672 19.3918 11.7897 19.5587 12.9577C19.7256 13.7364 19.6699 14.3483 19.3918 14.3483C19.1137 14.3483 18.8356 16.9068 18.7244 20.0216C18.5575 25.5838 18.5575 25.5282 18.4463 18.353L18.335 11.011H13.6072H8.87936V12.6796C8.87936 13.8477 8.60125 14.3483 7.98942 14.3483C7.26634 14.3483 7.21071 14.1814 7.76693 13.5139C8.54563 12.624 8.04504 11.5672 6.87698 11.5672C5.76455 11.5672 5.20834 13.2358 6.15391 13.8477C6.76574 14.237 6.76574 14.3483 5.98704 14.3483C5.20834 14.3483 4.98585 13.8477 4.98585 12.1234V9.89853H13.6072H22.2285V12.1234ZM17.1113 18.9092C17.0001 25.0832 17.0001 25.2501 16.8332 20.8003C16.6107 15.3494 16.1658 14.3483 13.9409 14.3483C11.2155 14.3483 10.8261 15.0713 10.4924 20.5779L10.2143 25.7507L10.103 18.9092L9.99179 12.1234H13.6072H17.2226L17.1113 18.9092ZM7.76693 16.295C7.76693 17.1849 7.4332 17.6855 6.93261 17.6855C6.43201 17.6855 6.09828 17.1849 6.09828 16.295C6.09828 15.4051 6.43201 14.9045 6.93261 14.9045C7.4332 14.9045 7.76693 15.4051 7.76693 16.295ZM15.4427 15.5719C15.8877 16.0169 16.1102 18.0749 16.1102 21.1341V26.0288H13.6072H11.1042V21.1341C11.1042 15.9613 11.5492 14.9045 13.6072 14.9045C14.2746 14.9045 15.0533 15.1826 15.4427 15.5719ZM21.1161 16.295C21.1161 17.1849 20.7824 17.6855 20.2818 17.6855C19.7812 17.6855 19.4474 17.1849 19.4474 16.295C19.4474 15.4051 19.7812 14.9045 20.2818 14.9045C20.7824 14.9045 21.1161 15.4051 21.1161 16.295ZM7.76693 20.4666C7.76693 21.579 7.48882 22.1353 6.93261 22.1353C6.37639 22.1353 6.09828 21.579 6.09828 20.4666C6.09828 19.3542 6.37639 18.798 6.93261 18.798C7.48882 18.798 7.76693 19.3542 7.76693 20.4666ZM21.1161 20.4666C21.1161 21.579 20.838 22.1353 20.2818 22.1353C19.7256 22.1353 19.4474 21.579 19.4474 20.4666C19.4474 19.3542 19.7256 18.798 20.2818 18.798C20.838 18.798 21.1161 19.3542 21.1161 20.4666ZM7.76693 24.3601C7.76693 24.972 7.37758 25.4726 6.93261 25.4726C6.48763 25.4726 6.09828 24.972 6.09828 24.3601C6.09828 23.7483 6.48763 23.2477 6.93261 23.2477C7.37758 23.2477 7.76693 23.7483 7.76693 24.3601ZM21.1161 24.3601C21.1161 24.972 20.7267 25.4726 20.2818 25.4726C19.8368 25.4726 19.4474 24.972 19.4474 24.3601C19.4474 23.7483 19.8368 23.2477 20.2818 23.2477C20.7267 23.2477 21.1161 23.7483 21.1161 24.3601Z" fill="#0B9DBC"/>
</svg>
