<svg width="20" height="21" viewBox="0 0 20 21" fill="none" xmlns="http://www.w3.org/2000/svg">
<g id="ep:edit">
<path id="Vector" d="M16.25 10.5194C16.25 10.3536 16.3158 10.1947 16.4331 10.0775C16.5503 9.96026 16.7092 9.89441 16.875 9.89441C17.0408 9.89441 17.1997 9.96026 17.3169 10.0775C17.4342 10.1947 17.5 10.3536 17.5 10.5194V17.3944C17.5 17.5602 17.4342 17.7191 17.3169 17.8364C17.1997 17.9536 17.0408 18.0194 16.875 18.0194H3.125C2.95924 18.0194 2.80027 17.9536 2.68306 17.8364C2.56585 17.7191 2.5 17.5602 2.5 17.3944V3.64441C2.5 3.47865 2.56585 3.31968 2.68306 3.20247C2.80027 3.08526 2.95924 3.01941 3.125 3.01941H10C10.1658 3.01941 10.3247 3.08526 10.4419 3.20247C10.5592 3.31968 10.625 3.47865 10.625 3.64441C10.625 3.81017 10.5592 3.96914 10.4419 4.08635C10.3247 4.20356 10.1658 4.26941 10 4.26941H3.75V16.7694H16.25V10.5194Z" fill="#0B9DBC"/>
<path id="Vector_2" d="M9.17873 11.3444L10.21 11.1969L16.545 4.86317C16.6047 4.80551 16.6523 4.73655 16.685 4.66029C16.7178 4.58404 16.735 4.50203 16.7358 4.41904C16.7365 4.33606 16.7207 4.25376 16.6892 4.17695C16.6578 4.10013 16.6114 4.03035 16.5527 3.97167C16.494 3.91299 16.4243 3.86658 16.3475 3.83515C16.2706 3.80373 16.1883 3.78791 16.1054 3.78864C16.0224 3.78936 15.9404 3.8066 15.8641 3.83935C15.7878 3.87211 15.7189 3.91972 15.6612 3.97942L9.32498 10.3132L9.17748 11.3444H9.17873ZM17.4287 3.09442C17.603 3.26854 17.7412 3.47529 17.8355 3.70286C17.9298 3.93042 17.9783 4.17434 17.9783 4.42067C17.9783 4.667 17.9298 4.91091 17.8355 5.13848C17.7412 5.36604 17.603 5.57279 17.4287 5.74692L10.9475 12.2282C10.8519 12.3241 10.7278 12.3864 10.5937 12.4057L8.53123 12.7007C8.43511 12.7145 8.3371 12.7057 8.24496 12.675C8.15283 12.6443 8.06911 12.5926 8.00044 12.524C7.93178 12.4553 7.88006 12.3716 7.84938 12.2794C7.81871 12.1873 7.80993 12.0893 7.82373 11.9932L8.11873 9.93067C8.13767 9.79679 8.19951 9.67266 8.29498 9.57692L14.7775 3.09567C15.1291 2.74416 15.6059 2.54669 16.1031 2.54669C16.6003 2.54669 17.0771 2.74416 17.4287 3.09567V3.09442Z" fill="#0B9DBC"/>
</g>
</svg>
