<svg width="12" height="15" viewBox="0 0 12 15" fill="none" xmlns="http://www.w3.org/2000/svg">
<g id="Group">
<path id="Vector" d="M9.95 1.13125C9.825 0.7625 9.475 0.5 9.0625 0.5H2.1875C1.775 0.5 1.43125 0.7625 1.3 1.13125L0 4.875V9.875C0 10.2188 0.28125 10.5 0.625 10.5H1.25C1.59375 10.5 1.875 10.2188 1.875 9.875V9.25H9.375V9.875C9.375 10.2188 9.65625 10.5 10 10.5H10.625C10.9688 10.5 11.25 10.2188 11.25 9.875V4.875L9.95 1.13125ZM2.1875 7.375C1.66875 7.375 1.25 6.95625 1.25 6.4375C1.25 5.91875 1.66875 5.5 2.1875 5.5C2.70625 5.5 3.125 5.91875 3.125 6.4375C3.125 6.95625 2.70625 7.375 2.1875 7.375ZM9.0625 7.375C8.54375 7.375 8.125 6.95625 8.125 6.4375C8.125 5.91875 8.54375 5.5 9.0625 5.5C9.58125 5.5 10 5.91875 10 6.4375C10 6.95625 9.58125 7.375 9.0625 7.375ZM1.25 4.25L2.1875 1.4375H9.0625L10 4.25H1.25Z" fill="#0B9DBC"/>
<path id="Vector_2" d="M2.5 12.375H5V11.125L8.75 13H6.25V14.25L2.5 12.375Z" fill="#0B9DBC"/>
</g>
</svg>
