<svg width="12" height="13" viewBox="0 0 12 13" fill="none" xmlns="http://www.w3.org/2000/svg">
<g id="Group">
<path id="Vector" d="M10 0.860352H1.25C0.5625 0.860352 0 1.42285 0 2.11035V10.8604C0 11.5479 0.5625 12.1104 1.25 12.1104H10C10.6875 12.1104 11.25 11.5479 11.25 10.8604V2.11035C11.25 1.42285 10.6875 0.860352 10 0.860352ZM6.26875 3.39785L6.93125 2.73535L7.8125 3.6166L8.69375 2.73535L9.35625 3.39785L8.475 4.2791L9.35625 5.16035L8.69375 5.82285L7.8125 4.94785L6.93125 5.8291L6.26875 5.1666L7.15 4.28535L6.26875 3.39785ZM2.03125 3.81035H5.15625V4.74785H2.03125V3.81035ZM5.3125 8.98535H4.0625V10.2354H3.125V8.98535H1.875V8.04785H3.125V6.79785H4.0625V8.04785H5.3125V8.98535ZM9.375 9.7666H6.25V8.8291H9.375V9.7666ZM9.375 8.2041H6.25V7.2666H9.375V8.2041Z" fill="#0B9DBC"/>
</g>
</svg>
