<svg width="30" height="22" viewBox="0 0 30 22" fill="none" xmlns="http://www.w3.org/2000/svg">
<g id="Vector">
<mask id="path-1-inside-1_766_698" fill="white">
<path d="M29.5161 8.54193C29.3878 8.54193 29.2647 8.59064 29.174 8.67733C29.0832 8.76403 29.0323 8.88162 29.0323 9.00423V12.2403H26.129V9.92882C26.129 9.56099 25.9761 9.20823 25.7039 8.94814C25.4316 8.68805 25.0624 8.54193 24.6774 8.54193H23.1423C23.0144 8.54172 22.8917 8.4931 22.8012 8.40671L18.5286 4.32462C18.3941 4.19565 18.2343 4.0934 18.0582 4.02377C17.8821 3.95415 17.6934 3.91852 17.5028 3.91896H14.5161V1.14518H17.9032C18.0316 1.14518 18.1546 1.09647 18.2454 1.00977C18.3361 0.923074 18.3871 0.805487 18.3871 0.682878C18.3871 0.560269 18.3361 0.442682 18.2454 0.355985C18.1546 0.269287 18.0316 0.220581 17.9032 0.220581H10.1613C10.033 0.220581 9.90989 0.269287 9.81914 0.355985C9.7284 0.442682 9.67742 0.560269 9.67742 0.682878C9.67742 0.805487 9.7284 0.923074 9.81914 1.00977C9.90989 1.09647 10.033 1.14518 10.1613 1.14518H13.5484V3.91896H5.32258C4.93759 3.91896 4.56837 4.06508 4.29613 4.32517C4.0239 4.58526 3.87097 4.93802 3.87097 5.30585V12.2403H0.967742V9.00423C0.967742 8.88162 0.916763 8.76403 0.826019 8.67733C0.735276 8.59064 0.612202 8.54193 0.483871 8.54193C0.35554 8.54193 0.232466 8.59064 0.141723 8.67733C0.0509791 8.76403 0 8.88162 0 9.00423V16.401C0 16.5236 0.0509791 16.6412 0.141723 16.7279C0.232466 16.8146 0.35554 16.8633 0.483871 16.8633C0.612202 16.8633 0.735276 16.8146 0.826019 16.7279C0.916763 16.6412 0.967742 16.5236 0.967742 16.401V13.1649H3.87097V16.0184C3.87051 16.2005 3.9078 16.3808 3.98068 16.549C4.05355 16.7172 4.16057 16.87 4.29556 16.9985L8.56815 21.0806C8.70263 21.2096 8.86252 21.3118 9.03858 21.3814C9.21465 21.4511 9.4034 21.4867 9.59395 21.4862H17.5028C17.6934 21.4867 17.8821 21.4511 18.0582 21.3814C18.2343 21.3118 18.3941 21.2096 18.5286 21.0806L22.8012 16.9985C22.8917 16.9121 23.0144 16.8635 23.1423 16.8633H24.6774C25.0624 16.8633 25.4316 16.7172 25.7039 16.4571C25.9761 16.197 26.129 15.8442 26.129 15.4764V13.1649H29.0323V16.401C29.0323 16.5236 29.0832 16.6412 29.174 16.7279C29.2647 16.8146 29.3878 16.8633 29.5161 16.8633C29.6445 16.8633 29.7675 16.8146 29.8583 16.7279C29.949 16.6412 30 16.5236 30 16.401V9.00423C30 8.88162 29.949 8.76403 29.8583 8.67733C29.7675 8.59064 29.6445 8.54193 29.5161 8.54193ZM25.1613 15.4764C25.1613 15.599 25.1103 15.7166 25.0196 15.8033C24.9288 15.89 24.8057 15.9387 24.6774 15.9387H23.1423C22.9518 15.9382 22.763 15.9739 22.587 16.0435C22.4109 16.1131 22.251 16.2154 22.1165 16.3443L17.844 20.4264C17.7534 20.5128 17.6308 20.5614 17.5028 20.5617H9.59395C9.466 20.5614 9.34335 20.5128 9.25282 20.4264L4.98024 16.3443C4.88982 16.2579 4.83893 16.1407 4.83871 16.0184V5.30585C4.83871 5.18324 4.88969 5.06565 4.98043 4.97896C5.07118 4.89226 5.19425 4.84355 5.32258 4.84355H17.5028C17.6308 4.84376 17.7534 4.89238 17.844 4.97877L22.1165 9.06086C22.251 9.18983 22.4109 9.29208 22.587 9.36171C22.763 9.43133 22.9518 9.46696 23.1423 9.46652H24.6774C24.8057 9.46652 24.9288 9.51523 25.0196 9.60193C25.1103 9.68863 25.1613 9.80621 25.1613 9.92882V15.4764Z"/>
</mask>
<path d="M29.5161 8.54193C29.3878 8.54193 29.2647 8.59064 29.174 8.67733C29.0832 8.76403 29.0323 8.88162 29.0323 9.00423V12.2403H26.129V9.92882C26.129 9.56099 25.9761 9.20823 25.7039 8.94814C25.4316 8.68805 25.0624 8.54193 24.6774 8.54193H23.1423C23.0144 8.54172 22.8917 8.4931 22.8012 8.40671L18.5286 4.32462C18.3941 4.19565 18.2343 4.0934 18.0582 4.02377C17.8821 3.95415 17.6934 3.91852 17.5028 3.91896H14.5161V1.14518H17.9032C18.0316 1.14518 18.1546 1.09647 18.2454 1.00977C18.3361 0.923074 18.3871 0.805487 18.3871 0.682878C18.3871 0.560269 18.3361 0.442682 18.2454 0.355985C18.1546 0.269287 18.0316 0.220581 17.9032 0.220581H10.1613C10.033 0.220581 9.90989 0.269287 9.81914 0.355985C9.7284 0.442682 9.67742 0.560269 9.67742 0.682878C9.67742 0.805487 9.7284 0.923074 9.81914 1.00977C9.90989 1.09647 10.033 1.14518 10.1613 1.14518H13.5484V3.91896H5.32258C4.93759 3.91896 4.56837 4.06508 4.29613 4.32517C4.0239 4.58526 3.87097 4.93802 3.87097 5.30585V12.2403H0.967742V9.00423C0.967742 8.88162 0.916763 8.76403 0.826019 8.67733C0.735276 8.59064 0.612202 8.54193 0.483871 8.54193C0.35554 8.54193 0.232466 8.59064 0.141723 8.67733C0.0509791 8.76403 0 8.88162 0 9.00423V16.401C0 16.5236 0.0509791 16.6412 0.141723 16.7279C0.232466 16.8146 0.35554 16.8633 0.483871 16.8633C0.612202 16.8633 0.735276 16.8146 0.826019 16.7279C0.916763 16.6412 0.967742 16.5236 0.967742 16.401V13.1649H3.87097V16.0184C3.87051 16.2005 3.9078 16.3808 3.98068 16.549C4.05355 16.7172 4.16057 16.87 4.29556 16.9985L8.56815 21.0806C8.70263 21.2096 8.86252 21.3118 9.03858 21.3814C9.21465 21.4511 9.4034 21.4867 9.59395 21.4862H17.5028C17.6934 21.4867 17.8821 21.4511 18.0582 21.3814C18.2343 21.3118 18.3941 21.2096 18.5286 21.0806L22.8012 16.9985C22.8917 16.9121 23.0144 16.8635 23.1423 16.8633H24.6774C25.0624 16.8633 25.4316 16.7172 25.7039 16.4571C25.9761 16.197 26.129 15.8442 26.129 15.4764V13.1649H29.0323V16.401C29.0323 16.5236 29.0832 16.6412 29.174 16.7279C29.2647 16.8146 29.3878 16.8633 29.5161 16.8633C29.6445 16.8633 29.7675 16.8146 29.8583 16.7279C29.949 16.6412 30 16.5236 30 16.401V9.00423C30 8.88162 29.949 8.76403 29.8583 8.67733C29.7675 8.59064 29.6445 8.54193 29.5161 8.54193ZM25.1613 15.4764C25.1613 15.599 25.1103 15.7166 25.0196 15.8033C24.9288 15.89 24.8057 15.9387 24.6774 15.9387H23.1423C22.9518 15.9382 22.763 15.9739 22.587 16.0435C22.4109 16.1131 22.251 16.2154 22.1165 16.3443L17.844 20.4264C17.7534 20.5128 17.6308 20.5614 17.5028 20.5617H9.59395C9.466 20.5614 9.34335 20.5128 9.25282 20.4264L4.98024 16.3443C4.88982 16.2579 4.83893 16.1407 4.83871 16.0184V5.30585C4.83871 5.18324 4.88969 5.06565 4.98043 4.97896C5.07118 4.89226 5.19425 4.84355 5.32258 4.84355H17.5028C17.6308 4.84376 17.7534 4.89238 17.844 4.97877L22.1165 9.06086C22.251 9.18983 22.4109 9.29208 22.587 9.36171C22.763 9.43133 22.9518 9.46696 23.1423 9.46652H24.6774C24.8057 9.46652 24.9288 9.51523 25.0196 9.60193C25.1103 9.68863 25.1613 9.80621 25.1613 9.92882V15.4764Z" fill="white"/>
<path d="M29.0323 12.2403V67.2403H84.0323V12.2403H29.0323ZM26.129 12.2403H-28.871V67.2403H26.129V12.2403ZM24.6774 8.54193V-46.4581V8.54193ZM23.1423 8.54193L23.0522 63.5419L23.0973 63.5419H23.1423V8.54193ZM22.8012 8.40671L-15.193 48.174L-15.182 48.1845L-15.171 48.195L22.8012 8.40671ZM18.5286 4.32462L-19.54 44.0207L-19.5028 44.0564L-19.4656 44.0919L18.5286 4.32462ZM17.5028 3.91896V58.919H17.5654L17.628 58.9188L17.5028 3.91896ZM14.5161 3.91896H-40.4839V58.919H14.5161V3.91896ZM14.5161 1.14518V-53.8548H-40.4839V1.14518H14.5161ZM13.5484 1.14518H68.5484V-53.8548H13.5484V1.14518ZM13.5484 3.91896V58.919H68.5484V3.91896H13.5484ZM5.32258 3.91896V-51.081V3.91896ZM3.87097 12.2403V67.2403H58.871V12.2403H3.87097ZM0.967742 12.2403H-54.0323V67.2403H0.967742V12.2403ZM0.967742 9.00423H55.9677H0.967742ZM0 9.00423H-55H0ZM0 16.401H-55H0ZM0.967742 16.401H55.9677H0.967742ZM0.967742 13.1649V-41.8351H-54.0323V13.1649H0.967742ZM3.87097 13.1649H58.871V-41.8351H3.87097V13.1649ZM3.87097 16.0184L58.8708 16.1556L58.871 16.087V16.0184H3.87097ZM4.29556 16.9985L42.2898 -22.7688L42.2526 -22.8043L42.2153 -22.8398L4.29556 16.9985ZM8.56815 21.0806L46.6367 -18.6155L46.5996 -18.6512L46.5624 -18.6867L8.56815 21.0806ZM9.59395 21.4862V-33.5138H9.53134L9.46874 -33.5136L9.59395 21.4862ZM17.5028 21.4862L17.628 -33.5136L17.5654 -33.5138H17.5028V21.4862ZM18.5286 21.0806L-19.4656 -18.6867L-19.5028 -18.6512L-19.54 -18.6155L18.5286 21.0806ZM22.8012 16.9985L-15.171 -22.7898L-15.182 -22.7793L-15.193 -22.7688L22.8012 16.9985ZM23.1423 16.8633V-38.1367H23.0973L23.0522 -38.1367L23.1423 16.8633ZM26.129 13.1649V-41.8351H-28.871V13.1649H26.129ZM29.0323 13.1649H84.0323V-41.8351H29.0323V13.1649ZM23.1423 15.9387L23.0171 70.9385L23.0797 70.9387H23.1423V15.9387ZM22.1165 16.3443L60.1108 56.1116L60.148 56.0761L60.1851 56.0405L22.1165 16.3443ZM17.844 20.4264L55.8162 60.2148L55.8272 60.2042L55.8382 60.1937L17.844 20.4264ZM17.5028 20.5617V75.5617H17.5479L17.5929 75.5616L17.5028 20.5617ZM9.59395 20.5617L9.50384 75.5616L9.5489 75.5617H9.59395V20.5617ZM9.25282 20.4264L-28.7414 60.1937L-28.7304 60.2042L-28.7194 60.2148L9.25282 20.4264ZM4.98024 16.3443L-33.036 56.0906L-33.025 56.1011L-33.014 56.1116L4.98024 16.3443ZM4.83871 16.0184H-50.1613V16.0678L-50.1612 16.1171L4.83871 16.0184ZM17.5028 4.84355L17.5929 -50.1564L17.5479 -50.1564H17.5028V4.84355ZM17.844 4.97877L55.8382 -34.7885L55.8272 -34.799L55.8162 -34.8096L17.844 4.97877ZM22.1165 9.06086L60.1851 -30.6353L60.148 -30.6709L60.1108 -30.7064L22.1165 9.06086ZM23.1423 9.46652V-45.5335H23.0797L23.0171 -45.5333L23.1423 9.46652ZM29.5161 -46.4581C15.5898 -46.4581 1.75739 -41.196 -8.82025 -31.09L67.1682 48.4446C56.7721 58.3773 43.1858 63.5419 29.5161 63.5419V-46.4581ZM-8.82025 -31.09C-19.4832 -20.9025 -25.9677 -6.53572 -25.9677 9.00423H84.0323C84.0323 24.299 77.6497 38.4305 67.1682 48.4446L-8.82025 -31.09ZM-25.9677 9.00423V12.2403H84.0323V9.00423H-25.9677ZM29.0323 -42.7597H26.129V67.2403H29.0323V-42.7597ZM81.129 12.2403V9.92882H-28.871V12.2403H81.129ZM81.129 9.92882C81.129 -5.85635 74.5425 -20.4583 63.6981 -30.8192L-12.2904 48.7154C-22.5903 38.8747 -28.871 24.9783 -28.871 9.92882H81.129ZM63.6981 -30.8192C52.939 -41.0986 38.8604 -46.4581 24.6774 -46.4581V63.5419C11.2644 63.5419 -2.0757 58.4747 -12.2904 48.7154L63.6981 -30.8192ZM24.6774 -46.4581H23.1423V63.5419H24.6774V-46.4581ZM23.2324 -46.458C36.8627 -46.4357 50.403 -41.2787 60.7734 -31.3816L-15.171 48.195C-4.61951 58.2649 9.1661 63.5191 23.0522 63.5419L23.2324 -46.458ZM60.7954 -31.3606L56.5229 -35.4427L-19.4656 44.0919L-15.193 48.174L60.7954 -31.3606ZM56.5972 -35.3715C51.23 -40.5187 44.985 -44.4723 38.2844 -47.1221L-2.16798 55.1697C-8.51647 52.6591 -14.4417 48.91 -19.54 44.0207L56.5972 -35.3715ZM38.2844 -47.1221C31.5871 -49.7706 24.4888 -51.0971 17.3776 -51.0809L17.628 58.9188C10.898 58.9341 4.17711 57.6789 -2.16798 55.1697L38.2844 -47.1221ZM17.5028 -51.081H14.5161V58.919H17.5028V-51.081ZM69.5161 3.91896V1.14518H-40.4839V3.91896H69.5161ZM14.5161 56.1452H17.9032V-53.8548H14.5161V56.1452ZM17.9032 56.1452C31.8296 56.1452 45.662 50.8831 56.2396 40.7771L-19.7489 -38.7575C-9.35271 -48.6902 4.23354 -53.8548 17.9032 -53.8548V56.1452ZM56.2396 40.7771C66.9025 30.5896 73.3871 16.2228 73.3871 0.682878H-36.6129C-36.6129 -14.6119 -30.2303 -28.7434 -19.7489 -38.7575L56.2396 40.7771ZM73.3871 0.682878C73.3871 -14.8571 66.9025 -29.2238 56.2396 -39.4113L-19.7489 40.1233C-30.2303 30.1092 -36.6129 15.9776 -36.6129 0.682878H73.3871ZM56.2396 -39.4113C45.662 -49.5173 31.8296 -54.7794 17.9032 -54.7794V55.2206C4.23353 55.2206 -9.35271 50.0559 -19.7489 40.1233L56.2396 -39.4113ZM17.9032 -54.7794H10.1613V55.2206H17.9032V-54.7794ZM10.1613 -54.7794C-3.76497 -54.7794 -17.5974 -49.5174 -28.1751 -39.4113L47.8134 40.1233C37.4172 50.056 23.8309 55.2206 10.1613 55.2206V-54.7794ZM-28.1751 -39.4113C-38.8382 -29.2236 -45.3226 -14.8568 -45.3226 0.682878H64.6774C64.6774 15.9774 58.295 30.109 47.8134 40.1233L-28.1751 -39.4113ZM-45.3226 0.682878C-45.3226 16.2226 -38.8382 30.5894 -28.1751 40.7771L47.8134 -38.7575C58.295 -28.7432 64.6774 -14.6116 64.6774 0.682878H-45.3226ZM-28.1751 40.7771C-17.5974 50.8832 -3.76496 56.1452 10.1613 56.1452V-53.8548C23.8309 -53.8548 37.4172 -48.6902 47.8134 -38.7575L-28.1751 40.7771ZM10.1613 56.1452H13.5484V-53.8548H10.1613V56.1452ZM-41.4516 1.14518V3.91896H68.5484V1.14518H-41.4516ZM13.5484 -51.081H5.32258V58.919H13.5484V-51.081ZM5.32258 -51.081C-8.86038 -51.081 -22.9389 -45.7216 -33.6981 -35.4421L42.2904 44.0925C32.0757 53.8517 18.7356 58.919 5.32258 58.919V-51.081ZM-33.6981 -35.4421C-44.5426 -25.0812 -51.129 -10.4793 -51.129 5.30585H58.871C58.871 20.3553 52.5904 34.2517 42.2904 44.0925L-33.6981 -35.4421ZM-51.129 5.30585V12.2403H58.871V5.30585H-51.129ZM3.87097 -42.7597H0.967742V67.2403H3.87097V-42.7597ZM55.9677 12.2403V9.00423H-54.0323V12.2403H55.9677ZM55.9677 9.00423C55.9677 -6.53571 49.4832 -20.9025 38.8203 -31.09L-37.1682 48.4446C-47.6497 38.4305 -54.0323 24.2989 -54.0323 9.00423H55.9677ZM38.8203 -31.09C28.2426 -41.196 14.4102 -46.4581 0.483871 -46.4581V63.5419C-13.1858 63.5419 -26.7721 58.3773 -37.1682 48.4446L38.8203 -31.09ZM0.483871 -46.4581C-13.4425 -46.4581 -27.2749 -41.196 -37.8525 -31.09L38.136 48.4446C27.7398 58.3773 14.1536 63.5419 0.483871 63.5419V-46.4581ZM-37.8525 -31.09C-48.5154 -20.9025 -55 -6.53571 -55 9.00423H55C55 24.2989 48.6174 38.4305 38.136 48.4446L-37.8525 -31.09ZM-55 9.00423V16.401H55V9.00423H-55ZM-55 16.401C-55 31.9409 -48.5154 46.3077 -37.8525 56.4952L38.136 -23.0394C48.6174 -13.0253 55 1.10626 55 16.401H-55ZM-37.8525 56.4952C-27.2749 66.6012 -13.4425 71.8633 0.483871 71.8633V-38.1367C14.1536 -38.1367 27.7398 -32.9721 38.136 -23.0394L-37.8525 56.4952ZM0.483871 71.8633C14.4102 71.8633 28.2426 66.6012 38.8203 56.4952L-37.1682 -23.0394C-26.7721 -32.9721 -13.1858 -38.1367 0.483871 -38.1367V71.8633ZM38.8203 56.4952C49.4832 46.3077 55.9677 31.9409 55.9677 16.401H-54.0323C-54.0323 1.10626 -47.6497 -13.0253 -37.1682 -23.0394L38.8203 56.4952ZM55.9677 16.401V13.1649H-54.0323V16.401H55.9677ZM0.967742 68.1649H3.87097V-41.8351H0.967742V68.1649ZM-51.129 13.1649V16.0184H58.871V13.1649H-51.129ZM-51.1289 15.8813C-51.1483 23.6849 -49.5463 31.3509 -46.4868 38.4131L54.4481 -5.31503C57.3619 1.41078 58.8894 8.7161 58.8708 16.1556L-51.1289 15.8813ZM-46.4868 38.4131C-43.4301 45.4686 -39.0142 51.7064 -33.6242 56.8368L42.2153 -22.8398C47.3354 -17.9664 51.5372 -12.0341 54.4481 -5.31503L-46.4868 38.4131ZM-33.6987 56.7658L-29.4261 60.8479L46.5624 -18.6867L42.2898 -22.7688L-33.6987 56.7658ZM-29.5005 60.7767C-24.133 65.9241 -17.8879 69.8776 -11.1876 72.5273L29.2648 -29.7645C35.613 -27.254 41.5383 -23.505 46.6367 -18.6155L-29.5005 60.7767ZM-11.1876 72.5273C-4.49047 75.1758 2.60788 76.5023 9.71917 76.4861L9.46874 -33.5136C16.1989 -33.5289 22.9198 -32.2736 29.2648 -29.7645L-11.1876 72.5273ZM9.59395 76.4863H17.5028V-33.5138H9.59395V76.4863ZM17.3776 76.4861C24.4889 76.5023 31.5872 75.1758 38.2844 72.5273L-2.16798 -29.7645C4.17703 -32.2737 10.8979 -33.5289 17.628 -33.5136L17.3776 76.4861ZM38.2844 72.5273C44.9848 69.8776 51.2299 65.924 56.5972 60.7767L-19.54 -18.6155C-14.4416 -23.5049 -8.51628 -27.254 -2.16798 -29.7645L38.2844 72.5273ZM56.5229 60.8479L60.7954 56.7658L-15.193 -22.7688L-19.4656 -18.6867L56.5229 60.8479ZM60.7734 56.7868C50.4028 66.6841 36.8624 71.8409 23.2324 71.8632L23.0522 -38.1367C9.16635 -38.1139 -4.61934 -32.8599 -15.171 -22.7898L60.7734 56.7868ZM23.1423 71.8633H24.6774V-38.1367H23.1423V71.8633ZM24.6774 71.8633C38.8604 71.8633 52.939 66.5038 63.6981 56.2244L-12.2904 -23.3102C-2.0757 -33.0695 11.2644 -38.1367 24.6774 -38.1367V71.8633ZM63.6981 56.2244C74.5425 45.8635 81.129 31.2616 81.129 15.4764H-28.871C-28.871 0.426872 -22.5903 -13.4695 -12.2904 -23.3102L63.6981 56.2244ZM81.129 15.4764V13.1649H-28.871V15.4764H81.129ZM26.129 68.1649H29.0323V-41.8351H26.129V68.1649ZM-25.9677 13.1649V16.401H84.0323V13.1649H-25.9677ZM-25.9677 16.401C-25.9677 31.9409 -19.4832 46.3077 -8.82025 56.4952L67.1682 -23.0394C77.6497 -13.0253 84.0323 1.10625 84.0323 16.401H-25.9677ZM-8.82025 56.4952C1.75739 66.6012 15.5898 71.8633 29.5161 71.8633V-38.1367C43.1858 -38.1367 56.7721 -32.9721 67.1682 -23.0394L-8.82025 56.4952ZM29.5161 71.8633C43.4425 71.8633 57.2749 66.6012 67.8525 56.4952L-8.13596 -23.0394C2.2602 -32.9721 15.8464 -38.1367 29.5161 -38.1367V71.8633ZM67.8525 56.4952C78.5154 46.3077 85 31.9409 85 16.401H-25C-25 1.10625 -18.6174 -13.0253 -8.13596 -23.0394L67.8525 56.4952ZM85 16.401V9.00423H-25V16.401H85ZM85 9.00423C85 -6.53572 78.5154 -20.9025 67.8525 -31.09L-8.13596 48.4446C-18.6174 38.4305 -25 24.299 -25 9.00423H85ZM67.8525 -31.09C57.2749 -41.196 43.4425 -46.4581 29.5161 -46.4581V63.5419C15.8464 63.5419 2.2602 58.3773 -8.13596 48.4446L67.8525 -31.09ZM-29.8387 15.4764C-29.8387 0.182149 -23.4565 -13.9496 -12.9747 -23.964L63.0138 55.5706C73.6771 45.3827 80.1613 31.0158 80.1613 15.4764H-29.8387ZM-12.9747 -23.964C-2.57838 -33.8968 11.0079 -39.0613 24.6774 -39.0613V70.9387C38.6036 70.9387 52.436 65.6767 63.0138 55.5706L-12.9747 -23.964ZM24.6774 -39.0613H23.1423V70.9387H24.6774V-39.0613ZM23.2676 -39.0612C16.1562 -39.0774 9.05789 -37.7508 2.36081 -35.1024L42.8131 67.1894C36.4682 69.6986 29.7473 70.9539 23.0171 70.9385L23.2676 -39.0612ZM2.36081 -35.1024C-4.33945 -32.4527 -10.5846 -28.4992 -15.9521 -23.3518L60.1851 56.0405C55.0866 60.9299 49.1613 64.679 42.8131 67.1894L2.36081 -35.1024ZM-15.8777 -23.4229L-20.1503 -19.3409L55.8382 60.1937L60.1108 56.1116L-15.8777 -23.4229ZM-20.1283 -19.3619C-9.75751 -29.2593 3.78292 -34.4159 17.4127 -34.4383L17.5929 75.5616C31.4786 75.5388 45.2644 70.2849 55.8162 60.2148L-20.1283 -19.3619ZM17.5028 -34.4383H9.59395V75.5617H17.5028V-34.4383ZM9.68406 -34.4383C23.3139 -34.4159 36.8543 -29.2593 47.225 -19.3619L-28.7194 60.2148C-18.1676 70.2849 -4.38185 75.5388 9.50384 75.5616L9.68406 -34.4383ZM47.2471 -19.3409L42.9745 -23.4229L-33.014 56.1116L-28.7414 60.1937L47.2471 -19.3409ZM42.9965 -23.4019C53.4416 -13.4114 59.8113 0.671421 59.8386 15.9197L-50.1612 16.1171C-50.1334 31.6099 -43.662 45.9271 -33.036 56.0906L42.9965 -23.4019ZM59.8387 16.0184V5.30585H-50.1613V16.0184H59.8387ZM59.8387 5.30585C59.8387 20.6005 53.4561 34.7321 42.9747 44.7463L-33.0138 -34.7883C-43.6768 -24.6008 -50.1613 -10.234 -50.1613 5.30585H59.8387ZM42.9747 44.7463C32.5784 54.679 18.9921 59.8436 5.32258 59.8436V-50.1564C-8.60365 -50.1564 -22.4361 -44.8945 -33.0138 -34.7883L42.9747 44.7463ZM5.32258 59.8436H17.5028V-50.1564H5.32258V59.8436ZM17.4127 59.8435C3.7828 59.8211 -9.7576 54.6644 -20.1283 44.7671L55.8162 -34.8096C45.2645 -44.8796 31.4787 -50.1336 17.5929 -50.1564L17.4127 59.8435ZM-20.1503 44.7461L-15.8777 48.8282L60.1108 -30.7064L55.8382 -34.7885L-20.1503 44.7461ZM-15.9521 48.757C-10.5847 53.9043 -4.33959 57.8579 2.36081 60.5076L42.8131 -41.7842C49.1614 -39.2737 55.0867 -35.5246 60.1851 -30.6353L-15.9521 48.757ZM2.36081 60.5076C9.05789 63.156 16.1562 64.4826 23.2676 64.4664L23.0171 -45.5333C29.7473 -45.5487 36.4682 -44.2934 42.8131 -41.7842L2.36081 60.5076ZM23.1423 64.4665H24.6774V-45.5335H23.1423V64.4665ZM24.6774 64.4665C11.0079 64.4665 -2.57838 59.302 -12.9747 49.3692L63.0138 -30.1654C52.436 -40.2715 38.6036 -45.5335 24.6774 -45.5335V64.4665ZM-12.9747 49.3692C-23.4565 39.3548 -29.8387 25.2231 -29.8387 9.92882H80.1613C80.1613 -5.61063 73.6771 -19.9775 63.0138 -30.1654L-12.9747 49.3692ZM-29.8387 9.92882V15.4764H80.1613V9.92882H-29.8387Z" fill="white" mask="url(#path-1-inside-1_766_698)"/>
</g>
</svg>
