<svg width="36" height="26" viewBox="0 0 36 26" fill="none" xmlns="http://www.w3.org/2000/svg">
<path id="Vector" d="M34.5542 10.3382C34.4045 10.3382 34.2609 10.395 34.1551 10.4962C34.0492 10.5973 33.9897 10.7345 33.9897 10.8776V14.653H30.6026V11.9563C30.6026 11.5271 30.4242 11.1156 30.1066 10.8121C29.789 10.5087 29.3582 10.3382 28.9091 10.3382H27.1181C26.9689 10.338 26.8258 10.2813 26.7202 10.1805L21.7355 5.41803C21.5786 5.26756 21.392 5.14827 21.1866 5.06704C20.9812 4.98581 20.761 4.94425 20.5387 4.94475H17.0542V1.70868H21.0058C21.1556 1.70868 21.2991 1.65185 21.405 1.5507C21.5109 1.44956 21.5704 1.31237 21.5704 1.16933C21.5704 1.02628 21.5109 0.8891 21.405 0.787953C21.2991 0.686806 21.1556 0.629982 21.0058 0.629982H11.9736C11.8239 0.629982 11.6803 0.686806 11.5744 0.787953C11.4685 0.8891 11.4091 1.02628 11.4091 1.16933C11.4091 1.31237 11.4685 1.44956 11.5744 1.5507C11.6803 1.65185 11.8239 1.70868 11.9736 1.70868H15.9252V4.94475H6.32842C5.87926 4.94475 5.4485 5.11523 5.1309 5.41867C4.8133 5.72211 4.63487 6.13366 4.63487 6.56279V14.653H1.24778V10.8776C1.24778 10.7345 1.1883 10.5973 1.08243 10.4962C0.976566 10.395 0.832979 10.3382 0.68326 10.3382C0.533541 10.3382 0.389954 10.395 0.284087 10.4962C0.17822 10.5973 0.118744 10.7345 0.118744 10.8776V19.5071C0.118744 19.6502 0.17822 19.7873 0.284087 19.8885C0.389954 19.9896 0.533541 20.0465 0.68326 20.0465C0.832979 20.0465 0.976566 19.9896 1.08243 19.8885C1.1883 19.7873 1.24778 19.6502 1.24778 19.5071V15.7317H4.63487V19.0608C4.63434 19.2732 4.67784 19.4836 4.76287 19.6798C4.84789 19.8761 4.97275 20.0543 5.13024 20.2042L10.1149 24.9666C10.2718 25.1171 10.4584 25.2364 10.6638 25.3176C10.8692 25.3989 11.0894 25.4404 11.3117 25.4399H20.5387C20.761 25.4404 20.9812 25.3989 21.1866 25.3176C21.392 25.2364 21.5786 25.1171 21.7355 24.9666L26.7202 20.2042C26.8258 20.1034 26.9689 20.0467 27.1181 20.0465H28.9091C29.3582 20.0465 29.789 19.876 30.1066 19.5725C30.4242 19.2691 30.6026 18.8575 30.6026 18.4284V15.7317H33.9897V19.5071C33.9897 19.6502 34.0492 19.7873 34.1551 19.8885C34.2609 19.9896 34.4045 20.0465 34.5542 20.0465C34.7039 20.0465 34.8475 19.9896 34.9534 19.8885C35.0593 19.7873 35.1187 19.6502 35.1187 19.5071V10.8776C35.1187 10.7345 35.0593 10.5973 34.9534 10.4962C34.8475 10.395 34.7039 10.3382 34.5542 10.3382ZM29.4736 18.4284C29.4736 18.5715 29.4141 18.7086 29.3082 18.8098C29.2024 18.9109 29.0588 18.9678 28.9091 18.9678H27.1181C26.8958 18.9673 26.6756 19.0088 26.4702 19.0901C26.2648 19.1713 26.0783 19.2906 25.9214 19.441L20.9367 24.2035C20.8311 24.3043 20.688 24.361 20.5387 24.3612H11.3117C11.1624 24.361 11.0193 24.3043 10.9137 24.2035L5.92903 19.441C5.82353 19.3401 5.76416 19.2034 5.76391 19.0608V6.56279C5.76391 6.41975 5.82338 6.28257 5.92925 6.18142C6.03512 6.08027 6.1787 6.02345 6.32842 6.02345H20.5387C20.688 6.02369 20.8311 6.08041 20.9367 6.18121L25.9214 10.9436C26.0783 11.0941 26.2648 11.2134 26.4702 11.2946C26.6756 11.3759 26.8958 11.4174 27.1181 11.4169H28.9091C29.0588 11.4169 29.2024 11.4737 29.3082 11.5749C29.4141 11.676 29.4736 11.8132 29.4736 11.9563V18.4284Z" fill="#0B9DBC"/>
</svg>
