<svg width="15" height="16" viewBox="0 0 15 16" fill="none" xmlns="http://www.w3.org/2000/svg">
<g id="carbon:view">
<path id="Vector" d="M14.5031 8.17058C13.9518 6.74448 12.9947 5.51118 11.7501 4.62312C10.5055 3.73506 9.0279 3.23116 7.50001 3.17371C5.97213 3.23116 4.49457 3.73506 3.24995 4.62312C2.00533 5.51118 1.04821 6.74448 0.496889 8.17058C0.459655 8.27357 0.459655 8.38634 0.496889 8.48933C1.04821 9.91543 2.00533 11.1487 3.24995 12.0368C4.49457 12.9249 5.97213 13.4288 7.50001 13.4862C9.0279 13.4288 10.5055 12.9249 11.7501 12.0368C12.9947 11.1487 13.9518 9.91543 14.5031 8.48933C14.5404 8.38634 14.5404 8.27357 14.5031 8.17058ZM7.50001 12.5487C5.01564 12.5487 2.39064 10.7065 1.43908 8.32996C2.39064 5.95339 5.01564 4.11121 7.50001 4.11121C9.98439 4.11121 12.6094 5.95339 13.561 8.32996C12.6094 10.7065 9.98439 12.5487 7.50001 12.5487Z" fill="#0B9DBC"/>
<g id="Vector_2">
<mask id="path-2-inside-1_766_792" fill="white">
<path d="M7.5 5.51746C6.94374 5.51746 6.39997 5.68241 5.93746 5.99145C5.47495 6.30049 5.11446 6.73974 4.90159 7.25366C4.68872 7.76758 4.63302 8.33308 4.74154 8.87865C4.85006 9.42422 5.11793 9.92536 5.51126 10.3187C5.9046 10.712 6.40574 10.9799 6.95131 11.0884C7.49688 11.1969 8.06238 11.1412 8.5763 10.9284C9.09022 10.7155 9.52947 10.355 9.83851 9.8925C10.1476 9.42998 10.3125 8.88622 10.3125 8.32996C10.3125 7.58403 10.0162 6.86866 9.48874 6.34122C8.96129 5.81377 8.24592 5.51746 7.5 5.51746ZM7.5 10.205C7.12916 10.205 6.76665 10.095 6.45831 9.88896C6.14996 9.68293 5.90964 9.3901 5.76773 9.04749C5.62581 8.70488 5.58868 8.32788 5.66103 7.96416C5.73338 7.60045 5.91195 7.26635 6.17418 7.00413C6.4364 6.74191 6.77049 6.56333 7.13421 6.49098C7.49792 6.41864 7.87492 6.45577 8.21753 6.59768C8.56014 6.7396 8.85298 6.97992 9.05901 7.28826C9.26503 7.5966 9.375 7.95912 9.375 8.32996C9.375 8.82724 9.17746 9.30415 8.82583 9.65578C8.4742 10.0074 7.99728 10.205 7.5 10.205Z"/>
</mask>
<path d="M7.5 5.51746C6.94374 5.51746 6.39997 5.68241 5.93746 5.99145C5.47495 6.30049 5.11446 6.73974 4.90159 7.25366C4.68872 7.76758 4.63302 8.33308 4.74154 8.87865C4.85006 9.42422 5.11793 9.92536 5.51126 10.3187C5.9046 10.712 6.40574 10.9799 6.95131 11.0884C7.49688 11.1969 8.06238 11.1412 8.5763 10.9284C9.09022 10.7155 9.52947 10.355 9.83851 9.8925C10.1476 9.42998 10.3125 8.88622 10.3125 8.32996C10.3125 7.58403 10.0162 6.86866 9.48874 6.34122C8.96129 5.81377 8.24592 5.51746 7.5 5.51746ZM7.5 10.205C7.12916 10.205 6.76665 10.095 6.45831 9.88896C6.14996 9.68293 5.90964 9.3901 5.76773 9.04749C5.62581 8.70488 5.58868 8.32788 5.66103 7.96416C5.73338 7.60045 5.91195 7.26635 6.17418 7.00413C6.4364 6.74191 6.77049 6.56333 7.13421 6.49098C7.49792 6.41864 7.87492 6.45577 8.21753 6.59768C8.56014 6.7396 8.85298 6.97992 9.05901 7.28826C9.26503 7.5966 9.375 7.95912 9.375 8.32996C9.375 8.82724 9.17746 9.30415 8.82583 9.65578C8.4742 10.0074 7.99728 10.205 7.5 10.205Z" fill="#0B9DBC"/>
<path d="M10.3125 8.32996H12.3125H10.3125ZM7.5 3.51746C6.54818 3.51746 5.61773 3.7997 4.82632 4.32851L7.0486 7.65439C7.18222 7.56511 7.3393 7.51746 7.5 7.51746V3.51746ZM4.82632 4.32851C4.03491 4.85731 3.41808 5.60892 3.05383 6.48829L6.74935 8.01903C6.81085 7.87056 6.91499 7.74367 7.0486 7.65439L4.82632 4.32851ZM3.05383 6.48829C2.68958 7.36766 2.59428 8.33529 2.77997 9.26883L6.70311 8.48847C6.67176 8.33086 6.68785 8.16749 6.74935 8.01903L3.05383 6.48829ZM2.77997 9.26883C2.96566 10.2024 3.42401 11.0599 4.09705 11.7329L6.92548 8.90448C6.81185 8.79085 6.73446 8.64608 6.70311 8.48847L2.77997 9.26883ZM4.09705 11.7329C4.77009 12.4059 5.6276 12.8643 6.56113 13.05L7.34149 9.12684C7.18388 9.09549 7.03911 9.01811 6.92548 8.90448L4.09705 11.7329ZM6.56113 13.05C7.49466 13.2357 8.4623 13.1404 9.34166 12.7761L7.81093 9.08061C7.66247 9.1421 7.4991 9.15819 7.34149 9.12684L6.56113 13.05ZM9.34166 12.7761C10.221 12.4119 10.9726 11.795 11.5014 11.0036L8.17557 8.78136C8.08629 8.91497 7.9594 9.01911 7.81093 9.08061L9.34166 12.7761ZM11.5014 11.0036C12.0303 10.2122 12.3125 9.28178 12.3125 8.32996H8.3125C8.3125 8.49065 8.26485 8.64774 8.17557 8.78136L11.5014 11.0036ZM12.3125 8.32996C12.3125 7.0536 11.8055 5.82952 10.903 4.927L8.07453 7.75543C8.2269 7.9078 8.3125 8.11447 8.3125 8.32996H12.3125ZM10.903 4.927C10.0004 4.02449 8.77636 3.51746 7.5 3.51746V7.51746C7.71549 7.51746 7.92215 7.60306 8.07453 7.75543L10.903 4.927ZM7.5 8.20496C7.52472 8.20496 7.54889 8.21229 7.56945 8.22602L5.34717 11.5519C5.98441 11.9777 6.7336 12.205 7.5 12.205V8.20496ZM7.56945 8.22602C7.59 8.23976 7.60602 8.25928 7.61549 8.28212L3.91997 9.81285C4.21326 10.5209 4.70993 11.1261 5.34717 11.5519L7.56945 8.22602ZM7.61549 8.28212C7.62495 8.30496 7.62742 8.33009 7.6226 8.35434L3.69946 7.57398C3.54994 8.32566 3.62668 9.10479 3.91997 9.81285L7.61549 8.28212ZM7.6226 8.35434C7.61778 8.37859 7.60587 8.40086 7.58839 8.41834L4.75996 5.58992C4.21803 6.13185 3.84898 6.8223 3.69946 7.57398L7.6226 8.35434ZM7.58839 8.41834C7.57091 8.43583 7.54864 8.44773 7.52439 8.45255L6.74403 4.52941C5.99235 4.67893 5.30189 5.04799 4.75996 5.58992L7.58839 8.41834ZM7.52439 8.45255C7.50014 8.45738 7.47501 8.4549 7.45217 8.44544L8.9829 4.74992C8.27484 4.45663 7.4957 4.3799 6.74403 4.52941L7.52439 8.45255ZM7.45217 8.44544C7.42932 8.43598 7.4098 8.41996 7.39607 8.3994L10.7219 6.17712C10.2962 5.53988 9.69096 5.04321 8.9829 4.74992L7.45217 8.44544ZM7.39607 8.3994C7.38233 8.37885 7.375 8.35468 7.375 8.32996H11.375C11.375 7.56355 11.1477 6.81436 10.7219 6.17712L7.39607 8.3994ZM7.375 8.32996C7.375 8.2968 7.38817 8.26501 7.41161 8.24157L10.24 11.07C10.9667 10.3433 11.375 9.35767 11.375 8.32996H7.375ZM7.41161 8.24157C7.43505 8.21813 7.46685 8.20496 7.5 8.20496V12.205C8.52772 12.205 9.51334 11.7967 10.24 11.07L7.41161 8.24157Z" fill="#0B9DBC" mask="url(#path-2-inside-1_766_792)"/>
</g>
</g>
</svg>
