<svg width="30" height="30" viewBox="0 0 30 30" fill="none" xmlns="http://www.w3.org/2000/svg">
<g id="ic:baseline-fire-truck">
<path id="Vector" d="M28.625 13.3625L26.825 7.9625C26.6578 7.46464 26.3387 7.0317 25.9127 6.72453C25.4867 6.41736 24.9752 6.25141 24.45 6.25H23.75V5C23.75 4.3125 23.1875 3.75 22.5 3.75H21.25C20.5625 3.75 20 4.3125 20 5V6.25H17.5C16.125 6.25 15 7.375 15 8.75V13.75H1.25V20C1.25 21.375 2.375 22.5 3.75 22.5H5C5 24.575 6.675 26.25 8.75 26.25C10.825 26.25 12.5 24.575 12.5 22.5H17.5C17.5 24.575 19.175 26.25 21.25 26.25C23.325 26.25 25 24.575 25 22.5H28.75V14.15C28.75 13.8875 28.7125 13.625 28.625 13.3625ZM8.75 23.75C8.0625 23.75 7.5 23.1875 7.5 22.5C7.5 21.8125 8.0625 21.25 8.75 21.25C9.4375 21.25 10 21.8125 10 22.5C10 23.1875 9.4375 23.75 8.75 23.75ZM21.25 23.75C20.5625 23.75 20 23.1875 20 22.5C20 21.8125 20.5625 21.25 21.25 21.25C21.9375 21.25 22.5 21.8125 22.5 22.5C22.5 23.1875 21.9375 23.75 21.25 23.75ZM17.5 13.75V8.75H24.45L26.1125 13.75H17.5Z" fill="#0B9DBC"/>
<path id="Vector_2" d="M13.75 10.625H12.5V8.125H13.75V6.25H1.25V8.125H2.5V10.625H1.25V12.5H13.75V10.625ZM6.5625 10.625H4.375V8.125H6.5625V10.625ZM10.625 10.625H8.4375V8.125H10.625V10.625Z" fill="#0B9DBC"/>
</g>
</svg>
