<svg width="31" height="31" viewBox="0 0 31 31" fill="none" xmlns="http://www.w3.org/2000/svg">
<g id="arcticons:mileage">
<path id="Vector" d="M5.46429 9.34741V27.8474H17.2768V13.4724H5.46429M3.96429 27.8474H18.7143M5.46429 7.03491V3.47241H10.0268" stroke="#0B9DBC" stroke-linecap="round" stroke-linejoin="round"/>
<path id="Vector_2" d="M12.0893 3.47241H17.2768V13.5349" stroke="#0B9DBC" stroke-linecap="round" stroke-linejoin="round"/>
<path id="Vector_3" d="M17.2768 13.4724C17.5893 12.9099 18.1518 12.2224 18.9018 12.2224C19.7768 12.2224 20.7143 12.6599 20.7143 14.4724C20.7143 15.1599 20.7143 19.7849 20.9018 20.6599C21.0893 21.5349 21.5893 23.0974 23.5268 23.0974C25.5893 23.0974 26.3393 20.5349 26.2143 19.2849C25.9382 16.9948 25.5418 14.7209 25.0268 12.4724C24.5893 10.3474 22.7768 8.15991 22.5893 7.03491C22.262 5.91241 21.6096 4.91201 20.7143 4.15991C20.3642 3.90955 19.9868 3.69986 19.5893 3.53491" stroke="#0B9DBC" stroke-linecap="round" stroke-linejoin="round"/>
</g>
</svg>
