<svg width="30" height="30" viewBox="0 0 30 30" fill="none" xmlns="http://www.w3.org/2000/svg">
<g id="game-icons:fuel-tank">
<path id="Vector" d="M16.875 7.79297V8.84766H26.25V7.79297H16.875ZM19.2773 9.78516V10.7227H23.8477V9.78516H19.2773ZM3.75 11.7773C3.41309 11.7773 3.14027 11.891 2.86676 12.1303C2.59324 12.3696 2.33484 12.7443 2.12256 13.2219C1.69793 14.1773 1.46484 15.5273 1.46484 16.875C1.46484 18.2227 1.69793 19.5727 2.12256 20.5281C2.33484 21.0057 2.59324 21.3804 2.8667 21.6197C3.14033 21.8591 3.41309 21.9727 3.75 21.9727H4.04619L4.16338 20.9183L4.21553 20.4492H8.90947L9.07869 21.9727H10.7227V11.7773H3.75ZM11.7773 11.7773V14.4727H14.4727V11.7773H11.7773ZM15.5273 11.7773V21.9727H17.1712L17.2884 20.9183L17.3405 20.4492H22.0345L22.2037 21.9727H26.25C26.5869 21.9727 26.8597 21.859 27.1332 21.6197C27.4068 21.3804 27.6653 21.0057 27.8776 20.5281C28.3022 19.5728 28.5353 18.2228 28.5353 16.8752C28.5353 15.5276 28.3023 14.1776 27.8777 13.2223C27.6654 12.7446 27.4069 12.3697 27.1334 12.1304C26.8598 11.8911 26.5869 11.7774 26.25 11.7773H15.5273ZM11.7773 15.5273V18.2227H14.4727V15.5273H11.7773ZM11.7773 19.2773V21.9727H14.4727V19.2773H11.7773ZM5.15959 21.5039L4.33928 28.8867H8.78572L7.96553 21.5039H5.15959ZM18.2846 21.5039L17.4643 28.8867H21.9107L21.0905 21.5039H18.2846ZM10.7227 22.5V28.9453H11.7773V26.7773H14.4727V28.9453H15.5273V22.5H14.4727V25.7227H11.7773V22.5H10.7227ZM23.9648 23.0273V24.7852H25.7227V23.0273H23.9648ZM24.3635 25.8398C24.7059 27.0075 25.3254 27.7666 26.0227 28.2166C27.0829 28.9005 28.2422 28.8867 28.7109 28.8867V27.832C28.2422 27.832 27.3507 27.8183 26.5945 27.3303C26.1522 27.0449 25.7289 26.6026 25.4535 25.8398H24.3635Z" fill="#0B9DBC"/>
</g>
</svg>
