<svg width="27" height="29" viewBox="0 0 27 29" fill="none" xmlns="http://www.w3.org/2000/svg">
<g id="Hyderabad">
<path id="Vector" d="M4.03021 2.39831C3.59288 3.46039 3.40545 4.70991 3.59288 5.20971C3.78031 5.70952 3.65535 6.14685 3.2805 6.14685C2.90565 6.14685 2.78069 6.70913 3.0306 7.45884C3.34298 8.3335 3.09307 9.02073 2.28089 9.58302C1.2188 10.3952 1.2188 10.4577 2.28089 10.5202C3.0306 10.5202 3.34298 11.02 3.34298 12.3944C3.34298 13.4565 3.0306 14.2687 2.59327 14.2687C1.59366 14.2687 1.65613 18.8294 2.65574 19.1418C3.09307 19.2668 3.34298 21.0161 3.34298 23.6401V27.9509L0.718996 28.2008C-0.780422 28.3257 4.90487 28.4507 13.3391 28.4507C21.7733 28.4507 27.5836 28.3257 26.334 28.2008L23.96 27.9509V23.5776C23.96 21.2035 24.2099 19.2668 24.4598 19.2668C24.7722 19.2668 24.9596 18.1422 24.9596 16.7677C24.8971 15.3933 24.7097 14.2687 24.4598 14.2687C23.5851 14.2687 23.8975 10.5202 24.7722 10.5202C25.2095 10.4577 25.0845 10.1453 24.4598 9.64549C23.2103 8.77083 22.9604 7.39637 23.96 7.39637C24.3348 7.39637 24.5847 7.08399 24.5847 6.77161C24.5847 6.39675 24.1474 6.14685 23.5851 6.14685C22.7105 6.14685 22.7105 5.95942 23.3352 5.20971C23.96 4.39753 23.96 4.02268 23.2103 3.14802C22.648 2.58574 22.0857 1.6486 21.8983 1.14879C21.6484 0.399084 21.5234 0.399084 21.5234 1.08632C21.4609 1.58612 21.0236 2.52326 20.4613 3.14802C19.5867 4.02268 19.5867 4.39753 20.2114 5.20971C20.8362 5.95942 20.8362 6.14685 19.9615 6.14685C19.0869 6.14685 19.0869 6.33428 19.7116 7.45884C20.3988 8.52093 20.3364 8.83331 19.3368 9.39559C18.3996 9.89539 18.3372 10.1453 19.0244 10.5826C19.5867 10.895 17.2751 11.0824 13.3391 11.0824C9.7155 11.0824 7.154 10.895 7.59133 10.7076C8.65341 10.2702 8.52846 9.27064 7.4039 9.27064C6.27934 9.27064 6.15438 7.64627 7.27895 7.14646C7.77875 6.89656 7.84123 6.64666 7.34142 6.45923C6.96657 6.2718 6.77914 5.39714 6.96657 4.58496C7.154 3.58535 6.90409 2.89811 6.27934 2.64821C5.71705 2.46078 5.46715 1.8985 5.65458 1.39869C6.27934 -0.350624 4.90487 0.586512 4.03021 2.39831ZM5.84201 12.3944C5.84201 13.6439 5.52963 14.2687 4.90487 14.2687C4.28011 14.2687 3.96773 13.6439 3.96773 12.3944C3.96773 11.1449 4.28011 10.5202 4.90487 10.5202C5.52963 10.5202 5.84201 11.1449 5.84201 12.3944ZM22.7105 12.3944C22.7105 13.6439 22.3981 14.2687 21.7733 14.2687C21.1486 14.2687 20.8362 13.6439 20.8362 12.3944C20.8362 11.1449 21.1486 10.5202 21.7733 10.5202C22.3981 10.5202 22.7105 11.1449 22.7105 12.3944ZM19.5867 13.3316C19.5867 14.0813 18.4621 14.2687 13.3391 14.2687C8.21608 14.2687 7.09152 14.0813 7.09152 13.3316C7.09152 12.5819 8.21608 12.3944 13.3391 12.3944C18.4621 12.3944 19.5867 12.5819 19.5867 13.3316ZM18.7745 16.7677C18.8994 18.3296 18.3996 18.3296 17.3375 16.8927C16.5878 15.8931 16.5254 15.8931 16.1505 16.9552C15.7132 18.0172 15.6507 18.0172 14.8385 16.9552C14.0263 15.8931 14.0263 15.8931 13.9638 16.8927C13.9638 17.5174 13.7139 18.0172 13.3391 18.0172C13.0267 18.0172 12.7143 17.5174 12.7143 16.8927C12.6519 15.8931 12.5894 15.8931 11.9022 16.8927C11.1524 17.8298 11.0275 17.8298 10.4027 16.8927C9.7155 15.8931 9.65302 15.8931 9.65302 16.8927C9.59055 17.5174 9.21569 18.0172 8.71589 18.0172C8.15361 18.0172 7.84123 17.455 7.9037 16.7677C7.96618 15.6432 8.40351 15.5182 13.3391 15.5182C18.2747 15.5182 18.712 15.6432 18.7745 16.7677ZM5.84201 23.6401C5.84201 27.1387 5.65458 28.0134 4.90487 28.0134C4.15516 28.0134 3.96773 27.1387 3.96773 23.6401C3.96773 20.1414 4.15516 19.2668 4.90487 19.2668C5.65458 19.2668 5.84201 20.1414 5.84201 23.6401ZM8.34103 23.6401C8.34103 27.1387 8.15361 28.0134 7.4039 28.0134C6.65419 28.0134 6.46676 27.1387 6.46676 23.6401C6.46676 20.1414 6.65419 19.2668 7.4039 19.2668C8.15361 19.2668 8.34103 20.1414 8.34103 23.6401ZM12.7143 19.829C12.7143 20.1414 12.1521 20.6412 11.4648 20.8286C10.2153 21.2035 9.77798 22.2656 9.40312 26.1391C9.27817 27.3261 9.09074 26.264 9.09074 23.765L8.96579 19.2668H10.8401C11.9022 19.2668 12.7143 19.5167 12.7143 19.829ZM17.5874 23.765C17.5874 26.264 17.4 27.3261 17.2751 26.1391C16.9002 22.2656 16.4629 21.2035 15.2134 20.8286C13.3391 20.2039 13.7139 19.2668 15.8381 19.2668H17.7124L17.5874 23.765ZM20.2114 23.6401C20.2114 26.1391 19.9615 28.0134 19.5867 28.0134C19.2118 28.0134 18.9619 26.1391 18.9619 23.6401C18.9619 21.141 19.2118 19.2668 19.5867 19.2668C19.9615 19.2668 20.2114 21.141 20.2114 23.6401ZM22.7105 23.6401C22.7105 26.1391 22.4605 28.0134 22.0857 28.0134C21.7108 28.0134 21.4609 26.1391 21.4609 23.6401C21.4609 21.141 21.7108 19.2668 22.0857 19.2668C22.4605 19.2668 22.7105 21.141 22.7105 23.6401ZM15.2758 21.7658C16.1505 22.2656 16.4629 23.0778 16.4629 25.2019V28.0134H13.3391H10.2153V25.5768C10.2153 21.8283 12.3395 20.2664 15.2758 21.7658Z" fill="#0B9DBC"/>
</g>
</svg>
