<svg width="15" height="16" viewBox="0 0 15 16" fill="none" xmlns="http://www.w3.org/2000/svg">
<g id="&#240;&#159;&#166;&#134; icon &#34;Instagram Square&#34;">
<path id="Vector" d="M7.80679 6.4658C7.4756 6.46594 7.15188 6.571 6.87656 6.76772C6.60124 6.96444 6.38669 7.24397 6.26003 7.57098C6.13338 7.89798 6.1003 8.25778 6.16499 8.60487C6.22968 8.95196 6.38923 9.27076 6.62346 9.52096C6.85769 9.77117 7.1561 9.94154 7.48094 10.0105C7.80578 10.0795 8.14247 10.0441 8.44844 9.90859C8.75441 9.77312 9.01593 9.54375 9.19992 9.24948C9.38391 8.95521 9.48211 8.60924 9.48211 8.25534C9.48177 7.78072 9.30514 7.32565 8.99101 6.9901C8.67689 6.65456 8.25095 6.46598 7.80679 6.4658ZM11.7222 5.09027C11.637 4.8594 11.5082 4.6497 11.344 4.4742C11.1798 4.2987 10.9835 4.16113 10.7675 4.07003C10.1082 3.7919 8.53833 3.8543 7.80679 3.8543C7.07526 3.8543 5.507 3.78955 4.84579 4.07003C4.62974 4.16113 4.4335 4.2987 4.26926 4.4742C4.10502 4.6497 3.97628 4.8594 3.89103 5.09027C3.63106 5.79481 3.68915 7.47397 3.68915 8.255C3.68915 9.03603 3.63106 10.7132 3.89228 11.4201C3.97754 11.6509 4.10628 11.8606 4.27052 12.0361C4.43476 12.2116 4.63099 12.3492 4.84705 12.4403C5.50637 12.7184 7.0762 12.656 7.80805 12.656C8.5399 12.656 10.1075 12.7208 10.7687 12.4403C10.9848 12.3492 11.181 12.2116 11.3453 12.0361C11.5095 11.8606 11.6382 11.6509 11.7235 11.4201C11.9857 10.7155 11.9254 9.03637 11.9254 8.25534C11.9254 7.4743 11.9857 5.7975 11.7235 5.09061L11.7222 5.09027ZM7.80679 11.0064C7.2976 11.0064 6.79985 10.8451 6.37647 10.5428C5.9531 10.2405 5.62312 9.81081 5.42826 9.30812C5.2334 8.80543 5.18241 8.25228 5.28175 7.71863C5.38109 7.18498 5.62629 6.69478 5.98634 6.31004C6.34639 5.9253 6.80513 5.66328 7.30453 5.55713C7.80394 5.45098 8.32158 5.50546 8.79202 5.71368C9.26245 5.92191 9.66453 6.27452 9.94742 6.72693C10.2303 7.17934 10.3813 7.71123 10.3813 8.25534C10.3817 8.61674 10.3154 8.97467 10.1862 9.30865C10.0569 9.64262 9.86732 9.94607 9.62817 10.2016C9.38902 10.4572 9.10504 10.6598 8.7925 10.7979C8.47996 10.936 8.145 11.0068 7.80679 11.0064ZM10.4874 6.031C10.3686 6.03107 10.2523 5.99346 10.1535 5.92294C10.0546 5.85242 9.97754 5.75216 9.93201 5.63483C9.88648 5.5175 9.87454 5.38838 9.89769 5.26379C9.92084 5.13921 9.97805 5.02476 10.0621 4.93492C10.1461 4.84508 10.2532 4.78389 10.3698 4.75909C10.4863 4.73428 10.6072 4.74698 10.717 4.79557C10.8268 4.84416 10.9207 4.92647 10.9867 5.03207C11.0528 5.13768 11.088 5.26184 11.088 5.38886C11.0884 5.47321 11.0731 5.5568 11.0431 5.63483C11.0132 5.71286 10.9691 5.78381 10.9134 5.84359C10.8577 5.90337 10.7915 5.95082 10.7186 5.98321C10.6458 6.0156 10.5676 6.0323 10.4887 6.03234L10.4874 6.031ZM13.3326 0.740234H2.28102C1.88133 0.740234 1.49801 0.909899 1.21539 1.2119C0.932763 1.51391 0.773987 1.92351 0.773987 2.35061L0.773987 14.1601C0.773987 14.5872 0.932763 14.9968 1.21539 15.2988C1.49801 15.6008 1.88133 15.7704 2.28102 15.7704H13.3326C13.7323 15.7704 14.1156 15.6008 14.3982 15.2988C14.6808 14.9968 14.8396 14.5872 14.8396 14.1601V2.35061C14.8396 1.92351 14.6808 1.51391 14.3982 1.2119C14.1156 0.909899 13.7323 0.740234 13.3326 0.740234ZM12.7951 10.4696C12.7546 11.3295 12.5709 12.0914 11.9835 12.7174C11.396 13.3435 10.6837 13.5438 9.8799 13.5847C9.05072 13.6347 6.56475 13.6347 5.73557 13.5847C4.93088 13.5414 4.22038 13.3448 3.63201 12.7174C3.04364 12.0901 2.85871 11.3278 2.82041 10.4696C2.77363 9.58323 2.77363 6.92644 2.82041 6.04107C2.86091 5.18119 3.04238 4.41928 3.63201 3.79324C4.22163 3.16721 4.93402 2.96927 5.73557 2.92834C6.56475 2.87835 9.05072 2.87835 9.8799 2.92834C10.6846 2.97162 11.3973 3.16822 11.9835 3.79559C12.5696 4.42297 12.7568 5.18522 12.7951 6.04509C12.8418 6.92812 12.8418 9.58256 12.7951 10.4696Z" fill="black"/>
</g>
</svg>
