<svg width="35" height="20" viewBox="0 0 35 20" fill="none" xmlns="http://www.w3.org/2000/svg">
<g id="Kolkata">
<path id="Vector" d="M16.8336 0.445208C16.6313 0.647549 16.4795 1.25457 16.4795 1.81101C16.4795 2.31686 15.8219 3.42974 14.9619 4.18852C14.1526 4.9473 13.4444 6.06018 13.4444 6.61661C13.4444 7.27422 13.1409 7.57773 12.5844 7.52715C11.9268 7.47656 11.6233 7.88125 11.5221 8.84237C11.3704 10.107 11.168 10.2588 9.39756 10.2588C7.52591 10.2588 7.42474 10.1576 7.07064 8.48827C6.91888 7.52715 6.56479 6.71778 6.36244 6.71778C6.10952 6.71778 6.00835 6.16135 6.1601 5.50374C6.26127 4.79554 6.1601 4.08735 5.85659 3.93559C5.60367 3.78384 5.35074 3.07564 5.35074 2.36745C5.35074 1.70984 5.1484 1.1534 4.84489 1.1534C4.59196 1.1534 4.33903 1.70984 4.33903 2.36745C4.33903 3.07564 4.08611 3.78384 3.83318 3.93559C3.52967 4.08735 3.4285 4.79554 3.52967 5.50374C3.68142 6.16135 3.58025 6.71778 3.32733 6.71778C2.66972 6.71778 2.16386 10.6129 2.26504 14.6597C2.31562 18.3018 2.31562 18.3524 1.05099 18.3524C0.292208 18.3524 -0.163059 18.5547 0.0392819 18.8583C0.443964 19.5665 34.5385 19.5665 34.9431 18.8583C35.1455 18.5547 34.6902 18.3524 33.9314 18.3524C32.6668 18.3524 32.6668 18.3018 32.7174 14.6597C32.8186 10.714 32.3127 6.71778 31.7057 6.71778C31.4528 6.71778 31.4022 6.16135 31.5033 5.50374C31.6551 4.84613 31.5033 4.13793 31.1998 3.98618C30.8963 3.78384 30.6434 3.07564 30.6434 2.36745C30.6434 1.70984 30.441 1.1534 30.1375 1.1534C29.8846 1.1534 29.6317 1.70984 29.6317 2.36745C29.6317 3.07564 29.3788 3.78384 29.1258 3.93559C28.8223 4.08735 28.7211 4.79554 28.8223 5.50374C28.9741 6.16135 28.8729 6.71778 28.62 6.71778C28.4176 6.71778 28.0635 7.52715 27.9118 8.48827C27.5577 10.1576 27.4565 10.2588 25.5849 10.2588C23.8144 10.2588 23.612 10.107 23.4603 8.84237C23.3591 7.88125 23.0556 7.47656 22.398 7.57773C21.8921 7.57773 21.5886 7.52715 21.7404 7.37539C22.1451 6.97071 20.6275 4.34028 19.5652 3.5815C19.0594 3.2274 18.5029 2.36745 18.4017 1.70984C18.25 0.445208 17.4406 -0.161818 16.8336 0.445208ZM19.0088 4.23911C19.8181 5.14964 20.5263 6.06018 20.5263 6.26252C20.5263 6.51544 19.1605 6.71778 17.4912 6.71778C15.8219 6.71778 14.4561 6.56603 14.4561 6.41427C14.4561 6.11076 17.0865 2.77213 17.3395 2.72155C17.4406 2.67096 18.1488 3.37915 19.0088 4.23911ZM20.5263 8.23534C20.5263 8.53886 19.1605 8.7412 17.4912 8.7412C15.8219 8.7412 14.4561 8.53886 14.4561 8.23534C14.4561 7.93183 15.8219 7.72949 17.4912 7.72949C19.1605 7.72949 20.5263 7.93183 20.5263 8.23534ZM5.75542 10.107C5.24957 10.2082 4.4402 10.2082 3.98494 10.107C3.47908 9.95524 3.88376 9.85407 4.84489 9.85407C5.80601 9.85407 6.21069 9.95524 5.75542 10.107ZM19.1605 10.107C18.25 10.2082 16.7324 10.2082 15.8725 10.107C14.9619 10.0058 15.6701 9.90466 17.4912 9.90466C19.3123 9.90466 20.0205 10.0058 19.1605 10.107ZM31.0481 10.107C30.5422 10.2082 29.7329 10.2082 29.2776 10.107C28.7717 9.95524 29.1764 9.85407 30.1375 9.85407C31.0987 9.85407 31.5033 9.95524 31.0481 10.107ZM6.36244 12.2822C6.36244 13.0915 6.00835 13.2939 4.84489 13.2939C3.68142 13.2939 3.32733 13.0915 3.32733 12.2822C3.32733 11.4728 3.68142 11.2705 4.84489 11.2705C6.00835 11.2705 6.36244 11.4728 6.36244 12.2822ZM10.4093 12.2822C10.4093 13.0915 10.0552 13.2939 8.89171 13.2939C7.72825 13.2939 7.37415 13.0915 7.37415 12.2822C7.37415 11.4728 7.72825 11.2705 8.89171 11.2705C10.0552 11.2705 10.4093 11.4728 10.4093 12.2822ZM13.4444 12.2822C13.4444 12.9398 13.0903 13.2939 12.4327 13.2939C11.7751 13.2939 11.421 12.9398 11.421 12.2822C11.421 11.6246 11.7751 11.2705 12.4327 11.2705C13.0903 11.2705 13.4444 11.6246 13.4444 12.2822ZM20.5263 12.4845C20.5263 13.5468 20.2734 13.6986 18.7053 13.6986C17.3395 13.6986 17.0359 13.5468 17.5418 13.1927C18.0476 12.8386 17.9971 12.788 17.2383 13.0409C14.5067 14.0527 13.9502 13.9515 13.9502 12.5857C13.9502 11.321 14.0514 11.2705 17.2383 11.2705C20.3746 11.2705 20.5263 11.321 20.5263 12.4845ZM23.5614 12.2822C23.5614 12.9398 23.2073 13.2939 22.5497 13.2939C21.8921 13.2939 21.538 12.9398 21.538 12.2822C21.538 11.6246 21.8921 11.2705 22.5497 11.2705C23.2073 11.2705 23.5614 11.6246 23.5614 12.2822ZM27.6083 12.2822C27.6083 13.0915 27.2542 13.2939 26.0907 13.2939C24.9273 13.2939 24.5732 13.0915 24.5732 12.2822C24.5732 11.4728 24.9273 11.2705 26.0907 11.2705C27.2542 11.2705 27.6083 11.4728 27.6083 12.2822ZM31.6551 12.2822C31.6551 13.0915 31.301 13.2939 30.1375 13.2939C28.9741 13.2939 28.62 13.0915 28.62 12.2822C28.62 11.4728 28.9741 11.2705 30.1375 11.2705C31.301 11.2705 31.6551 11.4728 31.6551 12.2822ZM23.4603 14.255L27.6083 14.3056V16.329C27.6083 17.796 27.4059 18.3524 26.8495 18.3524C26.4448 18.3524 26.0907 18.0995 26.0907 17.8466C26.0907 17.543 25.7366 17.3407 25.3319 17.3407C24.9272 17.3407 24.5732 17.0878 24.5732 16.8348C24.5732 16.5313 21.8921 16.329 17.4912 16.329C13.0903 16.329 10.4093 16.5313 10.4093 16.8348C10.4093 17.0878 10.0552 17.3407 9.65049 17.3407C9.24581 17.3407 8.89171 17.543 8.89171 17.8466C8.89171 18.0995 8.53761 18.3524 8.13293 18.3524C7.57649 18.3524 7.37415 17.796 7.37415 16.329V14.3562L11.8257 14.2044C14.2538 14.1032 16.9348 14.1032 17.7441 14.1538C18.6041 14.2044 21.1334 14.255 23.4603 14.255ZM6.36244 16.329C6.36244 18.2512 6.26127 18.3524 4.84489 18.3524C3.4285 18.3524 3.32733 18.2512 3.32733 16.329C3.32733 14.4068 3.4285 14.3056 4.84489 14.3056C6.26127 14.3056 6.36244 14.4068 6.36244 16.329ZM31.6551 16.329C31.6551 18.2512 31.5539 18.3524 30.1375 18.3524C28.7211 18.3524 28.62 18.2512 28.62 16.329C28.62 14.4068 28.7211 14.3056 30.1375 14.3056C31.5539 14.3056 31.6551 14.4068 31.6551 16.329Z" fill="#0B9DBC"/>
</g>
</svg>
