<svg width="15" height="16" viewBox="0 0 15 16" fill="none" xmlns="http://www.w3.org/2000/svg">
<g id="&#240;&#159;&#166;&#134; icon &#34;LinkedIn&#34;">
<path id="Vector" d="M13.2367 0.207031H1.1773C0.62472 0.207031 0.175751 0.6935 0.175751 1.29068V14.1536C0.175751 14.7508 0.62472 15.2372 1.1773 15.2372H13.2367C13.7893 15.2372 14.2414 14.7508 14.2414 14.1536V1.29068C14.2414 0.6935 13.7893 0.207031 13.2367 0.207031ZM4.42683 13.0901H2.34211V5.91717H4.42997V13.0901H4.42683ZM3.38447 4.93752C2.71572 4.93752 2.1757 4.35711 2.1757 3.64586C2.1757 2.93461 2.71572 2.3542 3.38447 2.3542C4.05007 2.3542 4.59323 2.93461 4.59323 3.64586C4.59323 4.36047 4.05321 4.93752 3.38447 4.93752ZM12.2414 13.0901H10.1567V9.60091C10.1567 8.76888 10.141 7.69865 9.07351 7.69865C7.98719 7.69865 7.82079 8.60449 7.82079 9.54052V13.0901H5.73606V5.91717H7.73602V6.89681H7.76427C8.0437 6.33318 8.72501 5.73935 9.73911 5.73935C11.849 5.73935 12.2414 7.2256 12.2414 9.15805V13.0901Z" fill="black"/>
</g>
</svg>
