<svg width="12" height="13" viewBox="0 0 12 13" fill="none" xmlns="http://www.w3.org/2000/svg">
<path id="Vector" d="M10.8094 3.08897H1.875C1.66781 3.08897 1.5 2.89588 1.5 2.65747C1.5 2.41907 1.66781 2.22598 1.875 2.22598H10.875C11.0822 2.22598 11.25 2.03289 11.25 1.79448C11.25 1.07955 10.7463 0.5 10.125 0.5H1.5C0.671484 0.5 0 1.27265 0 2.22598V10.8559C0 11.8092 0.671484 12.5819 1.5 12.5819H10.8094C11.4661 12.5819 12 12.0012 12 11.2874V4.38345C12 3.6696 11.4661 3.08897 10.8094 3.08897ZM9.75 8.6984C9.33586 8.6984 9 8.31195 9 7.83541C9 7.35888 9.33586 6.97242 9.75 6.97242C10.1641 6.97242 10.5 7.35888 10.5 7.83541C10.5 8.31195 10.1641 8.6984 9.75 8.6984Z" fill="#0B9DBC"/>
</svg>
