<svg width="24" height="28" viewBox="0 0 24 28" fill="none" xmlns="http://www.w3.org/2000/svg">
<g id="Group">
<path id="Vector" d="M10.0587 12.7147C12.2557 12.7147 14.0367 11.05 14.0367 8.99657C14.0367 6.9431 12.2557 5.27844 10.0587 5.27844C7.86162 5.27844 6.08057 6.9431 6.08057 8.99657C6.08057 11.05 7.86162 12.7147 10.0587 12.7147Z" stroke="#767676" strokeLinecap="round" strokeLinejoin="round"/>
<path id="Vector_2" d="M18.0149 12.7148C15.0313 19.2216 10.0587 26.6578 10.0587 26.6578C10.0587 26.6578 5.08608 19.2216 2.10251 12.7148C-0.881056 6.20811 4.09155 0.63092 10.0587 0.63092C16.0258 0.63092 20.9984 6.20811 18.0149 12.7148Z" stroke="#767676" strokeLinecap="round" strokeLinejoin="round"/>
<path id="Vector_3" d="M19.2327 7.57779C21.4298 7.57779 23.2108 5.91313 23.2108 3.85967C23.2108 1.8062 21.4298 0.141541 19.2327 0.141541C17.0357 0.141541 15.2546 1.8062 15.2546 3.85967C15.2546 5.91313 17.0357 7.57779 19.2327 7.57779Z" fill="#BA1223"/>
</g>
</svg>
