<svg width="35" height="21" viewBox="0 0 35 21" fill="none" xmlns="http://www.w3.org/2000/svg">
<g id="mumbai">
<path id="Vector" d="M11.2994 1.68229C10.9482 2.38462 10.6974 3.48828 10.6974 4.14044C10.6974 4.84276 10.4465 5.39459 10.0954 5.39459C9.64387 5.39459 9.64387 5.54509 10.0954 5.99659C11.2994 7.20057 10.6472 7.40124 6.03191 7.40124H1.36645L1.56712 13.6218L1.76778 19.8926L0.0621341 20.0933C-0.840857 20.1936 6.98507 20.2939 17.4698 20.2939C27.9545 20.2939 35.7804 20.1936 34.9276 20.0933L33.2721 19.8926V15.478C33.2721 12.769 33.4728 10.9129 33.8741 10.5115C34.3256 10.06 34.3256 9.90955 33.8741 9.90955C33.523 9.90955 33.2721 9.55838 33.2721 9.15705C33.2721 8.75572 33.523 8.40456 33.824 8.40456C34.0748 8.40456 34.1751 8.15373 34.0246 7.9029C33.8741 7.6019 31.717 7.40124 29.2087 7.40124C24.7941 7.40124 24.1921 7.15041 25.3459 5.99659C25.7974 5.54509 25.7974 5.39459 25.3459 5.39459C24.9947 5.39459 24.7439 4.84276 24.7439 4.1906C24.7439 3.53844 24.4429 2.43479 24.0917 1.68229L23.3894 0.377974L22.8376 1.68229C22.4864 2.38462 22.2356 3.23745 22.2356 3.63877C22.2356 4.24077 21.3326 4.39127 17.7206 4.39127C14.209 4.39127 13.2057 4.24077 13.2057 3.68894C13.2057 3.33778 12.9047 2.43479 12.5535 1.68229L11.8512 0.377974L11.2994 1.68229ZM12.704 4.39127C12.704 4.9431 12.3528 5.39459 11.9515 5.39459C11.5502 5.39459 11.199 4.9431 11.199 4.39127C11.199 3.83944 11.5502 3.38795 11.9515 3.38795C12.3528 3.38795 12.704 3.83944 12.704 4.39127ZM23.7406 4.39127C23.7406 4.9431 23.5399 5.39459 23.2389 5.39459C22.9881 5.39459 22.7372 4.9431 22.7372 4.39127C22.7372 3.83944 22.9881 3.38795 23.2389 3.38795C23.5399 3.38795 23.7406 3.83944 23.7406 4.39127ZM20.1286 5.24409C18.7741 5.34443 16.6671 5.34443 15.3628 5.24409C14.0083 5.14376 15.112 5.09359 17.7206 5.09359C20.3293 5.09359 21.4329 5.14376 20.1286 5.24409ZM12.704 6.89958C12.704 7.15041 12.3528 7.40124 11.9515 7.40124C11.5502 7.40124 11.199 7.15041 11.199 6.89958C11.199 6.59858 11.5502 6.39791 11.9515 6.39791C12.3528 6.39791 12.704 6.59858 12.704 6.89958ZM22.2356 6.89958C22.2356 7.20057 20.3794 7.40124 17.7206 7.40124C15.0618 7.40124 13.2057 7.20057 13.2057 6.89958C13.2057 6.59858 15.0618 6.39791 17.7206 6.39791C20.3794 6.39791 22.2356 6.59858 22.2356 6.89958ZM10.1957 9.15705C10.1957 9.75905 9.44321 9.90955 6.43324 9.90955C3.42327 9.90955 2.67078 9.75905 2.67078 9.15705C2.67078 8.55506 3.42327 8.40456 6.43324 8.40456C9.44321 8.40456 10.1957 8.55506 10.1957 9.15705ZM24.2422 9.15705C24.2422 9.80921 23.1887 9.90955 17.7206 9.90955C12.2525 9.90955 11.199 9.80921 11.199 9.15705C11.199 8.50489 12.2525 8.40456 17.7206 8.40456C23.1887 8.40456 24.2422 8.50489 24.2422 9.15705ZM32.7705 9.15705C32.7705 9.75905 32.018 9.90955 29.008 9.90955C25.998 9.90955 25.2456 9.75905 25.2456 9.15705C25.2456 8.55506 25.998 8.40456 29.008 8.40456C32.018 8.40456 32.7705 8.55506 32.7705 9.15705ZM10.1957 11.4145C10.1957 11.7155 8.59038 11.9162 6.43324 11.9162C4.27609 11.9162 2.67078 11.7155 2.67078 11.4145C2.67078 11.1135 4.27609 10.9129 6.43324 10.9129C8.59038 10.9129 10.1957 11.1135 10.1957 11.4145ZM13.2057 15.4278C13.2057 19.8926 13.2057 19.9428 11.9515 19.9428C10.6974 19.9428 10.6974 19.8926 10.6974 15.4278C10.6974 10.963 10.6974 10.9129 11.9515 10.9129C13.2057 10.9129 13.2057 10.963 13.2057 15.4278ZM16.8176 11.264C15.7641 11.6654 14.51 14.575 14.1588 17.4345C13.908 19.8926 13.8578 19.6418 13.7575 15.5282L13.7073 10.9129L15.6136 10.963C16.617 10.963 17.1688 11.1135 16.8176 11.264ZM21.6336 15.5282C21.5834 18.0866 21.4831 19.1903 21.3828 17.9361C21.1821 15.4278 20.5299 13.7222 19.0249 12.0165L18.0718 10.9129H19.8778H21.7339L21.6336 15.5282ZM24.7439 15.4278C24.7439 19.8926 24.7439 19.9428 23.4897 19.9428C22.2356 19.9428 22.2356 19.8926 22.2356 15.4278C22.2356 10.963 22.2356 10.9129 23.4897 10.9129C24.7439 10.9129 24.7439 10.963 24.7439 15.4278ZM32.7705 11.4145C32.7705 11.7155 31.1652 11.9162 29.008 11.9162C26.8509 11.9162 25.2456 11.7155 25.2456 11.4145C25.2456 11.1135 26.8509 10.9129 29.008 10.9129C31.1652 10.9129 32.7705 11.1135 32.7705 11.4145ZM19.5768 13.9228C19.9279 14.876 20.1788 16.6318 20.1788 17.7856L20.2289 19.9428H17.4698H14.7107V17.9361C14.7107 15.0265 16.4163 11.8159 17.8711 12.0165C18.6236 12.1169 19.1754 12.7189 19.5768 13.9228ZM4.97842 13.5717C3.9751 14.575 3.8246 15.1268 4.07543 17.3341C4.27609 19.4913 4.17576 19.9428 3.47343 19.9428C2.82127 19.9428 2.67078 19.3408 2.67078 16.1803V12.4179H4.42659H6.13224L4.97842 13.5717ZM10.1957 16.1803C10.1957 19.2405 10.0452 19.9428 9.39304 19.9428C8.79105 19.9428 8.64055 19.391 8.74088 17.1335C8.84121 14.6753 8.69072 14.1235 7.73756 13.371L6.58374 12.4179H8.38972H10.1957V16.1803ZM27.7037 13.371C26.7505 14.1235 26.6 14.6753 26.7004 17.1335C26.8007 19.391 26.6502 19.9428 26.0482 19.9428C25.3961 19.9428 25.2456 19.2405 25.2456 16.1803V12.4179H27.0515H28.8575L27.7037 13.371ZM32.7705 16.1803C32.7705 19.2405 32.62 19.9428 31.9678 19.9428C31.3658 19.9428 31.2153 19.391 31.3157 17.1335C31.416 14.6753 31.2655 14.1235 30.3123 13.371L29.1585 12.4179H30.9645H32.7705V16.1803ZM6.73423 14.8258C5.32958 15.0265 4.72759 14.5248 5.68075 13.9228C6.13224 13.6218 6.68407 13.7222 7.13556 14.0733C7.73756 14.575 7.68739 14.7255 6.73423 14.8258ZM29.309 14.8258C27.9044 15.0265 27.3024 14.5248 28.2555 13.9228C28.707 13.6218 29.2588 13.7222 29.7103 14.0733C30.3123 14.575 30.2622 14.7255 29.309 14.8258ZM7.68739 17.9361C7.68739 19.7421 7.58706 19.9428 6.43324 19.9428C5.32958 19.9428 5.17908 19.7421 5.17908 17.9361C5.17908 16.1302 5.32958 15.9295 6.43324 15.9295C7.58706 15.9295 7.68739 16.1302 7.68739 17.9361ZM30.2622 17.9361C30.2622 19.7421 30.1618 19.9428 29.008 19.9428C27.9044 19.9428 27.7539 19.7421 27.7539 17.9361C27.7539 16.1302 27.9044 15.9295 29.008 15.9295C30.1618 15.9295 30.2622 16.1302 30.2622 17.9361Z" fill="#0B9DBC"/>
</g>
</svg>
