<svg width="23" height="25" viewBox="0 0 23 25" fill="none" xmlns="http://www.w3.org/2000/svg">
<path id="Vector" d="M21.8647 15.6443L19.5742 13.3537V10.3194C19.5716 8.22253 18.7915 6.20108 17.3849 4.64596C15.9783 3.09084 14.045 2.11253 11.9588 1.9002V0.165588H10.2665V1.9002C8.18039 2.11253 6.24708 3.09084 4.84044 4.64596C3.43381 6.20108 2.65376 8.22253 2.65113 10.3194V13.3537L0.360594 15.6443C0.201898 15.8029 0.112719 16.0181 0.112671 16.2425V18.781C0.112671 19.0054 0.201819 19.2206 0.360504 19.3793C0.519188 19.538 0.734411 19.6271 0.958825 19.6271H6.8819V20.2846C6.8635 21.358 7.24186 22.4005 7.94449 23.2123C8.64712 24.0241 9.62459 24.548 10.6896 24.6837C11.2778 24.7421 11.8717 24.6766 12.4332 24.4917C12.9946 24.3067 13.5111 24.0062 13.9494 23.6097C14.3878 23.2131 14.7382 22.7291 14.9783 22.189C15.2184 21.6488 15.3428 21.0644 15.3434 20.4733V19.6271H21.2665C21.4909 19.6271 21.7062 19.538 21.8648 19.3793C22.0235 19.2206 22.1127 19.0054 22.1127 18.781V16.2425C22.1126 16.0181 22.0234 15.8029 21.8647 15.6443ZM13.6511 20.4733C13.6511 21.1465 13.3837 21.7922 12.9076 22.2682C12.4316 22.7443 11.7859 23.0117 11.1127 23.0117C10.4394 23.0117 9.79376 22.7443 9.31771 22.2682C8.84165 21.7922 8.57421 21.1465 8.57421 20.4733V19.6271H13.6511V20.4733ZM20.4204 17.9348H1.80498V16.5928L4.09552 14.3023C4.25421 14.1436 4.34339 13.9284 4.34344 13.7041V10.3194C4.34344 8.52412 5.05662 6.80234 6.3261 5.53287C7.59558 4.26339 9.31736 3.5502 11.1127 3.5502C12.908 3.5502 14.6298 4.26339 15.8992 5.53287C17.1687 6.80234 17.8819 8.52412 17.8819 10.3194V13.7041C17.882 13.9284 17.9711 14.1436 18.1298 14.3023L20.4204 16.5928V17.9348Z" fill="#767676"/>
</svg>
