<svg width="25" height="24" viewBox="0 0 25 24" fill="none" xmlns="http://www.w3.org/2000/svg">
<g id="lni_lni-offer" clip-path="url(#clip0_75_813)">
<g id="Group">
<path id="Vector" d="M23.312 10.125L22.412 9.41249C22.187 9.22499 22.112 8.96249 22.1495 8.7L22.4495 7.61249C22.637 6.93749 22.487 6.22499 22.0745 5.62499C21.6245 5.02499 20.9495 4.64999 20.1995 4.61249L19.037 4.5375C18.737 4.5375 18.437 4.34999 18.362 4.08749L17.9495 3.07499C17.687 2.43749 17.1245 1.91249 16.4495 1.68749C15.737 1.46249 14.987 1.53749 14.3495 1.91249L13.3745 2.51249C13.112 2.66249 12.7745 2.66249 12.4745 2.51249L11.4995 1.91249C10.862 1.53749 10.112 1.42499 9.39948 1.68749C8.72448 1.91249 8.16198 2.39999 7.89948 3.07499L7.41198 4.12499C7.29948 4.3875 7.03698 4.57499 6.73698 4.57499L5.57448 4.64999C4.82448 4.68749 4.11198 5.06249 3.69948 5.66249C3.28698 6.22499 3.13698 6.97499 3.32448 7.64999L3.62448 8.73749C3.69948 8.99999 3.58698 9.2625 3.36198 9.45L2.46198 10.125C1.86198 10.575 1.56198 11.25 1.56198 12C1.56198 12.7125 1.89948 13.3875 2.46198 13.875L3.36198 14.5875C3.58698 14.775 3.69948 15.0375 3.62448 15.3L3.32448 16.3875C3.13698 17.0625 3.28698 17.775 3.69948 18.375C4.14948 18.975 4.82448 19.35 5.57448 19.3875L6.73698 19.4625C7.03698 19.4625 7.33698 19.65 7.41198 19.9125L7.82448 20.925C8.08698 21.5625 8.64948 22.0875 9.32448 22.3125C10.037 22.5375 10.787 22.4625 11.4245 22.0875L12.3995 21.4875C12.662 21.3375 12.9995 21.3375 13.2995 21.4875L14.2745 22.0875C14.687 22.3125 15.137 22.4625 15.587 22.4625C15.8495 22.4625 16.112 22.425 16.3745 22.35C17.0495 22.125 17.612 21.6375 17.8745 20.9625L18.287 19.95C18.3995 19.6875 18.662 19.5 18.962 19.5L20.1245 19.425C20.8745 19.3875 21.587 19.0125 21.9995 18.4125C22.412 17.85 22.562 17.1 22.3745 16.425L22.0745 15.3375C21.9995 15.075 22.112 14.8125 22.337 14.625L23.237 13.9125C23.837 13.4625 24.137 12.7875 24.137 12.0375C24.2495 11.2875 23.912 10.6125 23.312 10.125ZM22.262 12.525L21.362 13.2375C20.612 13.8375 20.2745 14.8125 20.537 15.7125L20.837 16.8C20.912 17.0625 20.7995 17.25 20.7245 17.3625C20.5745 17.55 20.3495 17.6625 20.1245 17.7L18.962 17.775C18.0245 17.8125 17.162 18.4125 16.8245 19.275L16.3745 20.25C16.262 20.5125 16.037 20.625 15.887 20.6625C15.662 20.7375 15.3995 20.7 15.1745 20.5875L14.1995 19.9875C13.787 19.7625 13.337 19.6125 12.887 19.6125C12.437 19.6125 11.987 19.725 11.5745 19.9875L10.5995 20.5875C10.3745 20.7 10.112 20.7375 9.88698 20.6625C9.77448 20.625 9.51198 20.5125 9.39948 20.25L8.98698 19.2375C8.64948 18.375 7.78698 17.775 6.84948 17.7375L5.68698 17.6625C5.42448 17.6625 5.19948 17.5125 5.08698 17.325C5.01198 17.2125 4.89948 17.025 4.97448 16.7625L5.27448 15.675C5.53698 14.775 5.19948 13.8 4.44948 13.2L3.51198 12.525C3.32448 12.375 3.24948 12.1875 3.24948 12C3.24948 11.775 3.36198 11.5875 3.51198 11.475L4.41198 10.7625C5.16198 10.1625 5.49948 9.18749 5.23698 8.28749L4.93698 7.2C4.86198 6.9375 4.97448 6.75 5.04948 6.6375C5.19948 6.45 5.42448 6.33749 5.64948 6.29999L6.81198 6.22499C7.74948 6.18749 8.61198 5.58749 8.94948 4.72499L9.36198 3.71249C9.51198 3.48749 9.73698 3.37499 9.88698 3.33749C10.112 3.26249 10.3745 3.3 10.5995 3.4125L11.5745 4.01249C12.362 4.49999 13.412 4.49999 14.1995 4.01249L15.1745 3.4125C15.3995 3.3 15.662 3.26249 15.887 3.33749C15.9995 3.37499 16.262 3.48749 16.3745 3.74999L16.787 4.76249C17.1245 5.62499 17.987 6.225 18.9245 6.2625L20.087 6.33749C20.3495 6.33749 20.5745 6.48749 20.687 6.67499C20.762 6.78749 20.8745 6.97499 20.7995 7.23749L20.4995 8.325C20.237 9.225 20.5745 10.2 21.3245 10.8L22.2245 11.5125C22.412 11.6625 22.487 11.85 22.487 12.0375C22.562 12.225 22.4495 12.4125 22.262 12.525Z" fill="white"/>
<path id="Vector_2" d="M16.337 8.55C15.9995 8.2125 15.4745 8.2125 15.137 8.55L9.43699 14.25C9.09949 14.5875 9.09949 15.1125 9.43699 15.45C9.58699 15.6 9.81199 15.7125 10.037 15.7125C10.262 15.7125 10.487 15.6375 10.637 15.45L16.337 9.75C16.6745 9.4125 16.6745 8.85 16.337 8.55Z" fill="white"/>
<path id="Vector_3" d="M11.837 10.9125C12.737 10.0125 12.737 8.58748 11.837 7.68748C11.4245 7.27498 10.8245 7.01248 10.2245 7.01248C9.62448 7.01248 9.06198 7.23748 8.61198 7.68748C7.71198 8.58748 7.71198 10.0125 8.61198 10.9125C9.02448 11.325 9.62448 11.5875 10.2245 11.5875C10.8245 11.5875 11.387 11.3625 11.837 10.9125ZM9.81198 8.92498C9.92448 8.81248 10.0745 8.73748 10.2245 8.73748C10.3745 8.73748 10.5245 8.81248 10.637 8.92498C10.862 9.14998 10.862 9.52498 10.637 9.74998C10.412 9.97498 10.037 9.97498 9.81198 9.74998C9.58698 9.52498 9.58698 9.14998 9.81198 8.92498Z" fill="white"/>
<path id="Vector_4" d="M13.8245 12.9375C13.412 13.35 13.1495 13.95 13.1495 14.55C13.1495 15.15 13.3745 15.7125 13.8245 16.1625C14.2745 16.6125 14.837 16.8375 15.437 16.8375C16.037 16.8375 16.5995 16.6125 17.0495 16.1625C17.462 15.75 17.7245 15.15 17.7245 14.55C17.7245 13.95 17.4995 13.3875 17.0495 12.9375C16.1495 12.0375 14.7245 12.0375 13.8245 12.9375ZM15.8495 14.9625C15.6245 15.1875 15.2495 15.1875 15.0245 14.9625C14.912 14.85 14.837 14.7 14.837 14.55C14.837 14.4 14.912 14.25 15.0245 14.1375C15.137 14.025 15.287 13.95 15.437 13.95C15.587 13.95 15.737 14.025 15.8495 14.1375C15.962 14.25 16.037 14.4 16.037 14.55C16.037 14.7 15.962 14.85 15.8495 14.9625Z" fill="white"/>
</g>
</g>
<defs>
<clipPath id="clip0_75_813">
<rect width="24" height="24" fill="white" transform="translate(0.886993)"/>
</clipPath>
</defs>
</svg>
