<svg width="30" height="31" viewBox="0 0 30 31" fill="none" xmlns="http://www.w3.org/2000/svg">
<g id="solar:phone-bold">
<path id="Vector" d="M20.6951 16.4626L20.1263 17.0288C20.1263 17.0288 18.7726 18.3738 15.0788 14.7013C11.3851 11.0288 12.7388 9.6838 12.7388 9.6838L13.0963 9.3263C13.9801 8.4488 14.0638 7.0388 13.2926 6.0088L11.7176 3.90505C10.7626 2.63005 8.91884 2.4613 7.82509 3.5488L5.86259 5.4988C5.32134 6.0388 4.95884 6.7363 5.00259 7.5113C5.11509 9.49505 6.01259 13.7613 11.0176 18.7388C16.3263 24.0163 21.3076 24.2263 23.3438 24.0363C23.9888 23.9763 24.5488 23.6488 25.0001 23.1988L26.7751 21.4338C27.9751 20.2426 27.6376 18.1988 26.1026 17.3651L23.7151 16.0663C22.7076 15.5188 21.4826 15.6801 20.6951 16.4626Z" fill="#0B9DBC"/>
</g>
</svg>
