<svg width="72" height="72" viewBox="0 0 72 72" fill="none" xmlns="http://www.w3.org/2000/svg">
<g id="ic:outline-local-offer">
<path id="Vector" d="M7.77 34.74L34.77 7.74C35.85 6.66 37.35 6 39 6H60C63.3 6 66 8.7 66 12V33C66 34.65 65.34 36.15 64.23 37.26L37.23 64.26C36.15 65.34 34.65 66 33 66C31.35 66 29.85 65.34 28.77 64.23L7.77 43.23C6.66 42.15 6 40.65 6 39C6 37.35 6.69 35.82 7.77 34.74ZM33 60.03L60 33V12H39V11.97L12 38.97L33 60.03Z" fill="#545454"/>
<path id="Vector_2" d="M52.5 24C50.0147 24 48 21.9853 48 19.5C48 17.0147 50.0147 15 52.5 15C54.9853 15 57 17.0147 57 19.5C57 21.9853 54.9853 24 52.5 24Z" fill="#545454"/>
</g>
</svg>
