<svg width="35" height="17" viewBox="0 0 35 17" fill="none" xmlns="http://www.w3.org/2000/svg">
<g id="Pune">
<path id="Vector" d="M11.6425 1.33031C10.5373 2.25136 10.2609 3.21847 11.0438 3.21847C11.3202 3.21847 11.5044 3.72505 11.5044 4.36978C11.5044 5.38294 11.3662 5.47505 10.1228 5.24478C8.14253 4.83031 6.48463 5.38294 5.88595 6.67241C5.47147 7.54741 5.01095 7.82373 3.81358 7.82373H2.29384V11.7382C2.29384 15.6066 2.29384 15.6527 1.14253 15.6527C0.49779 15.6527 -0.00878906 15.8369 -0.00878906 16.1132C-0.00878906 16.3895 6.11621 16.5737 17.4912 16.5737C28.8662 16.5737 34.9912 16.3895 34.9912 16.1132C34.9912 15.8369 34.4846 15.6527 33.8399 15.6527C32.6886 15.6527 32.6886 15.6066 32.6886 11.7382V7.82373H31.1688C29.9715 7.82373 29.4649 7.54741 29.0044 6.67241C28.3136 5.38294 26.932 4.87636 24.8596 5.15268C23.6623 5.33689 23.4781 5.19873 23.4781 4.27768C23.4781 3.67899 23.7083 3.21847 23.9386 3.21847C24.7215 3.21847 24.4452 2.25136 23.3859 1.33031C22.5109 0.63952 21.5438 0.501362 17.4912 0.501362C13.4386 0.501362 12.4715 0.63952 11.6425 1.33031ZM23.0175 2.06715C23.432 2.52768 23.432 2.75794 23.0636 2.75794C22.6952 2.75794 22.557 4.7382 22.557 9.20531V15.6527H21.4057C20.3004 15.6527 20.2544 15.5145 20.2544 13.1198C20.2544 11.1856 20.0241 10.3566 19.3333 9.66584C17.1688 7.50136 14.7281 9.34347 14.7281 13.2119C14.7281 15.5145 14.682 15.6527 13.5767 15.6527H12.4254V10.5408C12.4254 7.2711 12.6096 5.56715 12.8859 5.75136C13.1623 5.88952 13.3465 6.44215 13.3465 6.94873C13.3465 8.69873 14.2215 7.77768 14.5438 5.70531C14.9123 3.17241 14.1754 1.97505 13.0702 3.40268C12.5175 4.18557 12.4254 4.23163 12.4254 3.54084C12.4254 3.12636 12.1952 2.75794 11.9188 2.75794C11.5504 2.75794 11.5504 2.52768 11.9649 2.06715C12.4254 1.51452 13.6688 1.37636 17.4912 1.37636C21.3136 1.37636 22.557 1.51452 23.0175 2.06715ZM8.74121 10.5869V15.6527H7.5899C6.43858 15.6527 6.43858 15.6527 6.43858 11.3237C6.43858 7.31715 6.53068 6.90268 7.45174 6.25794C8.00437 5.84347 8.557 5.5211 8.60305 5.5211C8.69516 5.5211 8.74121 7.77768 8.74121 10.5869ZM11.4123 11.2316L11.5504 15.6527H10.3531H9.20174V10.5408V5.42899L10.2609 6.07373C11.182 6.71847 11.2741 7.22505 11.4123 11.2316ZM25.3202 10.8172C25.3202 15.3303 25.2741 15.6527 24.3991 15.6527C23.5241 15.6527 23.4781 15.3303 23.4781 11.3698C23.4781 7.3632 23.8465 5.98163 24.9517 5.98163C25.1359 5.98163 25.3202 8.1461 25.3202 10.8172ZM27.9912 6.53426C28.3596 6.90268 28.5438 8.65268 28.5438 11.3698C28.5438 15.6527 28.5438 15.6527 27.3925 15.6527H26.2412V10.8172C26.2412 5.88952 26.5636 5.10663 27.9912 6.53426ZM4.182 9.75794L4.27411 10.8172L4.45832 9.75794C4.73463 8.28426 5.51753 8.51452 5.51753 10.1264C5.51753 11.2777 5.33332 11.5079 4.36621 11.5079C3.39911 11.5079 3.2149 11.2777 3.2149 10.1264C3.2149 8.51452 4.0899 8.2382 4.182 9.75794ZM30.432 9.75794L30.5241 10.8172L30.7083 9.75794C30.9846 8.28426 31.7675 8.51452 31.7675 10.1264C31.7675 11.2777 31.5833 11.5079 30.6162 11.5079C29.6491 11.5079 29.4649 11.2777 29.4649 10.1264C29.4649 8.51452 30.3399 8.2382 30.432 9.75794ZM19.3333 13.1198V16.1132H17.4912H15.6491V13.1198C15.6491 10.4027 15.7412 10.0343 16.7083 9.71189C18.6425 8.97505 19.3333 9.85005 19.3333 13.1198ZM5.51753 13.8106C5.51753 15.4685 5.42542 15.6527 4.36621 15.6527C3.35305 15.6527 3.2149 15.4685 3.2149 13.8106C3.2149 12.1527 3.35305 11.9685 4.36621 11.9685C5.42542 11.9685 5.51753 12.1527 5.51753 13.8106ZM31.7675 13.8106C31.7675 15.4685 31.6754 15.6527 30.6162 15.6527C29.6031 15.6527 29.4649 15.4685 29.4649 13.8106C29.4649 12.1527 29.6031 11.9685 30.6162 11.9685C31.6754 11.9685 31.7675 12.1527 31.7675 13.8106Z" fill="#0B9DBC"/>
<path id="Vector_2" d="M15.4187 3.26461C15.0042 3.90935 15.6029 7.82382 16.1095 7.82382C16.3398 7.82382 16.57 7.36329 16.6621 6.76461C16.8464 5.38303 18.0437 5.47514 18.4582 6.90277C18.7345 7.91593 18.7806 7.96198 18.8266 7.08698C18.8727 6.07382 19.8858 5.33698 20.4385 5.84356C20.5766 6.02777 20.7148 6.53435 20.7148 6.99487C20.7148 8.69882 21.5898 7.77777 21.9121 5.7054C22.2345 3.40277 21.6819 2.25145 20.6227 3.12645C20.2082 3.44882 19.7477 3.44882 19.3332 3.21856C18.9187 2.98829 18.4582 2.98829 18.0437 3.31066C17.6292 3.67908 17.3069 3.67908 16.9385 3.31066C16.2477 2.61987 15.7871 2.61987 15.4187 3.26461Z" fill="#0B9DBC"/>
<path id="Vector_3" d="M6.89917 7.82382C6.89917 8.3304 7.12943 8.74487 7.3597 8.74487C7.63601 8.74487 7.82022 8.3304 7.82022 7.82382C7.82022 7.31724 7.63601 6.90277 7.3597 6.90277C7.12943 6.90277 6.89917 7.31724 6.89917 7.82382Z" fill="#0B9DBC"/>
<path id="Vector_4" d="M10.1228 7.82382C10.1228 8.3304 10.3531 8.74487 10.5833 8.74487C10.8596 8.74487 11.0439 8.3304 11.0439 7.82382C11.0439 7.31724 10.8596 6.90277 10.5833 6.90277C10.3531 6.90277 10.1228 7.31724 10.1228 7.82382Z" fill="#0B9DBC"/>
<path id="Vector_5" d="M23.9385 7.82382C23.9385 8.3304 24.1687 8.74487 24.399 8.74487C24.6753 8.74487 24.8595 8.3304 24.8595 7.82382C24.8595 7.31724 24.6753 6.90277 24.399 6.90277C24.1687 6.90277 23.9385 7.31724 23.9385 7.82382Z" fill="#0B9DBC"/>
<path id="Vector_6" d="M27.1624 7.82382C27.1624 8.3304 27.3926 8.74487 27.6229 8.74487C27.8992 8.74487 28.0834 8.3304 28.0834 7.82382C28.0834 7.31724 27.8992 6.90277 27.6229 6.90277C27.3926 6.90277 27.1624 7.31724 27.1624 7.82382Z" fill="#0B9DBC"/>
</g>
</svg>
