<svg width="20" height="24" viewBox="0 0 20 24" fill="none" xmlns="http://www.w3.org/2000/svg">
<g id="Group 12">
<path id="Vector" d="M9.97946 0.067749L0.0273438 3.40108V13.4011C0.0273438 18.9245 4.48247 23.4011 9.97946 23.4011C15.4765 23.4011 19.9316 18.9245 19.9316 13.4011V3.40108L9.97946 0.067749ZM18.0656 13.4011C18.0656 17.8881 14.445 21.5261 9.97946 21.5261C5.51397 21.5261 1.89337 17.8881 1.89337 13.4011V4.80733L9.97946 1.94275L18.0656 4.80733V13.4011Z" fill="#333333"/>
<path id="Vector_2" d="M5.60156 10.0123C5.51509 9.92497 5.4123 9.8557 5.29911 9.80844C5.18592 9.76118 5.06455 9.73685 4.94198 9.73685C4.8194 9.73685 4.69803 9.76118 4.58484 9.80844C4.47165 9.8557 4.36887 9.92497 4.28239 10.0123C4.19552 10.0992 4.12659 10.2024 4.07955 10.3162C4.03251 10.4299 4.0083 10.5519 4.0083 10.675C4.0083 10.7982 4.03251 10.9201 4.07955 11.0339C4.12659 11.1476 4.19552 11.2509 4.28239 11.3378L7.63605 14.7076L7.69047 14.7623C7.77227 14.8446 7.86943 14.9099 7.97638 14.9545C8.08333 14.9991 8.19799 15.022 8.31378 15.022C8.42956 15.022 8.54422 14.9991 8.65117 14.9545C8.75812 14.9099 8.85528 14.8446 8.93708 14.7623L14.7295 8.94195C14.8115 8.85975 14.8765 8.76213 14.9208 8.65466C14.9652 8.54719 14.988 8.43199 14.988 8.31564C14.988 8.1993 14.9652 8.08409 14.9208 7.97663C14.8765 7.86916 14.8115 7.77153 14.7295 7.68934L14.657 7.61643C14.5752 7.53408 14.478 7.46875 14.371 7.42418C14.2641 7.3796 14.1494 7.35666 14.0337 7.35666C13.9179 7.35666 13.8032 7.3796 13.6963 7.42418C13.5893 7.46875 13.4921 7.53408 13.4103 7.61643L8.31248 12.7362L5.60156 10.0123Z" fill="#333333"/>
</g>
</svg>
