<svg width="23" height="23" viewBox="0 0 23 23" fill="none" xmlns="http://www.w3.org/2000/svg">
<path id="Vector" d="M22.6296 20.5095L15.4879 13.3678C16.5961 11.935 17.1956 10.1833 17.1956 8.34078C17.1956 6.13529 16.3349 4.0673 14.7784 2.50806C13.2219 0.948816 11.1484 0.0908203 8.94564 0.0908203C6.7429 0.0908203 4.66941 0.951566 3.11292 2.50806C1.55367 4.06455 0.695679 6.13529 0.695679 8.34078C0.695679 10.5435 1.55642 12.617 3.11292 14.1735C4.66941 15.7328 6.74015 16.5907 8.94564 16.5907C10.7881 16.5907 12.5371 15.9913 13.9699 14.8858L21.1116 22.0247C21.1325 22.0457 21.1574 22.0623 21.1848 22.0736C21.2121 22.085 21.2415 22.0908 21.2711 22.0908C21.3007 22.0908 21.33 22.085 21.3574 22.0736C21.3848 22.0623 21.4096 22.0457 21.4306 22.0247L22.6296 20.8285C22.6505 20.8075 22.6672 20.7827 22.6785 20.7553C22.6898 20.7279 22.6957 20.6986 22.6957 20.669C22.6957 20.6394 22.6898 20.61 22.6785 20.5827C22.6672 20.5553 22.6505 20.5304 22.6296 20.5095ZM13.3016 12.6968C12.1356 13.86 10.5901 14.5008 8.94564 14.5008C7.30115 14.5008 5.75566 13.86 4.58966 12.6968C3.42642 11.5308 2.78567 9.98528 2.78567 8.34078C2.78567 6.69629 3.42642 5.14805 4.58966 3.9848C5.75566 2.82156 7.30115 2.18081 8.94564 2.18081C10.5901 2.18081 12.1384 2.81881 13.3016 3.9848C14.4649 5.1508 15.1056 6.69629 15.1056 8.34078C15.1056 9.98528 14.4649 11.5335 13.3016 12.6968Z" fill="#767676"/>
</svg>
