<svg width="36" height="36" viewBox="0 0 36 36" fill="none" xmlns="http://www.w3.org/2000/svg">
<g id="mdi:seat-passenger">
<path id="Vector" d="M13.8578 28.3682H22.6078V31.2849H13.8578C9.8328 31.2849 6.56613 28.0182 6.56613 23.9932V10.8682H9.4828V23.9932C9.4828 26.4141 11.437 28.3682 13.8578 28.3682ZM15.9286 8.54949C17.0661 7.41199 17.0661 5.55991 15.9286 4.42241C14.7911 3.28491 12.939 3.28491 11.8015 4.42241C10.664 5.55991 10.664 7.41199 11.8015 8.54949C12.939 9.70158 14.7765 9.70158 15.9286 8.54949ZM17.5036 13.7849C17.5036 12.1807 16.1911 10.8682 14.587 10.8682H13.8578C12.2536 10.8682 10.9411 12.1807 10.9411 13.7849V22.5349C10.9411 24.9557 12.8953 26.9099 15.3161 26.9099H22.7099L27.814 32.0141L29.8995 29.9287L22.5057 22.5349H17.5036V13.7849Z" fill="#0B9DBC"/>
</g>
</svg>
