<svg width="21" height="21" viewBox="0 0 21 21" fill="none" xmlns="http://www.w3.org/2000/svg">
<path id="Vector" d="M1.10548 9.02971C0.885943 9.02971 0.675396 8.9444 0.520159 8.79253C0.364922 8.64066 0.27771 8.43468 0.27771 8.2199V1.74304C0.27771 1.52826 0.364922 1.32228 0.520159 1.17042C0.675396 1.01855 0.885943 0.933228 1.10548 0.933228H7.72766C7.9472 0.933228 8.15774 1.01855 8.31298 1.17042C8.46822 1.32228 8.55543 1.52826 8.55543 1.74304V8.2199C8.55543 8.43468 8.46822 8.64066 8.31298 8.79253C8.15774 8.9444 7.9472 9.02971 7.72766 9.02971H1.10548ZM12.6943 9.02971C12.4747 9.02971 12.2642 8.9444 12.109 8.79253C11.9537 8.64066 11.8665 8.43468 11.8665 8.2199V1.74304C11.8665 1.52826 11.9537 1.32228 12.109 1.17042C12.2642 1.01855 12.4747 0.933228 12.6943 0.933228H19.3148C19.5343 0.933228 19.7449 1.01855 19.9001 1.17042C20.0554 1.32228 20.1426 1.52826 20.1426 1.74304V8.2199C20.1426 8.43468 20.0554 8.64066 19.9001 8.79253C19.7449 8.9444 19.5343 9.02971 19.3148 9.02971H12.6943ZM1.10548 20.3671C0.885943 20.3671 0.675396 20.2817 0.520159 20.1299C0.364922 19.978 0.27771 19.772 0.27771 19.5573V13.0788C0.27771 12.864 0.364922 12.658 0.520159 12.5061C0.675396 12.3543 0.885943 12.269 1.10548 12.269H7.72766C7.9472 12.269 8.15774 12.3543 8.31298 12.5061C8.46822 12.658 8.55543 12.864 8.55543 13.0788V19.5573C8.55543 19.772 8.46822 19.978 8.31298 20.1299C8.15774 20.2817 7.9472 20.3671 7.72766 20.3671H1.10548ZM12.6943 20.3671C12.4747 20.3671 12.2642 20.2817 12.109 20.1299C11.9537 19.978 11.8665 19.772 11.8665 19.5573V13.0788C11.8665 12.864 11.9537 12.658 12.109 12.5061C12.2642 12.3543 12.4747 12.269 12.6943 12.269H19.3148C19.5343 12.269 19.7449 12.3543 19.9001 12.5061C20.0554 12.658 20.1426 12.864 20.1426 13.0788V19.5573C20.1426 19.772 20.0554 19.978 19.9001 20.1299C19.7449 20.2817 19.5343 20.3671 19.3148 20.3671H12.6943Z" fill="#767676"/>
</svg>
