<svg width="26" height="28" viewBox="0 0 26 28" fill="none" xmlns="http://www.w3.org/2000/svg">
<path id="Vector" fillRule="evenodd" clip-rule="evenodd" d="M4.93294 0.260742C4.99533 0.260794 5.05773 0.260794 5.12012 0.260742C5.62397 0.260742 6.01243 0.260742 6.35602 0.328691C7.03966 0.46482 7.6676 0.800546 8.1605 1.29344C8.65339 1.78634 8.98912 2.41428 9.12525 3.09792C9.1932 3.44151 9.1932 3.82997 9.1932 4.33382V4.74792H17.5265V4.33382C17.5265 3.82997 17.5265 3.44151 17.5945 3.0992C17.7304 2.41533 18.066 1.78711 18.5589 1.29397C19.0518 0.800825 19.6799 0.464909 20.3637 0.328691C20.7073 0.260742 21.0958 0.260742 21.5996 0.260742C21.662 0.260794 21.7244 0.260794 21.7868 0.260742C22.2906 0.260742 22.6791 0.260742 23.0214 0.328691C23.7053 0.464593 24.3335 0.800218 24.8266 1.29313C25.3198 1.78604 25.6557 2.41411 25.7919 3.09792C25.8599 3.44151 25.8599 3.82997 25.8599 4.33382V7.0851C25.8599 7.58895 25.8599 7.97741 25.7919 8.321C25.6558 9.00464 25.3201 9.63258 24.8272 10.1255C24.3343 10.6184 23.7063 10.9541 23.0227 11.0902C22.6791 11.1582 22.2906 11.1582 21.7868 11.1582C21.7244 11.1582 21.662 11.1582 21.5996 11.1582C21.0958 11.1582 20.7073 11.1582 20.365 11.0902C19.6811 10.9543 19.0529 10.6187 18.5598 10.1258C18.0666 9.63288 17.7307 9.00481 17.5945 8.321C17.5265 7.97741 17.5265 7.59023 17.5265 7.0851V6.671H9.1932V7.0851C9.1932 7.58895 9.1932 7.97741 9.12525 8.321C8.98912 9.00464 8.65339 9.63258 8.1605 10.1255C7.6676 10.6184 7.03966 10.9541 6.35602 11.0902C6.01243 11.1582 5.62525 11.1582 5.12012 11.1582C5.05773 11.1582 4.99533 11.1582 4.93294 11.1582C4.42909 11.1582 4.04063 11.1582 3.69832 11.0902C3.01445 10.9543 2.38623 10.6187 1.89309 10.1258C1.39995 9.63288 1.06403 9.00481 0.927812 8.321C0.859863 7.97741 0.859863 7.59023 0.859863 7.0851V4.33382C0.859863 3.82997 0.859863 3.44151 0.927812 3.0992C1.06371 2.41533 1.39934 1.78711 1.89225 1.29397C2.38517 0.800825 3.01323 0.464909 3.69704 0.328691C4.04063 0.260742 4.42909 0.260742 4.93294 0.260742ZM7.27012 4.42741C7.27012 3.78638 7.26499 3.60561 7.23935 3.47356C7.1775 3.16274 7.02488 2.87724 6.80079 2.65315C6.5767 2.42906 6.29119 2.27644 5.98038 2.21459C5.84704 2.18895 5.66756 2.18382 5.02653 2.18382C4.3855 2.18382 4.20474 2.18895 4.07268 2.21459C3.76187 2.27644 3.47636 2.42906 3.25227 2.65315C3.02818 2.87724 2.87556 3.16274 2.81371 3.47356C2.78807 3.60561 2.78294 3.7851 2.78294 4.42741V6.99151C2.78294 7.63254 2.78807 7.81331 2.81371 7.94536C2.94063 8.58125 3.43679 9.07741 4.07268 9.20433C4.20474 9.22997 4.38422 9.2351 5.02653 9.2351C5.66756 9.2351 5.84832 9.22997 5.98038 9.20433C6.29119 9.14248 6.5767 8.98986 6.80079 8.76577C7.02488 8.54168 7.1775 8.25618 7.23935 7.94536C7.26499 7.81331 7.27012 7.63382 7.27012 6.99151V4.42741ZM19.4496 6.99151C19.4496 7.63254 19.4547 7.81331 19.4804 7.94536C19.6073 8.58125 20.1035 9.07741 20.7394 9.20433C20.8714 9.22997 21.0509 9.2351 21.6932 9.2351C22.3342 9.2351 22.515 9.22997 22.647 9.20433C22.9579 9.14248 23.2434 8.98986 23.4675 8.76577C23.6915 8.54168 23.8442 8.25618 23.906 7.94536C23.9317 7.81331 23.9368 7.63382 23.9368 6.99151V4.42741C23.9368 3.78638 23.9317 3.60561 23.906 3.47356C23.8442 3.16274 23.6915 2.87724 23.4675 2.65315C23.2434 2.42906 22.9579 2.27644 22.647 2.21459C22.515 2.18895 22.3355 2.18382 21.6932 2.18382C21.0522 2.18382 20.8714 2.18895 20.7394 2.21459C20.4285 2.27644 20.143 2.42906 19.9189 2.65315C19.6948 2.87724 19.5422 3.16274 19.4804 3.47356C19.4547 3.60561 19.4496 3.7851 19.4496 4.42741V6.99151ZM13.8547 10.0133C14.0734 10.1446 14.2309 10.3573 14.2927 10.6047C14.3545 10.8521 14.3155 11.1139 14.1842 11.3325L13.1355 13.0813H15.2829C15.4531 13.0813 15.6202 13.1264 15.7672 13.2122C15.9142 13.2979 16.0359 13.4211 16.1197 13.5692C16.2035 13.7172 16.2465 13.8849 16.2443 14.0551C16.2422 14.2252 16.1949 14.3918 16.1073 14.5377L14.1842 17.7428C14.0517 17.9587 13.8393 18.1136 13.5931 18.1738C13.347 18.234 13.0871 18.1946 12.8699 18.0642C12.6526 17.9338 12.4956 17.7229 12.433 17.4774C12.3704 17.2319 12.4073 16.9716 12.5355 16.753L13.5842 15.0043H11.4368C11.2666 15.0043 11.0995 14.9592 10.9525 14.8734C10.8055 14.7877 10.6839 14.6645 10.6 14.5164C10.5162 14.3683 10.4732 14.2007 10.4754 14.0305C10.4776 13.8604 10.5248 13.6938 10.6124 13.5479L12.5355 10.3428C12.6668 10.1242 12.8795 9.96664 13.1269 9.90485C13.3743 9.84306 13.6361 9.88207 13.8547 10.0133ZM4.93166 16.9274H5.12012C5.62397 16.9274 6.01243 16.9274 6.35602 16.9954C7.03966 17.1315 7.6676 17.4672 8.1605 17.9601C8.65339 18.453 8.98912 19.0809 9.12525 19.7646C9.1932 20.1082 9.1932 20.4966 9.1932 21.0005V21.4146H17.5265V21.0005C17.5265 20.4966 17.5265 20.1082 17.5945 19.7659C17.7304 19.082 18.066 18.4538 18.5589 17.9606C19.0518 17.4675 19.6799 17.1316 20.3637 16.9954C20.7073 16.9274 21.0958 16.9274 21.5996 16.9274H21.7868C22.2906 16.9274 22.6791 16.9274 23.0214 16.9954C23.7053 17.1313 24.3335 17.4669 24.8266 17.9598C25.3198 18.4527 25.6557 19.0808 25.7919 19.7646C25.8599 20.1082 25.8599 20.4966 25.8599 21.0005V23.7518C25.8599 24.2556 25.8599 24.6441 25.7919 24.9864C25.656 25.6703 25.3204 26.2985 24.8275 26.7916C24.3346 27.2848 23.7065 27.6207 23.0227 27.7569C22.6791 27.8248 22.2919 27.8248 21.7868 27.8248H21.5996C21.0958 27.8248 20.7073 27.8248 20.365 27.7569C19.6811 27.621 19.0529 27.2854 18.5598 26.7925C18.0666 26.2995 17.7307 25.6715 17.5945 24.9877C17.5265 24.6441 17.5265 24.2556 17.5265 23.7518V23.3377H9.1932V23.7518C9.1932 24.2556 9.1932 24.6441 9.12525 24.9864C8.98935 25.6703 8.65372 26.2985 8.16081 26.7916C7.66789 27.2848 7.03983 27.6207 6.35602 27.7569C6.01243 27.8248 5.62525 27.8248 5.12012 27.8248H4.93294C4.42909 27.8248 4.04063 27.8248 3.69832 27.7569C3.01445 27.621 2.38623 27.2854 1.89309 26.7925C1.39995 26.2995 1.06403 25.6715 0.927812 24.9877C0.859863 24.6441 0.859863 24.2569 0.859863 23.7518V21.0005C0.859863 20.4966 0.859863 20.1082 0.927812 19.7659C1.06371 19.082 1.39934 18.4538 1.89225 17.9606C2.38517 17.4675 3.01323 17.1316 3.69704 16.9954C4.04063 16.9274 4.42781 16.9274 4.93166 16.9274ZM7.27012 21.0941C7.27012 20.453 7.26499 20.2723 7.23935 20.1402C7.1775 19.8294 7.02488 19.5439 6.80079 19.3198C6.5767 19.0957 6.29119 18.9431 5.98038 18.8813C5.84832 18.8556 5.66884 18.8505 5.02653 18.8505C4.3855 18.8505 4.20474 18.8556 4.07268 18.8813C3.76187 18.9431 3.47636 19.0957 3.25227 19.3198C3.02818 19.5439 2.87556 19.8294 2.81371 20.1402C2.78807 20.2723 2.78294 20.4518 2.78294 21.0941V23.6582C2.78294 24.2992 2.78807 24.48 2.81371 24.612C2.94063 25.2479 3.43679 25.7441 4.07268 25.871C4.20474 25.8966 4.38422 25.9018 5.02653 25.9018C5.66756 25.9018 5.84832 25.8966 5.98038 25.871C6.29119 25.8091 6.5767 25.6565 6.80079 25.4324C7.02488 25.2083 7.1775 24.9228 7.23935 24.612C7.26499 24.48 7.27012 24.3005 7.27012 23.6582V21.0941ZM19.4496 23.6582C19.4496 24.2992 19.4547 24.48 19.4804 24.612C19.6073 25.2479 20.1035 25.7441 20.7394 25.871C20.8714 25.8966 21.0509 25.9018 21.6932 25.9018C22.3342 25.9018 22.515 25.8966 22.647 25.871C22.9579 25.8091 23.2434 25.6565 23.4675 25.4324C23.6915 25.2083 23.8442 24.9228 23.906 24.612C23.9317 24.48 23.9368 24.3005 23.9368 23.6582V21.0941C23.9368 20.453 23.9317 20.2723 23.906 20.1402C23.8442 19.8294 23.6915 19.5439 23.4675 19.3198C23.2434 19.0957 22.9579 18.9431 22.647 18.8813C22.515 18.8556 22.3355 18.8505 21.6932 18.8505C21.0522 18.8505 20.8714 18.8556 20.7394 18.8813C20.4285 18.9431 20.143 19.0957 19.9189 19.3198C19.6948 19.5439 19.5422 19.8294 19.4804 20.1402C19.4547 20.2723 19.4496 20.4518 19.4496 21.0941V23.6582Z" fill="#333333"/>
</svg>
