<svg width="28" height="26" viewBox="0 0 28 26" fill="none" xmlns="http://www.w3.org/2000/svg">
<path id="Vector" d="M1.00468 14.2996C0.989705 14.4715 1.01075 14.6445 1.06648 14.8078C1.12221 14.9711 1.21142 15.1211 1.32843 15.2483C1.44544 15.3754 1.58771 15.4769 1.74621 15.5464C1.9047 15.6159 2.07597 15.6518 2.24913 15.6518H4.63495C4.96632 15.6518 5.28412 15.5207 5.51844 15.2873C5.75276 15.0539 5.88439 14.7374 5.88439 14.4073L5.88439 2.5842C5.88439 2.25413 5.75276 1.93757 5.51844 1.70418C5.28412 1.47078 4.96632 1.33966 4.63495 1.33966H3.2818C2.96908 1.33959 2.6677 1.45632 2.43719 1.6668C2.20667 1.87729 2.06378 2.16622 2.03673 2.47654L1.00468 14.2996ZM9.63273 14.7962C9.63273 15.3164 9.95759 15.7819 10.4293 16.0034C11.4594 16.4875 13.2143 17.4601 14.0058 18.775C15.026 20.47 15.2184 23.5322 15.2496 24.2335C15.254 24.3318 15.2515 24.4302 15.2646 24.5272C15.4339 25.7425 17.7885 24.3231 18.6912 22.8222C19.1816 22.0083 19.2441 20.9386 19.1929 20.1029C19.1373 19.2093 18.8743 18.3462 18.6162 17.4888L18.0665 15.6612L24.8491 15.6612C25.0422 15.6612 25.2326 15.6166 25.4054 15.531C25.5783 15.4454 25.7289 15.3211 25.8454 15.1678C25.9619 15.0145 26.0412 14.8363 26.077 14.6474C26.1128 14.4584 26.1041 14.2638 26.0517 14.0787L22.6969 2.24569C22.6229 1.98471 22.4653 1.75497 22.2481 1.59142C22.0309 1.42787 21.766 1.33947 21.4937 1.33966L10.8822 1.33966C10.5508 1.33966 10.233 1.47078 9.99869 1.70418C9.76437 1.93757 9.63273 2.25413 9.63273 2.5842L9.63273 14.7962Z" stroke="#CE4327" strokeWidth="2" strokeLinecap="round" strokeLinejoin="round"/>
</svg>
