<svg width="27" height="26" viewBox="0 0 27 26" fill="none" xmlns="http://www.w3.org/2000/svg">
<path id="Vector" d="M1.00466 12.026C0.989745 11.8542 1.01071 11.6812 1.06622 11.5178C1.12173 11.3545 1.21059 11.2046 1.32714 11.0774C1.44369 10.9503 1.5854 10.8487 1.74328 10.7793C1.90115 10.7098 2.07174 10.6739 2.24422 10.6739H4.62066C4.95074 10.6739 5.26729 10.805 5.50068 11.0384C5.73408 11.2718 5.8652 11.5883 5.8652 11.9184V23.7415C5.8652 24.0716 5.73408 24.3881 5.50068 24.6215C5.26729 24.8549 4.95074 24.986 4.62066 24.986H3.27283C2.96134 24.9861 2.66115 24.8694 2.43154 24.6589C2.20193 24.4484 2.0596 24.1595 2.03265 23.8491L1.00466 12.026ZM9.59881 11.5295C9.59881 11.0093 9.92239 10.5438 10.3922 10.3223C11.4183 9.83815 13.1663 8.86555 13.9547 7.5507C14.9708 5.85564 15.1625 2.79346 15.1936 2.09216C15.198 1.99384 15.1955 1.89553 15.2086 1.79845C15.3772 0.583162 17.7225 2.00256 18.6217 3.50347C19.1102 4.31739 19.1724 5.38707 19.1214 6.22278C19.066 7.11635 18.804 7.97944 18.547 8.83693L17.9994 10.6645H24.7554C24.9477 10.6645 25.1373 10.7091 25.3095 10.7947C25.4817 10.8803 25.6317 11.0046 25.7478 11.1579C25.8638 11.3112 25.9428 11.4893 25.9784 11.6783C26.0141 11.8672 26.0055 12.0619 25.9533 12.247L22.6117 24.08C22.5379 24.341 22.3809 24.5707 22.1646 24.7343C21.9482 24.8978 21.6844 24.9862 21.4132 24.986H10.8433C10.5133 24.986 10.1967 24.8549 9.96332 24.6215C9.72993 24.3881 9.59881 24.0716 9.59881 23.7415V11.5295Z" stroke="#0B9DBC" stroke-width="2" stroke-linecap="round" stroke-linejoin="round"/>
</svg>
