<svg width="28" height="28" viewBox="0 0 28 28" fill="none" xmlns="http://www.w3.org/2000/svg">
<g id="Group">
<path id="Vector" d="M9.09558 10.2953V17.7953M14.0956 10.2953V17.7953M9.09558 14.0453H15.3456C16.5106 14.0453 17.0931 14.0453 17.5518 13.8553C17.8554 13.7296 18.1311 13.5454 18.3634 13.3131C18.5957 13.0808 18.7799 12.805 18.9056 12.5015C19.0956 12.0428 19.0956 11.4603 19.0956 10.2953" stroke="#0B9DBC" stroke-width="2" stroke-linecap="round"/>
<path id="Vector_2" d="M20.3456 1.54527H7.84558C4.3938 1.54527 1.59558 4.34349 1.59558 7.79527V20.2953C1.59558 23.7471 4.3938 26.5453 7.84558 26.5453H20.3456C23.7974 26.5453 26.5956 23.7471 26.5956 20.2953V7.79527C26.5956 4.34349 23.7974 1.54527 20.3456 1.54527Z" stroke="#0B9DBC" stroke-width="2"/>
</g>
</svg>
