<svg width="15" height="13" viewBox="0 0 15 13" fill="none" xmlns="http://www.w3.org/2000/svg">
<g id="&#240;&#159;&#166;&#134; icon &#34;Twitter&#34;">
<path id="Vector" d="M12.6158 3.36259C12.6247 3.4961 12.6247 3.62964 12.6247 3.76315C12.6247 7.83541 9.72414 12.5276 4.42273 12.5276C2.78946 12.5276 1.27224 12.0221 -0.00402832 11.1448C0.228028 11.1734 0.451128 11.1829 0.692112 11.1829C2.03975 11.1829 3.28033 10.6965 4.271 9.86682C3.00366 9.8382 1.94159 8.95126 1.57567 7.73053C1.75418 7.75912 1.93267 7.7782 2.12011 7.7782C2.37892 7.7782 2.63776 7.74004 2.87872 7.67331C1.55784 7.38718 0.567142 6.14739 0.567142 4.65008V4.61195C0.950899 4.84084 1.39718 4.98389 1.87017 5.00294C1.0937 4.44979 0.584999 3.50564 0.584999 2.4375C0.584999 1.86529 0.727771 1.34076 0.977684 0.882979C2.39675 2.75222 4.52981 3.97293 6.92167 4.10647C6.87705 3.87758 6.85027 3.63918 6.85027 3.40075C6.85027 1.70316 8.13546 0.320312 9.73301 0.320312C10.563 0.320312 11.3127 0.692253 11.8393 1.29308C12.4908 1.15957 13.1155 0.90206 13.6689 0.549201C13.4547 1.26449 12.9995 1.86532 12.4016 2.24677C12.9817 2.18004 13.544 2.00834 14.0616 1.76994C13.669 2.38028 13.1781 2.92387 12.6158 3.36259Z" fill="black"/>
</g>
</svg>
