<svg width="30" height="30" viewBox="0 0 30 30" fill="none" xmlns="http://www.w3.org/2000/svg">
<g id="mingcute:tyre-fill">
<g id="Group">
<path id="Vector" d="M9.48375 2.8375C9.61875 2.775 9.75625 2.715 9.89625 2.6575L10.3275 2.48875C12.3813 1.73 15.0925 1.39125 19.6775 2.5375C21.7262 3.05 23.265 4.6425 24.2625 6.4375C25.515 8.6925 26.25 11.7225 26.25 15C26.25 18.2787 25.515 21.3075 24.2625 23.5625C23.2638 25.3575 21.725 26.95 19.6775 27.4625C15.0925 28.6087 12.3813 28.27 10.3275 27.5125L9.8975 27.3425C9.75902 27.2852 9.6215 27.2256 9.485 27.1638C7.73875 26.3725 6.3125 24.6963 5.3325 22.6163C4.34125 20.5125 3.75 17.8862 3.75 15C3.75 12.1137 4.34125 9.4875 5.3325 7.38375C6.3125 5.30375 7.7375 3.6275 9.48375 2.8375ZM18.75 5C17.6838 5 16.4562 5.7925 15.4237 7.6525C14.4125 9.47 13.75 12.065 13.75 15C13.75 17.935 14.4125 20.53 15.4237 22.3475C16.4562 24.2075 17.6838 25 18.75 25C19.8162 25 21.0437 24.2075 22.0762 22.3475C23.0875 20.53 23.75 17.935 23.75 15C23.75 12.065 23.0875 9.47 22.0762 7.6525C21.0437 5.7925 19.8162 5 18.75 5ZM18.75 10.625C19.6325 10.625 20.2625 11.3237 20.635 12.0687C21.0262 12.8512 21.25 13.8888 21.25 15C21.25 16.1125 21.025 17.1488 20.635 17.9312C20.2625 18.6763 19.6325 19.375 18.75 19.375C17.8675 19.375 17.2375 18.6763 16.865 17.9312C16.475 17.1488 16.25 16.1112 16.25 15C16.25 13.8875 16.475 12.8512 16.865 12.0687C17.2375 11.325 17.8675 10.625 18.75 10.625Z" fill="#0B9DBC"/>
</g>
</g>
</svg>
