<svg width="15" height="16" viewBox="0 0 15 16" fill="none" xmlns="http://www.w3.org/2000/svg">
<path id="Vector" d="M14.3158 0.784679C14.2723 0.676313 14.1887 0.588894 14.0824 0.540608C13.976 0.492322 13.8552 0.486887 13.745 0.525433C13.6347 0.56398 13.5436 0.643541 13.4905 0.747563C13.4375 0.851586 13.4266 0.972062 13.4601 1.08393C14.1568 3.08643 12.7738 4.58193 11.7193 5.38293L11.2933 4.77243C11.1501 4.56768 10.8298 4.39743 10.5808 4.39443L8.18982 4.40493C7.89773 4.41375 7.61346 4.50134 7.36707 4.65843L0.321566 9.59868C0.157687 9.714 0.0461805 9.88956 0.0114602 10.0869C-0.0232602 10.2843 0.021635 10.4873 0.136316 10.6517L3.33807 15.2327C3.57807 15.5739 3.96132 15.5327 4.30332 15.2942L11.3488 10.3532C11.5513 10.2099 11.7853 9.90093 11.8678 9.66468L12.6163 7.30593C12.6988 7.07043 12.6486 6.71118 12.5053 6.50643L12.2458 6.13443C13.6618 5.04918 15.1318 3.13143 14.3158 0.784679ZM11.0376 7.80318C10.9078 7.89403 10.7613 7.95842 10.6067 7.99267C10.452 8.02692 10.292 8.03035 10.136 8.00276C9.98001 7.97518 9.83096 7.91713 9.69739 7.83192C9.56382 7.74672 9.44834 7.63603 9.35757 7.50618C9.17376 7.24342 9.10172 6.91847 9.15727 6.60265C9.21281 6.28683 9.39139 6.00596 9.65382 5.82168C9.85954 5.67754 10.1052 5.60129 10.3564 5.60357C10.6075 5.60586 10.8517 5.68657 11.0548 5.83443C10.8508 5.95743 10.7106 6.02943 10.6843 6.04068C10.5913 6.08501 10.5162 6.1596 10.4712 6.25223C10.4261 6.34487 10.4139 6.45005 10.4365 6.55054C10.4591 6.65104 10.5151 6.74088 10.5954 6.80536C10.6757 6.86984 10.7756 6.90512 10.8786 6.90543C10.9431 6.90543 11.0091 6.89043 11.0713 6.86118C11.2168 6.79218 11.3728 6.71043 11.5356 6.61368C11.573 6.83873 11.5461 7.06977 11.458 7.28021C11.3699 7.49065 11.2242 7.67193 11.0376 7.80318Z" fill="#0B9DBC"/>
</svg>
