<svg width="30" height="31" viewBox="0 0 30 31" fill="none" xmlns="http://www.w3.org/2000/svg">
<g id="game-icons:weight">
<path id="Vector" d="M15 3.01587C12.3589 3.01587 10.1953 5.1795 10.1953 7.82056C10.1953 9.33298 10.9056 10.6879 12.0081 11.5706H7.5L1.875 28.4456H28.125L22.5 11.5706H17.9919C19.0944 10.6879 19.8047 9.33298 19.8047 7.82056C19.8047 5.1795 17.6411 3.01587 15 3.01587ZM15 5.12524C16.5011 5.12524 17.6953 6.3195 17.6953 7.82056C17.6953 9.32161 16.5011 10.5159 15 10.5159C13.4989 10.5159 12.3047 9.32161 12.3047 7.82056C12.3047 6.3195 13.4989 5.12524 15 5.12524ZM10.1827 17.0168H11.5597V18.9659L13.5444 17.0168H15.143L12.5718 19.5451L15.4077 22.3561H13.684L11.5597 20.2533V22.3561H10.1827V17.0168ZM17.2101 18.2614C17.489 18.2614 17.7346 18.3161 17.9468 18.4258C18.1589 18.5355 18.3533 18.7082 18.5298 18.9443V18.3508H19.8172V21.9521C19.8172 22.5958 19.6133 23.0869 19.2056 23.4255C18.8003 23.7665 18.2114 23.9368 17.4389 23.9368C17.1886 23.9368 16.9467 23.9178 16.7129 23.8796C16.4738 23.8402 16.2382 23.7816 16.0084 23.7044V22.7066C16.2326 22.8354 16.452 22.9308 16.6664 22.9928C16.8811 23.0571 17.0969 23.0893 17.3139 23.0893C17.7335 23.0893 18.041 22.9976 18.2365 22.8139C18.432 22.6304 18.5298 22.3431 18.5298 21.9521V21.6767C18.3534 21.9103 18.159 22.082 17.9468 22.1917C17.7347 22.3012 17.489 22.3562 17.2101 22.3562C16.7212 22.3562 16.3172 22.1643 15.9978 21.7805C15.6783 21.3942 15.5185 20.9031 15.5185 20.3071C15.5185 19.7086 15.6783 19.2186 15.9978 18.8372C16.3172 18.4534 16.7212 18.2614 17.2101 18.2614ZM17.6858 19.184C17.4211 19.184 17.2148 19.2818 17.067 19.4773C16.9192 19.6728 16.8453 19.9494 16.8453 20.3071C16.8453 20.6742 16.9168 20.9531 17.0599 21.1438C17.2029 21.3322 17.4116 21.4264 17.6858 21.4264C17.9528 21.4264 18.1601 21.3285 18.308 21.1331C18.4558 20.9375 18.5297 20.6622 18.5297 20.307C18.5297 19.9493 18.4558 19.6728 18.308 19.4773C18.1601 19.2818 17.9528 19.184 17.6857 19.184H17.6858Z" fill="#0B9DBC"/>
</g>
</svg>
