<svg width="15" height="12" viewBox="0 0 15 12" fill="none" xmlns="http://www.w3.org/2000/svg">
<g id="&#240;&#159;&#166;&#134; icon &#34;YouTube&#34;">
<path id="Vector" d="M14.2705 2.12767C14.1087 1.4768 13.6321 0.964189 13.0269 0.790228C11.93 0.474121 7.53158 0.474121 7.53158 0.474121C7.53158 0.474121 3.13317 0.474121 2.03624 0.790228C1.43108 0.964217 0.95446 1.4768 0.792694 2.12767C0.498779 3.30742 0.498779 5.76885 0.498779 5.76885C0.498779 5.76885 0.498779 8.23028 0.792694 9.41003C0.95446 10.0609 1.43108 10.5522 2.03624 10.7261C3.13317 11.0422 7.53158 11.0422 7.53158 11.0422C7.53158 11.0422 11.93 11.0422 13.0269 10.7261C13.6321 10.5522 14.1087 10.0609 14.2705 9.41003C14.5644 8.23028 14.5644 5.76885 14.5644 5.76885C14.5644 5.76885 14.5644 3.30742 14.2705 2.12767ZM6.09305 8.00364V3.53405L9.76927 5.7689L6.09305 8.00364Z" fill="black"/>
</g>
</svg>
